<?xml version="1.0" encoding="utf-8"?>
<!-- Generator: Adobe Illustrator 27.5.0, SVG Export Plug-In . SVG Version: 6.00 Build 0)  -->
<svg version="1.1" id="Layer_1" xmlns="http://www.w3.org/2000/svg" xmlns:xlink="http://www.w3.org/1999/xlink" x="0px" y="0px"
	 viewBox="0 0 271.7 262.26" style="enable-background:new 0 0 271.7 262.26;" xml:space="preserve">
<style type="text/css">
	.st0{fill:#7EA08A;}
	.st1{fill:#235032;}
	.st2{fill:#F6E5CD;}
	.st3{fill:#F6E6CD;}
	.st4{fill:#006837;stroke:#F6E6CD;stroke-width:8;stroke-miterlimit:10;}
	.st5{fill:url(#SVGID_1_);}
	.st6{fill:url(#SVGID_00000088819492067106191610000006319696220963727780_);}
	.st7{fill:#9BCE7E;}
	.st8{fill:#006838;}
	.st9{fill:url(#SVGID_00000005947116522988238000000014321858784729634477_);}
</style>
<g>
	<path class="st0" d="M58.06,199.99l72.62,47.28l77-50.13c14.25-9.28,22.85-25.13,22.85-42.13l0-102.74l-34.44-22.42
		c-39.77-25.89-91.06-25.89-130.82,0L30.83,52.27l0,97.52C30.83,170.05,41.07,188.94,58.06,199.99z"/>
	<path class="st1" d="M130.68,251.45l-74.53-48.52c-18.04-11.75-28.82-31.61-28.82-53.14V50.37l36.03-23.45
		c40.9-26.62,93.75-26.62,134.64,0l36.03,23.45v104.64c0,18.26-9.14,35.11-24.44,45.07L130.68,251.45z M59.97,197.06l70.72,46.03
		l75.09-48.89c13.31-8.66,21.26-23.32,21.26-39.2V54.17l-32.85-21.38c-38.58-25.11-88.43-25.11-127.01,0L34.33,54.17v95.62
		C34.33,168.94,43.91,186.61,59.97,197.06L59.97,197.06z"/>
</g>
<rect x="89.23" y="180.92" class="st2" width="81.5" height="10"/>
<rect x="102.02" y="196.19" class="st3" width="57.17" height="10"/>
<rect x="93.14" y="166.65" class="st3" width="73.15" height="10"/>
<rect x="110.01" y="210.64" class="st3" width="42.17" height="10"/>
<path class="st4" d="M179.53,159.75c9.86-12.44,16.1-28.67,16.74-46.59c1.46-40.69-26.49-74.72-62.42-76
	c-35.93-1.29-66.23,30.66-67.69,71.35c-0.66,18.38,4.68,35.4,14.05,48.65c0.09,0.13,0.19,0.26,0.29,0.4
	c32.53,1.16,71.45-0.82,103.98,0.35c-32.53-1.16-71.45,0.82-103.98-0.35"/>
<linearGradient id="SVGID_1_" gradientUnits="userSpaceOnUse" x1="85.9375" y1="108.9765" x2="148.33" y2="108.5056" gradientTransform="matrix(1 -1.575431e-03 1.575431e-03 1 -3.9865 -0.0851)">
	<stop  offset="0.2268" style="stop-color:#9BCE7E"/>
	<stop  offset="0.2687" style="stop-color:#89C777"/>
	<stop  offset="0.3766" style="stop-color:#5FB768"/>
	<stop  offset="0.487" style="stop-color:#3DAA5B"/>
	<stop  offset="0.5986" style="stop-color:#22A052"/>
	<stop  offset="0.7122" style="stop-color:#0F994B"/>
	<stop  offset="0.8287" style="stop-color:#049446"/>
	<stop  offset="0.9527" style="stop-color:#009345"/>
</linearGradient>
<path class="st5" d="M127.93,149.58h-18.56c0,0-3.38-11.02-11.95-19.19s-12.98-22.45-7.1-42.45s21.15-22.13,17.46-20
	c-7.09,4.08-9.55,15.82-10.37,21.13c-0.57,3.72-3.03,19.7,11.96,32.35S127.81,143.46,127.93,149.58z"/>
<radialGradient id="SVGID_00000165211245415970579100000001665105312341793945_" cx="133.9763" cy="85.8522" r="140.5014" fx="0.223" fy="128.8723" gradientTransform="matrix(0.9996 0.0283 -0.1132 4.0014 6.551 -261.0983)" gradientUnits="userSpaceOnUse">
	<stop  offset="0" style="stop-color:#9BCE7E"/>
	<stop  offset="0.0201" style="stop-color:#89C777"/>
	<stop  offset="0.0718" style="stop-color:#5FB768"/>
	<stop  offset="0.1247" style="stop-color:#3DAA5B"/>
	<stop  offset="0.1782" style="stop-color:#22A052"/>
	<stop  offset="0.2326" style="stop-color:#0F994B"/>
	<stop  offset="0.2885" style="stop-color:#049446"/>
	<stop  offset="0.3479" style="stop-color:#009345"/>
	<stop  offset="0.7424" style="stop-color:#F6E6CD"/>
	<stop  offset="0.9832" style="stop-color:#F1F1F2"/>
</radialGradient>
<path style="fill:url(#SVGID_00000165211245415970579100000001665105312341793945_);" d="M131.4,49.1c0,0,0.21,7.69,10.03,22.69
	c9.82,15,7.37,11.09,10.98,19.31s1.67,13.28-3.02,22.11c-2.2,4.15-7.89,8.18-7.89,8.18l-5.38,2.12c0,0,4.54-9.69-1.43-24.8
	c0,0-2.72-9.47-4.17-18.47c0,0-4.66,16.97-5.21,18.21c-2.17,4.88-6.95,19.44-2.83,24.68c0,0-8.88-2.81-14.07-15.76
	c-5.18-12.95,1.52-21.73,6.2-26.72C114.61,80.64,124.46,68.12,131.4,49.1z"/>
<g>
	<path class="st7" d="M130.41,92.45c0.01-0.19,0.31-0.19,0.34,0c0.52,3.07,2.18,12.31,3.91,15.54c2.26,4.23,3.24,12.21,0.35,20.02
		c-0.92,2.49-1.26,3.35-4.28,10.84c-0.06,0.14-0.25,0.15-0.32,0.02c-0.65-1.29-2.82-6.31-5.01-10.61
		c-2.36-4.63-1.54-15.93,0.82-19.95c0.03-0.05,0.06-0.11,0.08-0.17C126.91,106.28,130.17,100.21,130.41,92.45z"/>
	<path class="st8" d="M130.57,140.46c-0.63,0-1.21-0.35-1.49-0.92c-0.23-0.46-0.66-1.39-1.21-2.59c-1.01-2.22-2.4-5.25-3.8-8.02
		c-2.62-5.15-1.74-16.91,0.85-21.36c0.14-0.4,0.35-0.91,0.61-1.54c1.12-2.67,3.2-7.64,3.38-13.63c0.03-0.85,0.69-1.54,1.54-1.59
		c0.88-0.06,1.63,0.54,1.78,1.39c0.96,5.7,2.45,12.65,3.75,15.09c2.44,4.57,3.52,12.91,0.43,21.25c-0.94,2.55-1.35,3.58-4.29,10.88
		c-0.24,0.61-0.83,1.02-1.48,1.05C130.62,140.46,130.59,140.46,130.57,140.46z M130.74,100.27c-0.78,2.94-1.77,5.32-2.44,6.92
		c-0.25,0.6-0.45,1.08-0.56,1.41c-0.07,0.21-0.16,0.37-0.21,0.46c-2.11,3.59-2.91,14.33-0.78,18.52c1.38,2.71,2.73,5.66,3.74,7.87
		c2.01-5,2.35-5.89,3.12-7.96c2.75-7.43,1.79-14.95-0.26-18.79C132.38,106.92,131.47,103.57,130.74,100.27z M129.15,92.7
		C129.15,92.7,129.15,92.7,129.15,92.7C129.15,92.7,129.15,92.7,129.15,92.7z"/>
</g>
<linearGradient id="SVGID_00000015343772509503833480000009740363259631319474_" gradientUnits="userSpaceOnUse" x1="136.9254" y1="107.6874" x2="266.1976" y2="107.6874" gradientTransform="matrix(1 0 0 1 -3.8459 1.0432)">
	<stop  offset="0" style="stop-color:#009345"/>
	<stop  offset="0.0201" style="stop-color:#129A4C"/>
	<stop  offset="0.0718" style="stop-color:#3CAA5B"/>
	<stop  offset="0.1247" style="stop-color:#5EB768"/>
	<stop  offset="0.1782" style="stop-color:#79C171"/>
	<stop  offset="0.2326" style="stop-color:#8CC878"/>
	<stop  offset="0.2885" style="stop-color:#97CD7D"/>
	<stop  offset="0.3479" style="stop-color:#9BCE7E"/>
	<stop  offset="0.7424" style="stop-color:#F6E6CD"/>
	<stop  offset="0.9832" style="stop-color:#F6E6CD"/>
</linearGradient>
<path style="fill:url(#SVGID_00000015343772509503833480000009740363259631319474_);" d="M133.08,149.88h18.56
	c0,0,3.38-11.02,11.95-19.19s12.98-22.45,7.1-42.45c-5.88-20-21.15-22.13-17.46-20c7.09,4.08,9.55,15.82,10.37,21.13
	c0.57,3.72,3.03,19.7-11.96,32.35S133.19,143.76,133.08,149.88z"/>
</svg>
