<?xml version="1.0" encoding="utf-8"?>
<!-- Generator: Adobe Illustrator 27.5.0, SVG Export Plug-In . SVG Version: 6.00 Build 0)  -->
<svg version="1.1" id="Layer_1" xmlns="http://www.w3.org/2000/svg" xmlns:xlink="http://www.w3.org/1999/xlink" x="0px" y="0px"
	 viewBox="0 0 234.19 221.71" style="enable-background:new 0 0 234.19 221.71;" xml:space="preserve">
<style type="text/css">
	.st0{fill:#006837;}
	.st1{fill:#B6DDBD;}
	.st2{fill:#F7E7CE;}
	.st3{fill:#C69C6D;}
	.st4{fill:#C7B299;}
	.st5{fill:#333333;}
	.st6{fill:#FBD09D;}
	.st7{fill:#F2F2F2;}
	.st8{fill:#90CAF9;stroke:#E3F2FD;stroke-width:4.1553;stroke-miterlimit:10;}
	.st9{fill:#BBDEFB;}
	.st10{fill:#5C6BC0;}
	.st11{fill:#FFFFFF;}
	.st12{fill:#231F20;}
	.st13{fill:#FDD6B7;}
	.st14{fill:#6D6E71;}
	.st15{fill:#58595B;}
	.st16{fill:#EEB388;}
	.st17{fill:none;}
	.st18{fill:#46220C;}
	.st19{fill:#D7A97C;}
	.st20{fill:#808080;}
</style>
<ellipse class="st0" cx="38.55" cy="114.15" rx="21.47" ry="21.77"/>
<ellipse class="st1" cx="53.05" cy="68.59" rx="21.47" ry="21.77"/>
<ellipse class="st0" cx="91.62" cy="39.2" rx="21.47" ry="21.77"/>
<ellipse class="st2" cx="139.55" cy="37.85" rx="21.47" ry="21.77"/>
<ellipse class="st1" cx="179.72" cy="67.35" rx="21.47" ry="21.77"/>
<ellipse class="st0" cx="194.72" cy="114.69" rx="21.47" ry="21.77"/>
<ellipse class="st1" cx="182.49" cy="160.85" rx="21.47" ry="21.77"/>
<g id="g12520" transform="matrix(0.12047204,-0.12047204,0.12047204,0.12047204,380.4504,-3377.7307)">
	<path id="path12165" class="st3" d="M-15794.43,13710.97c-12.12,0.17-24.01,7.96-23.76,23.18c0,0.08,0,0.15,0,0.23v0.1
		l-0.85,119.66v0.03c-0.57,32.13,48.28,31.49,48.86-0.32c0-0.01,0-0.02,0-0.02l0.85-119.78c0-0.04,0-0.08,0-0.11
		C-15769.78,13718.38-15782.22,13710.8-15794.43,13710.97L-15794.43,13710.97z M-15807.18,13726.63c1.86-0.01,3.36,1.48,3.34,3.34
		c-0.01,1.86-1.53,3.38-3.39,3.39c-1.86,0.01-3.36-1.48-3.34-3.34C-15810.56,13728.17-15809.04,13726.65-15807.18,13726.63z
		 M-15793.71,13726.54c1.86-0.01,3.36,1.48,3.34,3.34c-0.01,1.86-1.53,3.38-3.39,3.39c-1.86,0.01-3.36-1.48-3.34-3.34
		C-15797.09,13728.07-15795.57,13726.55-15793.71,13726.54z M-15780.23,13726.44c1.86-0.01,3.36,1.48,3.34,3.34
		c-0.01,1.86-1.53,3.38-3.39,3.39s-3.36-1.48-3.34-3.34C-15783.61,13727.98-15782.09,13726.46-15780.23,13726.44z
		 M-15800.54,13740.06c1.86-0.01,3.36,1.48,3.34,3.34c-0.01,1.86-1.53,3.38-3.39,3.39c-1.86,0.01-3.36-1.48-3.34-3.34
		C-15803.92,13741.59-15802.4,13740.07-15800.54,13740.06z M-15787.07,13739.96c1.86-0.01,3.36,1.48,3.34,3.34
		c-0.01,1.86-1.53,3.38-3.39,3.39s-3.36-1.48-3.34-3.34C-15790.45,13741.5-15788.93,13739.98-15787.07,13739.96z
		 M-15807.37,13753.58c1.86-0.01,3.36,1.48,3.34,3.34s-1.53,3.38-3.39,3.39c-1.86,0.01-3.36-1.48-3.34-3.34
		C-15810.75,13755.11-15809.23,13753.59-15807.37,13753.58z M-15793.9,13753.48c1.86-0.01,3.36,1.48,3.34,3.34
		c-0.01,1.86-1.53,3.38-3.39,3.39c-1.86,0.01-3.36-1.48-3.34-3.34S-15795.76,13753.5-15793.9,13753.48z M-15780.43,13753.39
		c1.86-0.01,3.36,1.48,3.34,3.34c-0.01,1.86-1.53,3.38-3.39,3.39c-1.86,0.01-3.36-1.48-3.34-3.34
		C-15783.8,13754.92-15782.29,13753.4-15780.43,13753.39z M-15807.21,13769.68l26.4-0.19c3.42-0.02,6.16,2.71,6.13,6.13l-0.27,37.42
		c-0.02,3.42-2.8,6.19-6.22,6.22l-26.4,0.19c-3.42,0.02-6.16-2.71-6.13-6.13l0.27-37.42
		C-15813.41,13772.48-15810.63,13769.71-15807.21,13769.68z M-15807.91,13828.82c1.86-0.01,3.36,1.48,3.34,3.34
		c-0.01,1.86-1.53,3.38-3.39,3.39c-1.86,0.01-3.36-1.48-3.34-3.34C-15811.29,13830.35-15809.77,13828.83-15807.91,13828.82z
		 M-15794.43,13828.73c1.86-0.01,3.36,1.48,3.34,3.34c-0.01,1.86-1.53,3.38-3.39,3.39c-1.86,0.01-3.36-1.48-3.34-3.34
		C-15797.81,13830.26-15796.29,13828.74-15794.43,13828.73z M-15780.96,13828.63c1.86-0.01,3.36,1.48,3.34,3.34
		s-1.53,3.38-3.39,3.39c-1.86,0.01-3.36-1.48-3.34-3.34C-15784.34,13830.16-15782.82,13828.64-15780.96,13828.63z
		 M-15801.27,13842.25c1.86-0.01,3.36,1.48,3.34,3.34c-0.01,1.86-1.53,3.38-3.39,3.39c-1.86,0.01-3.36-1.48-3.34-3.34
		C-15804.64,13843.78-15803.13,13842.26-15801.27,13842.25z M-15787.79,13842.15c1.86-0.01,3.36,1.48,3.34,3.34
		c-0.01,1.86-1.53,3.38-3.39,3.39c-1.86,0.01-3.36-1.48-3.34-3.34C-15791.17,13843.68-15789.65,13842.16-15787.79,13842.15z
		 M-15808.1,13855.77c1.86-0.01,3.36,1.48,3.34,3.34c-0.01,1.86-1.53,3.38-3.39,3.39s-3.36-1.48-3.34-3.34
		C-15811.48,13857.3-15809.96,13855.78-15808.1,13855.77z M-15794.62,13855.67c1.86-0.01,3.36,1.48,3.34,3.34
		c-0.01,1.86-1.53,3.38-3.39,3.39c-1.86,0.01-3.36-1.48-3.34-3.34C-15798,13857.2-15796.48,13855.68-15794.62,13855.67z
		 M-15781.15,13855.58c1.86-0.01,3.36,1.48,3.34,3.34s-1.53,3.38-3.39,3.39c-1.86,0.01-3.36-1.48-3.34-3.34
		C-15784.53,13857.11-15783.01,13855.59-15781.15,13855.58z"/>
	<path id="rect12310" class="st4" d="M-15807.3,13773.69l26.51-0.19c1.24-0.01,2.24,0.99,2.23,2.23l-0.26,37.25
		c-0.01,1.24-1.02,2.25-2.26,2.26l-26.51,0.19c-1.24,0.01-2.24-0.99-2.23-2.23l0.26-37.25
		C-15809.55,13774.71-15808.54,13773.7-15807.3,13773.69z"/>
	<path id="path12501" class="st3" d="M-15732.82,13769.6c-0.23,0-0.46,0.01-0.7,0.01c-0.08,0-0.15,0-0.23,0l-0.11,0l-31.76,0.23
		c-0.09,16.28-0.29,32.57-0.42,48.86l31.93-0.23c0.04,0,0.08,0,0.11,0c15.56-0.67,23.31-13.22,23.32-25.43
		C-15710.67,13781.12-15718.07,13769.52-15732.82,13769.6L-15732.82,13769.6z M-15854.29,13770.47
		c-31.38,0.64-31.17,48.73,0.38,48.85c0.01,0,0.02,0,0.03,0l31.12-0.22c0.1-16.28,0.3-32.57,0.43-48.86l-31.17,0.22h-0.03
		C-15853.79,13770.47-15854.05,13770.47-15854.29,13770.47z M-15858.64,13778.09c1.86-0.01,3.36,1.48,3.34,3.34
		c-0.01,1.86-1.53,3.38-3.39,3.39c-1.86,0.01-3.36-1.48-3.34-3.34C-15862.02,13779.62-15860.5,13778.1-15858.64,13778.09z
		 M-15831.69,13777.9c1.86-0.01,3.36,1.48,3.34,3.34c-0.01,1.86-1.53,3.38-3.39,3.39c-1.86,0.01-3.36-1.48-3.34-3.34
		C-15835.07,13779.43-15833.55,13777.91-15831.69,13777.9z M-15756.45,13777.36c1.86-0.01,3.36,1.48,3.34,3.34
		c-0.01,1.86-1.53,3.38-3.39,3.39c-1.86,0.01-3.36-1.48-3.34-3.34C-15759.83,13778.9-15758.31,13777.38-15756.45,13777.36z
		 M-15729.5,13777.17c1.86-0.01,3.36,1.48,3.34,3.34c-0.01,1.86-1.53,3.38-3.39,3.39c-1.86,0.01-3.36-1.48-3.34-3.34
		C-15732.88,13778.7-15731.37,13777.19-15729.5,13777.17z M-15845.21,13784.73c1.86-0.01,3.36,1.48,3.34,3.34s-1.53,3.38-3.39,3.39
		c-1.86,0.01-3.36-1.48-3.34-3.34C-15848.59,13786.26-15847.07,13784.74-15845.21,13784.73z M-15743.03,13784
		c1.86-0.01,3.36,1.48,3.34,3.34c-0.01,1.86-1.53,3.38-3.39,3.39c-1.86,0.01-3.36-1.48-3.34-3.34
		C-15746.4,13785.54-15744.89,13784.02-15743.03,13784z M-15858.73,13791.56c1.86-0.01,3.36,1.48,3.34,3.34
		c-0.01,1.86-1.53,3.38-3.39,3.39c-1.86,0.01-3.36-1.48-3.34-3.34C-15862.11,13793.09-15860.59,13791.58-15858.73,13791.56z
		 M-15831.79,13791.37c1.86-0.01,3.36,1.48,3.34,3.34c-0.01,1.86-1.53,3.38-3.39,3.39c-1.86,0.01-3.36-1.48-3.34-3.34
		C-15835.17,13792.9-15833.65,13791.38-15831.79,13791.37z M-15756.55,13790.84c1.86-0.01,3.36,1.48,3.34,3.34
		c-0.01,1.86-1.53,3.38-3.39,3.39c-1.86,0.01-3.36-1.48-3.34-3.34C-15759.92,13792.37-15758.41,13790.85-15756.55,13790.84z
		 M-15729.6,13790.65c1.86-0.01,3.36,1.48,3.34,3.34c-0.01,1.86-1.53,3.38-3.39,3.39c-1.86,0.01-3.36-1.48-3.34-3.34
		C-15732.98,13792.18-15731.46,13790.66-15729.6,13790.65z M-15845.31,13798.2c1.86-0.01,3.36,1.48,3.34,3.34
		c-0.01,1.86-1.53,3.38-3.39,3.39c-1.86,0.01-3.36-1.48-3.34-3.34S-15847.17,13798.22-15845.31,13798.2z M-15743.12,13797.48
		c1.86-0.01,3.36,1.48,3.34,3.34c-0.01,1.86-1.53,3.38-3.39,3.39c-1.86,0.01-3.36-1.48-3.34-3.34
		C-15746.5,13799.01-15744.98,13797.49-15743.12,13797.48z M-15858.83,13805.04c1.86-0.01,3.36,1.48,3.34,3.34
		c-0.01,1.86-1.53,3.38-3.39,3.39c-1.86,0.01-3.36-1.48-3.34-3.34C-15862.21,13806.57-15860.69,13805.05-15858.83,13805.04z
		 M-15831.88,13804.84c1.86-0.01,3.36,1.48,3.34,3.34c-0.01,1.86-1.53,3.38-3.39,3.39c-1.86,0.01-3.36-1.48-3.34-3.34
		C-15835.26,13806.38-15833.74,13804.86-15831.88,13804.84z M-15756.64,13804.31c1.86-0.01,3.36,1.48,3.34,3.34
		c-0.01,1.86-1.53,3.38-3.39,3.39c-1.86,0.01-3.36-1.48-3.34-3.34C-15760.02,13805.84-15758.5,13804.32-15756.64,13804.31z
		 M-15729.7,13804.12c1.86-0.01,3.36,1.48,3.34,3.34c-0.01,1.86-1.53,3.38-3.39,3.39c-1.86,0.01-3.36-1.48-3.34-3.34
		C-15733.08,13805.65-15731.56,13804.13-15729.7,13804.12z"/>
</g>
<g id="g16817" transform="matrix(0.16281488,0,0,0.16281123,3197.6862,-3270.6663)">
	<path id="path16653" d="M-18536.13,20519.85c-1.4,0.02-2.53,1.16-2.51,2.54c0,17.63,2.86,33.92,7.73,46.58
		c4.88,12.66,11.72,21.97,20.59,24.78c4.91,1.56,9.96,0.72,14.34-1.91c4.38-2.64,8.2-6.97,11.5-12.59
		c5.99-10.21,10.27-24.73,11.9-41.82c-1.7,0.13-3.42-0.07-5.06-0.55c-1.59,16.56-5.77,30.53-11.24,39.83
		c-3,5.11-6.38,8.79-9.75,10.82c-3.36,2.03-6.59,2.52-10.12,1.41c-6.36-2.01-12.8-9.84-17.39-21.76
		c-4.59-11.93-7.39-27.7-7.39-44.79c0.01-1.39-1.11-2.53-2.52-2.54C-18536.08,20519.85-18536.11,20519.85-18536.13,20519.85
		L-18536.13,20519.85z"/>
	<path id="path16651" d="M-18509.58,20425.6c-0.04,1.96,0.11,3.93,0.12,5.89c2.32,0.31,5.13,1.2,7.45,2.95
		c3.34,2.52,5.9,6.44,5.73,14.07c-0.88,38.46-11.07,55.35-20.64,63.04c-9.57,7.69-19.26,6.31-19.26,6.31
		c-0.18-0.03-9.7,1.38-19.27-6.31c-9.57-7.7-19.75-24.59-20.63-63.04c-0.17-7.63,2.39-11.56,5.73-14.07
		c2.32-1.75,5.12-2.63,7.43-2.95c0.02-1.91,0.17-3.83,0.15-5.6c-0.02-0.1-0.04-0.19-0.06-0.29c-3.1,0.29-6.79,1.38-10.17,3.92
		c-4.51,3.4-8.22,9.76-8,19.15c0.91,39.64,11.77,58.83,22.8,67.69c10.85,8.72,21.63,7.32,22.03,7.32c0.39,0,11.18,1.39,22.03-7.32
		c11.03-8.87,21.89-28.05,22.8-67.69c0.21-9.39-3.5-15.75-8.01-19.15C-18502.77,20426.98-18506.47,20425.88-18509.58,20425.6
		L-18509.58,20425.6z"/>
	<path id="rect16655" class="st5" d="M-18556.79,20418.59c-1.93,0-3.56,1.92-3.56,4.21v11.3c0,2.29,1.63,4.22,3.56,4.22
		s3.56-1.93,3.56-4.22v-11.3C-18553.23,20420.51-18554.87,20418.59-18556.79,20418.59z"/>
	<path id="path16659" class="st5" d="M-18473.91,20506.01c-7.09,0-12.87,6.83-12.87,15.23s5.78,15.23,12.87,15.23
		s12.86-6.83,12.86-15.23S-18466.82,20506.01-18473.91,20506.01z M-18473.91,20508.92c5.76,0,10.4,5.5,10.4,12.32
		s-4.64,12.32-10.4,12.32c-5.76,0-10.4-5.5-10.4-12.32S-18479.67,20508.92-18473.91,20508.92z"/>
	<path id="rect16679" d="M-18515.59,20418.59c1.93,0,3.56,3.09,3.56,6.76v18.16c0,3.67-1.63,6.78-3.56,6.78s-3.55-3.11-3.55-6.78
		v-18.16C-18519.15,20421.68-18517.52,20418.59-18515.59,20418.59z"/>
</g>
<g id="g12452" transform="matrix(0.22042769,0,0,0.22042769,6170.5698,-3151.7877)">
	<path id="path12411" class="st6" d="M-27847.73,14764.48c-18.66,0-31.35,15.55-31.35,33.12c0,6.56,2,15.78,6.84,26.14
		c13.03,0.07,25.41,0.25,29.73,0.12c2.05-4.88,4.11-9.76,6.16-14.65c1.06-5.41,9.14-7.19,12.52-2.93c2.41,5.5,3.24,11.58,4.41,17.47
		c2.47-11.56,4.94-23.11,7.42-34.67c0.12-4.14,2.88-8.95,7.41-9.12c2.38-0.13,5.49,0.74,6.14,2.89c4.58,13.14,7.2,26.88,10.89,40.29
		c0.11,0.41,0.32,0.66,0.5,0.84s0.38,0.27,0.69,0.32l20.81,0.05l1.99-4.19l0.01-0.02c0-0.01,0.01-0.02,0.01-0.03
		c0.03-0.05,0.05-0.1,0.07-0.15c3.59-8.82,5.11-16.63,5.11-22.34c0-17.56-12.69-33.13-31.35-33.13c-18.7,0-29.01,16.91-29.01,16.91
		c0,0-0.01,0.01-0.01,0.01c0,0-0.01-0.01-0.01-0.01c0,0-10.21-16.71-28.71-16.88c-0.01,0-0.02-0.01-0.03-0.01
		C-27847.56,14764.49-27847.64,14764.48-27847.73,14764.48L-27847.73,14764.48z M-27803.51,14818.45
		c-2.99,14.03-5.96,28.06-9.1,42.04c-0.34,5.94-9.31,8.15-12.68,3.43c-3.3-9.29-4.51-19.22-6.52-28.88c-0.57,0.78-1.23,1.49-2.06,2
		c-4.28,1.57-9.05,1.19-13.56,1.17c-2.37-0.17-8.84-0.17-16.57-0.11c9.24,13.51,23.36,27.56,43.97,38.81c0.81,0.44,1.85,0.44,2.65,0
		c20.44-11.15,34.5-24.96,43.75-38.34c-5.08-0.03-9.27-0.04-10.84,0.01c-7.84,0.01-12.15-0.3-13.36-1.99
		C-27801.28,14831.97-27801.97,14824.58-27803.51,14818.45L-27803.51,14818.45z"/>
	<path id="path12414" class="st7" d="M-27804.14,14784.53c-1.2-0.02-2.35,0.9-2.59,2.07l-12.82,59.86l-7.18-35.97
		c-0.21-1.09-1.21-1.99-2.32-2.09c-1.11-0.11-2.24,0.57-2.67,1.6l-7.7,18.39h-27.92c-0.69-0.01-1.39,0.27-1.88,0.76
		c-0.49,0.48-0.78,1.17-0.78,1.86c0,0.69,0.28,1.38,0.78,1.87s1.19,0.76,1.88,0.75h29.66c1.02,0,2.02-0.66,2.41-1.6l5.07-12.09
		l8,39.98c0.24,1.16,1.36,2.09,2.54,2.09c1.19,0.01,2.32-0.9,2.57-2.06l13.14-61.38c2.78,10.86,5.77,22.39,8.49,33
		c0.27,1.54,0.91,2.42,2.92,2.51h29.66c0.69,0.01,1.39-0.26,1.88-0.75s0.78-1.18,0.78-1.87c0-0.69-0.28-1.37-0.78-1.86
		s-1.19-0.77-1.88-0.76h-27.9l-10.89-42.34c-0.28-1.1-1.34-1.94-2.47-1.97L-27804.14,14784.53z"/>
</g>
<ellipse class="st2" cx="139.55" cy="188.65" rx="21.47" ry="21.77"/>
<g id="g13996" transform="matrix(0.17604888,0,0,0.17604888,4103.2791,-1097.9453)">
	<path id="path13998" class="st7" d="M-22195.79,6764.3c-8.89,0.13-17.42,4.83-22.07,13.13l-37.38,66.7
		c19.84,11.11,39.67,22.22,59.52,33.31l37.35-66.66c6.99-12.46,2.51-28.14-10.05-35.18l-14.16-7.94c-3.92-2.2-8.16-3.29-12.34-3.36
		C-22195.21,6764.3-22195.5,6764.3-22195.79,6764.3L-22195.79,6764.3z"/>
	<path id="path14000" class="st6" d="M-22257.74,6848.6l-37.37,66.67c-6.98,12.46-2.47,28.17,10.09,35.2l14.16,7.93
		c12.56,7.04,28.26,2.67,35.24-9.79l37.38-66.68C-22218.09,6870.84-22237.9,6859.69-22257.74,6848.6L-22257.74,6848.6z"/>
</g>
<g id="g12210" transform="matrix(0.16274494,0,0,0.16274494,4335.9331,-3371.6083)">
	<path id="rect16969" class="st5" d="M-26279.72,21080.29c-1.21-1.18-3.15-1.14-4.32,0.07h0l-72.85,72.85
		c-1.19,1.2-1.19,3.13,0,4.33l22.15,22.15c1.2,1.2,3.13,1.2,4.33,0l72.85-72.85c1.21-1.19,1.22-3.12,0.04-4.33
		c-1.19-1.2-3.12-1.22-4.33-0.04c-0.01,0.01-0.02,0.02-0.04,0.04l-70.69,70.69l-17.82-17.82l70.69-70.69
		c1.21-1.18,1.24-3.11,0.07-4.33C-26279.68,21080.34-26279.7,21080.32-26279.72,21080.29L-26279.72,21080.29z"/>
	<path id="path12126" class="st5" d="M-26344.2,21162.08c-1.2-1.19-3.13-1.19-4.33,0l-20.14,20.14c-1.2,1.2-1.2,3.13,0,4.33
		l4.91,4.91c1.2,1.2,3.13,1.2,4.33,0l20.14-20.14c1.19-1.2,1.19-3.13,0-4.33L-26344.2,21162.08z"/>
	<path id="path12017" class="st5" d="M-26254.92,21045.04c-1.69,0-3.06,1.37-3.06,3.06c0,0.82,0.33,1.61,0.92,2.19l7.5,7.49
		l-21.58,21.58c2.7,2.74,5.38,5.52,8.1,8.22c1.99,2.26,4.14,4.37,6.33,6.45l21.69-21.69l7.5,7.49c1.17,1.22,3.11,1.26,4.33,0.09
		c1.22-1.17,1.26-3.11,0.09-4.33c-0.03-0.03-0.06-0.06-0.09-0.09l-29.55-29.55
		C-26253.31,21045.37-26254.1,21045.04-26254.92,21045.04L-26254.92,21045.04z"/>
	<path id="path16479-0" class="st5" d="M-26361.68,21184.4c-1.21-1.18-3.15-1.15-4.33,0.07c0,0,0,0,0,0l-46.57,46.57
		c-1.22,1.17-1.26,3.11-0.09,4.33c1.17,1.22,3.11,1.26,4.32,0.09c0.03-0.03,0.06-0.06,0.09-0.09l46.58-46.57
		c1.21-1.18,1.24-3.11,0.07-4.33C-26361.63,21184.45-26361.65,21184.42-26361.68,21184.4L-26361.68,21184.4z"/>
	<path id="path16479-0-4" class="st5" d="M-26286.68,21071.46c-1.18-1.21-3.12-1.22-4.33-0.04s-1.22,3.12-0.04,4.33
		c0.01,0.01,0.02,0.02,0.04,0.04l38,38c1.18,1.21,3.11,1.24,4.33,0.07c1.21-1.18,1.24-3.11,0.07-4.32
		c-0.02-0.02-0.04-0.05-0.07-0.07L-26286.68,21071.46z"/>
	<path id="path16479-0-9" class="st5" d="M-26303.51,21129.43c-1.18-1.2-3.12-1.22-4.33-0.04s-1.22,3.12-0.04,4.33
		c0.01,0.01,0.03,0.02,0.04,0.04l8.23,8.23c1.18,1.21,3.11,1.24,4.33,0.07s1.24-3.11,0.07-4.33c-0.02-0.02-0.04-0.05-0.07-0.07
		L-26303.51,21129.43z"/>
	<path id="path16479-0-9-3" class="st5" d="M-26285.23,21110.21c-1.18-1.21-3.11-1.24-4.33-0.07s-1.24,3.11-0.07,4.33
		c0.02,0.02,0.04,0.04,0.07,0.07l8.23,8.23c1.18,1.21,3.11,1.24,4.33,0.07s1.24-3.11,0.07-4.33c-0.02-0.02-0.04-0.05-0.07-0.07
		L-26285.23,21110.21z"/>
	<path id="path16479-0-9-1" class="st5" d="M-26323.52,21146.92c-1.24-1.15-3.18-1.07-4.33,0.18c-1.15,1.25-1.07,3.18,0.18,4.33
		c0.01,0.01,0.03,0.03,0.04,0.04l8.22,8.22c1.18,1.21,3.12,1.22,4.33,0.04s1.22-3.12,0.04-4.33c-0.01-0.01-0.02-0.02-0.04-0.04
		l-8.22-8.22C-26323.37,21147.06-26323.44,21146.99-26323.52,21146.92L-26323.52,21146.92z"/>
</g>
<g>
	<path class="st1" d="M157.86,114.37c0,20.69-16.77,37.46-37.46,37.46s-37.46-16.77-37.46-37.46c0-20.69,16.77-37.46,37.46-37.46
		C141.09,76.91,157.86,93.68,157.86,114.37z"/>
	<g>
		<polygon class="st8" points="133.16,113.82 107.65,113.82 120.41,135.73 		"/>
	</g>
	<polygon class="st9" points="107.65,113.82 112.9,111.03 120.41,113.95 113.19,123.34 	"/>
	<polygon class="st9" points="133.16,114.64 126.58,111.91 117.17,114.76 126.22,123.89 	"/>
	<polygon class="st10" points="120.41,113.82 117.51,117.7 117.56,117.66 119.75,119.55 120.41,119.55 121.06,119.55 123.26,117.66 
		123.3,117.7 	"/>
	<polygon class="st10" points="121.76,118.99 120.37,118.91 118.98,118.99 117.17,130.18 120.37,135.68 123.58,130.18 	"/>
	<path class="st11" d="M148.2,131.23c-0.56-15.32-15.04-17.54-15.04-17.54l-12.76,21.91l-12.76-21.91c0,0-14.49,2.22-15.04,17.54
		v8.22c6.85,7.59,16.77,12.36,27.8,12.36c11.03,0,20.94-4.77,27.8-12.36V131.23z"/>
	<g>
		<path class="st12" d="M106.55,125.76c-0.13-0.17-3.11-4.2-1.42-8.83c1.53-4.22,7.1-6.65,15.28-6.65c7.23,0,14.88,1,16.7,8.45
			l-1.44,0.35c-1.58-6.43-8.27-7.32-15.26-7.32c-7.4,0-12.59,2.12-13.88,5.67c-1.41,3.88,1.19,7.4,1.21,7.43L106.55,125.76z"/>
	</g>
	<path class="st13" d="M127.81,113.51c-5.6,1.46-9.1,1.55-14.58,0v-7.05h14.58V113.51z"/>
	<g>
		<path class="st12" d="M104.12,136.47c-0.09-0.21-2.07-5.24-0.44-8.85c0.65-1.45,1.79-2.47,3.37-3.04c1.37-0.49,2.71-0.4,3.97,0.26
			c3.71,1.96,5.43,8.37,5.5,8.65l-1.43,0.38c-0.02-0.06-1.63-6.06-4.76-7.71c-0.89-0.47-1.79-0.53-2.78-0.18
			c-1.2,0.43-2.03,1.16-2.52,2.25c-1.37,3.04,0.45,7.65,0.46,7.69L104.12,136.47z"/>
	</g>
	<path class="st14" d="M141.04,122.6c0,2.27-1.84,4.12-4.12,4.12c-2.27,0-4.12-1.84-4.12-4.12c0-2.27,1.84-4.12,4.12-4.12
		C139.2,118.48,141.04,120.32,141.04,122.6z"/>
	<path class="st15" d="M139.61,122.6c0,1.49-1.21,2.69-2.69,2.69c-1.49,0-2.69-1.21-2.69-2.69c0-1.49,1.2-2.69,2.69-2.69
		C138.41,119.9,139.61,121.11,139.61,122.6z"/>
	<path class="st15" d="M106.73,137.25c0,0.87-0.71,1.58-1.58,1.58c-0.87,0-1.58-0.7-1.58-1.58c0-0.87,0.71-1.58,1.58-1.58
		C106.02,135.68,106.73,136.38,106.73,137.25z"/>
	<path class="st15" d="M117.62,134.9c0,0.87-0.71,1.58-1.58,1.58c-0.87,0-1.58-0.71-1.58-1.58c0-0.87,0.7-1.58,1.58-1.58
		C116.91,133.32,117.62,134.03,117.62,134.9z"/>
	<path class="st16" d="M113.22,108.49c2.28,1.6,5.05,2.54,8.04,2.54c2.4,0,4.64-0.68,6.54-1.85v-2.72h-14.58V108.49z"/>
	<path class="st13" d="M133.67,84.81v-1.34c0-6.91-5.6-12.51-12.51-12.51h-1.5c-6.91,0-12.51,5.6-12.51,12.51v1.34
		c-1.75,0.74-2.97,2.47-2.97,4.49v4.06c0,2.06,1.29,3.81,3.1,4.5c0.91,6.85,6.78,12.14,13.88,12.14c6.8,0,12.33-5.43,12.5-12.18
		c1.75-0.72,2.98-2.44,2.98-4.45V89.3C136.64,87.28,135.42,85.55,133.67,84.81z"/>
	<path class="st17" d="M133.67,97.2c0,6.91-5.6,12.51-12.51,12.51c-7.74,0-14.01-6.27-14.01-14.01V83.19
		c0-6.91,5.6-12.51,12.51-12.51h1.5c6.91,0,12.51,5.6,12.51,12.51V97.2z"/>
	<path class="st18" d="M107.14,84.81v-1.34c0-6.91,5.6-12.51,12.51-12.51h1.5c6.29,0,11.5,4.65,12.38,10.7l0.54-0.07
		c2.72-7.33-0.41-19.77-0.41-19.77l-6.88,3.05l-1.44-1.98l-3.95,2.31l-2.8-2.8l-2.39,3.29c0,0-1.32-1.32-1.73-1.73
		c-0.41-0.41-7.31-0.08-9.55,7.74c-1.54,5.35,1.33,11.71,2.06,13.19C107.04,84.86,107.09,84.83,107.14,84.81z"/>
</g>
<g id="g31365" transform="matrix(0.15900385,0,0,0.15900385,4915.8636,-2002.4761)">
	<path id="path3009" class="st5" d="M-29978.65,13683.22c-2.45-0.16-5.43,0.67-7.37,2.95c-42.29,49.63-77.51,90.98-119.8,140.61
		h-0.01c-3.03,3.56-2.95,7.86-3.19,11.36c-0.24,3.5-0.65,6.23-2.1,7.93c-3.13,3.68-7.04,8.26-9.39,11.02
		c-1.27,1.49-1.59,3.68-1.24,5.2c0.35,1.52,1.07,2.59,1.76,3.47c1.2,1.54,2.39,2.47,2.71,2.71c0,0,0.2,0.15,0.24,0.2
		c0.29,0.26,1.3,1.13,2.95,1.87c0.95,0.43,2.14,0.82,3.63,0.76c1.49-0.07,3.3-0.83,4.46-2.18c2.35-2.76,6.26-7.36,9.39-11.03
		c1.45-1.71,4.08-2.53,7.5-3.33c3.41-0.8,7.67-1.4,10.7-4.96c42.29-49.63,77.52-90.99,119.81-140.62c1.92-2.26,2.29-5.3,1.76-7.67
		c-0.54-2.37-1.74-4.33-2.98-6.03c-2.46-3.33-5.36-5.67-5.46-5.75l0.01-0.01c0,0-0.07-0.04-0.07-0.04c-0.1-0.08-2.97-2.58-6.75-4.47
		C-29974.03,13684.24-29976.2,13683.39-29978.65,13683.22L-29978.65,13683.22z M-29979.11,13690.3c0.94,0.06,2.41,0.53,3.84,1.24
		c2.85,1.42,5.38,3.56,5.38,3.56l0.02,0.02l0.03,0.03c0,0,2.47,2.06,4.28,4.52c0.91,1.23,1.58,2.54,1.78,3.4
		c0.2,0.86,0.19,1-0.24,1.5c-42.28,49.63-77.52,90.99-119.81,140.62c-0.88,1.04-3.38,1.83-6.91,2.65
		c-3.53,0.82-8.04,1.83-11.29,5.64c-3.02,3.54-6.68,7.85-9.05,10.63c-0.08-0.02-0.03-0.01-0.14-0.06c-0.64-0.29-1.35-0.86-1.35-0.86
		l-0.12-0.1l-0.13-0.09c0,0-0.98-0.79-1.61-1.6c-0.15-0.19-0.13-0.2-0.21-0.33c2.38-2.79,5.93-6.94,8.88-10.41
		c3.25-3.81,3.53-8.42,3.78-12.03c0.25-3.62,0.63-6.21,1.52-7.24c42.28-49.63,77.52-90.99,119.8-140.62
		C-29980.22,13690.29-29980.05,13690.23-29979.11,13690.3L-29979.11,13690.3z"/>
	<path id="path31319" class="st7" d="M-30016.87,13742.71c-4.35,5.1-63.15,74.01-81.77,95.86c-0.77,0.9-0.7,2.14-0.23,3.11
		c0.46,0.97,1.28,1.84,2.21,2.55c0.94,0.71,2.01,1.25,3.09,1.46c1.08,0.2,2.29,0.01,3.03-0.91c22.74-28.32,65.73-78.33,80.93-95.95
		L-30016.87,13742.71z"/>
	<g id="g31359" transform="matrix(0.76334401,0.64599219,-0.64599219,0.76334401,14618.455,14760.454)">
		<path id="rect31351" class="st5" d="M-34729.54,27996.48h9.55c1.62,0,2.94,1.32,2.94,2.94l0,0c0,1.62-1.32,2.94-2.94,2.94h-9.55
			c-1.62,0-2.94-1.32-2.94-2.94l0,0C-34732.48,27997.8-34731.16,27996.48-34729.54,27996.48z"/>
		<path id="rect31353" class="st5" d="M-34729.54,28012.69h9.55c1.62,0,2.94,1.31,2.94,2.94l0,0c0,1.62-1.32,2.94-2.94,2.94h-9.55
			c-1.62,0-2.94-1.31-2.94-2.94l0,0C-34732.48,28014.01-34731.16,28012.69-34729.54,28012.69z"/>
		<path id="rect31355" class="st5" d="M-34729.54,28028.9h9.55c1.62,0,2.94,1.32,2.94,2.94l0,0c0,1.62-1.32,2.94-2.94,2.94l-9.55,0
			c-1.62,0-2.94-1.32-2.94-2.94l0,0C-34732.48,28030.21-34731.16,28028.9-34729.54,28028.9z"/>
		<path id="rect31357" class="st5" d="M-34729.54,28045.11h9.55c1.62,0,2.94,1.32,2.94,2.94l0,0c0,1.62-1.32,2.94-2.94,2.94h-9.55
			c-1.62,0-2.94-1.32-2.94-2.94l0,0C-34732.48,28046.42-34731.16,28045.11-34729.54,28045.11z"/>
	</g>
</g>
<g id="g12656" transform="matrix(0.16281262,0,0,0.16281262,136.13897,2446.2561)">
	<path id="path12658" class="st7" d="M-267.37-14876.36c-22.39,0-40.7,17.87-41.42,40.09h-27.13c-11.97,0-21.71,9.73-21.71,21.71
		v16.6h60.28v-10.96c0-5.13,4.22-9.36,9.35-9.36h41.25c5.13,0,9.35,4.23,9.35,9.36v10.96h60.28v-16.6v-0.03
		c-0.14-11.94-9.72-21.66-21.71-21.66h-27.12C-226.65-14858.49-244.98-14876.36-267.37-14876.36L-267.37-14876.36z M-267.37-14867.7
		c17.7,0,32.05,13.91,32.75,31.43l-65.5-0.01C-299.41-14853.8-285.07-14867.7-267.37-14867.7L-267.37-14867.7z"/>
	<path id="path12660" class="st7" d="M-357.63-14792.18v61.84c0,11.99,9.74,21.72,21.71,21.72h137.1c11.99,0,21.65-9.74,21.71-21.7
		c0,0,0-0.01,0-0.03v-61.84h-60.28v22.52c0,5.14-4.22,9.35-9.35,9.35H-288c-5.13,0-9.35-4.21-9.35-9.35v-22.52H-357.63
		L-357.63-14792.18z"/>
	<path id="path12662" class="st7" d="M-272.18-14811.82c-1.33,0-2.4,1.06-2.4,2.41v12.91h-12.91c-1.33,0-2.4,1.07-2.4,2.4v9.61
		c0,1.33,1.07,2.41,2.4,2.41h12.91v12.91c0,1.33,1.07,2.4,2.4,2.4h9.61c1.33,0,2.41-1.07,2.41-2.4v-12.91h12.92
		c1.33,0,2.39-1.07,2.39-2.41v-9.61c0-1.33-1.06-2.4-2.39-2.4h-12.92v-12.91c0-1.34-1.07-2.41-2.41-2.41H-272.18z"/>
</g>
<path id="path6826" class="st7" d="M202.03,111.11c-2.92,1-5.24,3.49-5.88,6.73c0,0,0,0.01,0,0.01l-0.01,0.08l0,0
	c-0.16,0.88-0.19,1.76-0.09,2.61c0.02,0.21,0.14,0.4,0.32,0.51c0.18,0.11,0.4,0.14,0.6,0.07l15.17-5.2c0.2-0.07,0.36-0.23,0.43-0.42
	c0.07-0.2,0.05-0.42-0.06-0.6c-1.26-2.05-3.34-3.59-5.89-4.09C205.03,110.49,203.46,110.62,202.03,111.11L202.03,111.11z
	 M197.67,123.18c-0.2,0.07-0.36,0.23-0.43,0.42c-0.07,0.2-0.05,0.42,0.06,0.6c1.26,2.05,3.34,3.6,5.89,4.09
	c4.82,0.94,9.51-2.21,10.46-7.04c0.18-0.91,0.21-1.82,0.11-2.7c-0.02-0.21-0.14-0.4-0.32-0.51c-0.18-0.11-0.4-0.14-0.6-0.07
	L197.67,123.18z"/>
<g id="g12520_00000177461458258107240630000011907435413782412945_" transform="matrix(0.12047204,-0.12047204,0.12047204,0.12047204,380.4504,-3377.7307)">
	<path id="path12165_00000018946348591559209880000013792915149337652920_" class="st19" d="M-15507.81,13748.13
		c-16.99,0.27-33.67,11.25-33.38,32.58c0,0.11-0.01,0.21,0,0.32l0,0.15l-1.62,167.71l0,0.04c-0.92,45.04,67.55,43.96,68.48-0.63
		c0-0.01,0-0.02,0-0.04l1.62-167.88c0-0.05,0-0.11,0-0.16C-15473.29,13758.42-15490.7,13747.85-15507.81,13748.13
		L-15507.81,13748.13z M-15525.74,13770.13c2.61-0.03,4.7,2.07,4.67,4.67c-0.03,2.61-2.16,4.74-4.77,4.77
		c-2.61,0.03-4.7-2.07-4.67-4.67S-15528.34,13770.16-15525.74,13770.13z M-15506.85,13769.95c2.61-0.03,4.7,2.07,4.68,4.67
		c-0.03,2.61-2.16,4.74-4.77,4.77s-4.7-2.07-4.68-4.67C-15511.59,13772.11-15509.46,13769.98-15506.85,13769.95z
		 M-15487.97,13769.77c2.61-0.03,4.7,2.07,4.67,4.67c-0.03,2.61-2.16,4.74-4.77,4.77c-2.61,0.03-4.7-2.07-4.67-4.67
		S-15490.58,13769.79-15487.97,13769.77z M-15516.48,13788.92c2.61-0.03,4.7,2.07,4.67,4.67c-0.02,2.61-2.16,4.74-4.77,4.77
		s-4.7-2.07-4.68-4.67C-15521.22,13791.08-15519.08,13788.95-15516.48,13788.92z M-15497.59,13788.74c2.61-0.03,4.7,2.07,4.67,4.67
		c-0.03,2.61-2.16,4.74-4.77,4.77s-4.7-2.07-4.67-4.67S-15500.2,13788.77-15497.59,13788.74z M-15526.1,13807.9
		c2.61-0.03,4.7,2.07,4.67,4.67s-2.16,4.74-4.77,4.77c-2.61,0.03-4.7-2.07-4.67-4.68
		C-15530.84,13810.06-15528.71,13807.92-15526.1,13807.9z M-15507.22,13807.72c2.61-0.03,4.7,2.07,4.68,4.67
		c-0.03,2.61-2.16,4.74-4.77,4.77s-4.7-2.07-4.68-4.68C-15511.96,13809.88-15509.83,13807.74-15507.22,13807.72z
		 M-15488.33,13807.53c2.61-0.03,4.7,2.07,4.67,4.67s-2.16,4.74-4.77,4.77c-2.61,0.03-4.7-2.07-4.67-4.68
		C-15493.08,13809.69-15490.94,13807.56-15488.33,13807.53z M-15525.94,13830.47l37-0.36c4.79-0.05,8.62,3.78,8.57,8.57l-0.51,52.45
		c-0.05,4.79-3.94,8.69-8.74,8.74l-37,0.36c-4.79,0.05-8.62-3.78-8.57-8.57l0.51-52.45
		C-15534.63,13834.41-15530.73,13830.51-15525.94,13830.47z M-15527.12,13913.35c2.61-0.02,4.7,2.07,4.67,4.68
		c-0.03,2.61-2.16,4.74-4.77,4.77c-2.61,0.02-4.7-2.07-4.67-4.68S-15529.73,13913.38-15527.12,13913.35z M-15508.24,13913.17
		c2.61-0.03,4.7,2.07,4.67,4.67c-0.02,2.61-2.16,4.74-4.77,4.77c-2.61,0.02-4.7-2.07-4.68-4.68S-15510.85,13913.2-15508.24,13913.17
		z M-15489.36,13912.99c2.61-0.02,4.7,2.07,4.68,4.68c-0.03,2.61-2.16,4.74-4.77,4.77c-2.61,0.02-4.7-2.07-4.67-4.68
		C-15494.1,13915.15-15491.96,13913.01-15489.36,13912.99z M-15517.86,13932.15c2.61-0.02,4.7,2.07,4.67,4.68
		c-0.03,2.61-2.16,4.74-4.77,4.77c-2.61,0.02-4.7-2.07-4.67-4.68S-15520.47,13932.17-15517.86,13932.15z M-15498.98,13931.96
		c2.61-0.03,4.7,2.07,4.68,4.68c-0.03,2.61-2.16,4.74-4.77,4.77c-2.61,0.02-4.7-2.07-4.67-4.68
		C-15503.72,13934.12-15501.59,13931.99-15498.98,13931.96z M-15527.49,13951.12c2.61-0.03,4.7,2.07,4.67,4.68
		c-0.03,2.61-2.16,4.74-4.77,4.77c-2.61,0.02-4.7-2.07-4.67-4.68S-15530.09,13951.15-15527.49,13951.12z M-15508.6,13950.94
		c2.61-0.02,4.7,2.07,4.67,4.68c-0.02,2.61-2.16,4.74-4.77,4.77c-2.61,0.03-4.7-2.07-4.68-4.67S-15511.21,13950.96-15508.6,13950.94
		z M-15489.72,13950.76c2.61-0.03,4.7,2.07,4.67,4.68c-0.03,2.61-2.16,4.74-4.77,4.77c-2.61,0.02-4.7-2.07-4.67-4.68
		S-15492.33,13950.78-15489.72,13950.76z"/>
	<path id="rect12310_00000116208785701481597870000014533097544572400791_" class="st16" d="M-15526.07,13836.09l37.15-0.36
		c1.74-0.02,3.13,1.38,3.12,3.12l-0.5,52.21c-0.02,1.74-1.44,3.16-3.18,3.18l-37.15,0.36c-1.74,0.02-3.13-1.38-3.12-3.12l0.5-52.21
		C-15529.23,13837.53-15527.81,13836.1-15526.07,13836.09z"/>
	<path id="path12501_00000058587892299845907510000003119715609192229546_" class="st19" d="M-15421.67,13830.08
		c-0.33,0-0.65,0.01-0.98,0.02c-0.11,0-0.21,0-0.32,0l-0.15,0l-44.52,0.43c-0.19,22.82-0.52,45.65-0.76,68.48l44.75-0.43
		c0.05,0,0.11,0,0.16,0c21.81-1,32.72-18.61,32.77-35.72C-15390.66,13846.14-15400.99,13829.92-15421.67,13830.08
		L-15421.67,13830.08z M-15591.93,13831.74c-43.98,1.01-43.87,68.41,0.36,68.47c0.01,0,0.02,0,0.04,0l43.62-0.42
		c0.2-22.82,0.54-45.65,0.77-68.48l-43.69,0.42l-0.04,0C-15591.22,13831.74-15591.58,13831.74-15591.93,13831.74z
		 M-15598.04,13842.44c2.61-0.03,4.7,2.07,4.67,4.67c-0.02,2.61-2.16,4.74-4.77,4.77c-2.61,0.03-4.7-2.07-4.68-4.67
		C-15602.78,13844.59-15600.65,13842.46-15598.04,13842.44z M-15560.27,13842.07c2.61-0.03,4.7,2.07,4.67,4.67
		c-0.03,2.61-2.16,4.74-4.77,4.77c-2.61,0.03-4.7-2.07-4.67-4.67C-15565.01,13844.23-15562.88,13842.1-15560.27,13842.07z
		 M-15454.82,13841.05c2.61-0.03,4.7,2.07,4.67,4.67s-2.16,4.74-4.77,4.77s-4.7-2.07-4.67-4.67
		C-15459.56,13843.21-15457.43,13841.08-15454.82,13841.05z M-15417.05,13840.69c2.61-0.03,4.7,2.07,4.68,4.67s-2.16,4.74-4.77,4.77
		c-2.61,0.03-4.7-2.07-4.68-4.67C-15421.79,13842.84-15419.66,13840.71-15417.05,13840.69z M-15579.25,13851.69
		c2.61-0.03,4.7,2.07,4.67,4.68c-0.03,2.61-2.16,4.74-4.77,4.77c-2.61,0.03-4.7-2.07-4.67-4.67
		S-15581.86,13851.72-15579.25,13851.69z M-15436.03,13850.31c2.61-0.03,4.7,2.07,4.67,4.67c-0.03,2.61-2.16,4.74-4.77,4.77
		s-4.7-2.07-4.67-4.67C-15440.77,13852.47-15438.63,13850.33-15436.03,13850.31z M-15598.22,13861.32c2.61-0.02,4.7,2.07,4.67,4.68
		c-0.02,2.61-2.16,4.74-4.77,4.77c-2.61,0.02-4.7-2.07-4.67-4.68C-15602.96,13863.48-15600.83,13861.34-15598.22,13861.32z
		 M-15560.46,13860.95c2.61-0.02,4.7,2.07,4.67,4.68c-0.03,2.61-2.16,4.74-4.77,4.77c-2.61,0.02-4.7-2.07-4.67-4.68
		C-15565.2,13863.11-15563.06,13860.98-15560.46,13860.95z M-15455,13859.93c2.61-0.03,4.7,2.07,4.67,4.68
		c-0.03,2.61-2.16,4.74-4.77,4.77c-2.61,0.03-4.7-2.07-4.67-4.67C-15459.74,13862.09-15457.61,13859.96-15455,13859.93z
		 M-15417.23,13859.57c2.61-0.03,4.7,2.07,4.68,4.68c-0.03,2.61-2.16,4.74-4.77,4.77c-2.61,0.03-4.7-2.07-4.67-4.67
		C-15421.98,13861.73-15419.84,13859.59-15417.23,13859.57z M-15579.43,13870.58c2.61-0.03,4.7,2.07,4.67,4.67
		c-0.03,2.61-2.16,4.74-4.77,4.77c-2.61,0.02-4.7-2.07-4.67-4.67C-15584.17,13872.74-15582.04,13870.6-15579.43,13870.58z
		 M-15436.21,13869.19c2.61-0.02,4.7,2.07,4.68,4.68c-0.03,2.61-2.16,4.74-4.77,4.77c-2.61,0.02-4.7-2.07-4.67-4.68
		C-15440.95,13871.35-15438.82,13869.22-15436.21,13869.19z M-15598.41,13880.2c2.61-0.03,4.7,2.07,4.67,4.67
		c-0.02,2.61-2.16,4.74-4.77,4.77c-2.61,0.03-4.7-2.07-4.68-4.67C-15603.15,13882.36-15601.01,13880.23-15598.41,13880.2z
		 M-15560.64,13879.84c2.61-0.03,4.7,2.07,4.67,4.67c-0.03,2.61-2.16,4.74-4.77,4.77c-2.61,0.03-4.7-2.07-4.67-4.67
		C-15565.38,13882-15563.25,13879.86-15560.64,13879.84z M-15455.18,13878.82c2.61-0.03,4.7,2.07,4.67,4.67s-2.16,4.74-4.77,4.77
		s-4.7-2.07-4.67-4.68C-15459.92,13880.98-15457.79,13878.84-15455.18,13878.82z M-15417.42,13878.45c2.61-0.03,4.7,2.07,4.68,4.67
		c-0.03,2.61-2.16,4.74-4.77,4.77c-2.61,0.03-4.7-2.07-4.67-4.68C-15422.16,13880.61-15420.02,13878.48-15417.42,13878.45z"/>
</g>
<g id="g14354" transform="matrix(0.16281262,0,0,0.16281262,3476.0153,-3389.1791)">
	<path id="path14334" class="st20" d="M-20554.2,20966.43c-1.39,0-2.45,1.07-2.45,2.49v164.24c0,1.41,1.04,2.45,2.45,2.45h129.16
		c1.42,0,2.45-1.04,2.45-2.45v-164.24c0-1.42-1.06-2.49-2.45-2.49H-20554.2z M-20493.95,20988.29c0.06-0.01,0.13,0,0.2,0h8.27
		c1.08,0,1.94,0.87,1.94,1.94v5.83c0,1.08-0.87,1.96-1.94,1.96h-1.7v2.02h1.7c1.08,0,1.94,0.87,1.94,1.94v5.84
		c0,1.08-0.87,1.94-1.94,1.94h-1.7v2.02h1.7c1.08,0,1.94,0.87,1.94,1.94v5.83c0,1.08-0.87,1.96-1.94,1.96h-1.7v2h1.7
		c1.08,0,1.94,0.88,1.94,1.96v5.83c0,1.08-0.87,1.94-1.94,1.94h-1.7v17.39c0,0.18,0.85,1.84,2.75,3.53c1.9,1.69,4.57,3.53,7.24,5.21
		c3.61,2.27,7.2,4.2,9.17,5.23c3.28-1.07,7.14-1.41,10.2-1.48c3.1-0.08,5.38,0.12,5.38,0.12c0.51,0.04,0.98,0.27,1.31,0.66
		s0.52,0.9,0.48,1.41s-0.3,0.99-0.68,1.32c-0.38,0.33-0.89,0.51-1.4,0.47c0,0-5.98-0.33-11.04,0.51c1.38,1.2,3.2,2.84,5.12,4.7
		c3.89,3.78,8.15,8.24,9.64,12.45c0.2,0.48,0.19,1.03-0.02,1.51c-0.21,0.48-0.63,0.88-1.12,1.05c-0.49,0.17-1.06,0.14-1.52-0.1
		c-0.46-0.24-0.83-0.67-0.98-1.18c-0.93-2.62-4.93-7.3-8.69-10.95c-1.23-1.2-2.42-2.26-3.45-3.19c2.23,13.07,5.99,20.32,5.99,20.32
		c0.23,0.45,0.29,0.99,0.14,1.47c-0.15,0.48-0.5,0.9-0.95,1.14c-0.45,0.23-0.99,0.29-1.47,0.13c-0.48-0.15-0.9-0.5-1.14-0.95
		c0,0-4.91-9.44-7.05-25.7c-1.67-0.86-5.7-2.97-9.97-5.65c-2.77-1.74-5.56-3.67-7.75-5.61c-0.98-0.87-1.9-1.71-2.61-2.62
		c-0.71,0.91-1.63,1.75-2.61,2.62c-2.18,1.94-4.97,3.87-7.75,5.61c-3.93,2.46-7.71,4.49-9.6,5.47c-2.12,16.47-7.1,26.05-7.1,26.05
		c-0.24,0.45-0.65,0.8-1.14,0.95s-1.02,0.1-1.47-0.14c-0.45-0.23-0.8-0.64-0.95-1.12s-0.1-1.04,0.14-1.49c0,0,3.84-7.45,6.06-20.85
		c-1.12,1-2.44,2.21-3.84,3.56c-3.75,3.65-7.76,8.34-8.69,10.95c-0.15,0.5-0.51,0.94-0.98,1.17s-1.04,0.28-1.54,0.1
		s-0.9-0.57-1.11-1.05c-0.22-0.48-0.24-1.03-0.04-1.51c1.49-4.21,5.75-8.67,9.64-12.45c1.88-1.82,3.67-3.43,5.04-4.62
		c-4.97-0.75-10.63-0.42-10.63-0.42c-0.51,0.04-1.03-0.14-1.41-0.47c-0.38-0.33-0.63-0.83-0.67-1.34c-0.04-0.51,0.14-1.03,0.47-1.41
		c0.33-0.38,0.83-0.63,1.34-0.67c0,0,2.27-0.19,5.37-0.11c2.93,0.07,6.61,0.39,9.8,1.36c1.95-1.02,5.59-2.97,9.26-5.27
		c2.67-1.68,5.32-3.52,7.23-5.21c1.9-1.69,2.76-3.35,2.76-3.53v-17.39h-1.71c-1.08,0-1.94-0.87-1.94-1.94v-5.83
		c0-1.08,0.87-1.96,1.94-1.96h1.71v-2h-1.71c-1.08,0-1.94-0.88-1.94-1.96v-5.83c0-1.08,0.87-1.94,1.94-1.94h1.71v-2.02h-1.71
		c-1.08,0-1.94-0.87-1.94-1.94v-5.84c0-1.08,0.87-1.94,1.94-1.94h1.71v-2.02h-1.71c-1.08,0-1.94-0.88-1.94-1.96v-5.83
		C-20495.69,20989.22-20494.93,20988.38-20493.95,20988.29L-20493.95,20988.29z M-20503.43,21026.93c0.69-0.02,1.33,0.06,1.9,0.22
		c2.32,0.62,3.44,2.51,3.44,2.51c0.16,0.28,0.24,0.59,0.25,0.91c0,0,0.16,9.11-0.07,21.71c-3.9,3.49-8.89,5.73-13.3,8.49
		c-2.38,0.37-4.65-0.9-7.05-0.79c-3.75-0.3-7.69-0.42-11.22,0.96c-3.59,2.33-2.33,9,2.02,9.54c1.26,0.15,2.53,0.13,3.8,0.11
		c-4.27,4.09-8.63,8.71-10.13,14.6c-0.34,3.97,4.82,7.29,8.15,4.8c2.65-1.84,3.12-5.44,5.48-7.54c0.51-0.46-0.57,1.92-0.71,2.54
		c-0.98,2.93-2.29,5.82-2.88,8.85c0.25,4.38,6.93,6.52,9.44,2.78c4.28-7.57,6.04-16.25,7.61-24.71c0.02-0.97,0.17-2.06,1.36-2.25
		c2.39-1.32,4.78-2.67,7.1-4.11c-0.29,11.89-0.28,19.32-4,30.37c0,0.01-0.01,0.02-0.01,0.02c-2.88,8.1-10.63,12.89-18.33,15.43
		c-3.85,1.27-7.71,2-11.11,2.27s-6.28,0.11-8.44-0.61c-3.68-1.21-7.47-3.66-9.14-9.06c-1.68-5.4-1.6-13.48,0.95-26.77
		c5.24-27.27,29.97-41.45,37.16-46.96C-20508.11,21027.91-20505.51,21026.99-20503.43,21026.93L-20503.43,21026.93
		L-20503.43,21026.93z M-20476.32,21026.94c0.17-0.01,0.33,0,0.51,0h0.01c2.08,0.05,4.67,0.97,7.72,3.32
		c7.19,5.52,31.92,19.69,37.16,46.96c2.55,13.29,2.63,21.37,0.95,26.77s-5.45,7.85-9.13,9.06c-2.17,0.71-5.05,0.87-8.45,0.61
		s-7.27-0.99-11.11-2.26c-7.69-2.54-15.45-7.34-18.33-15.43c0-0.01-0.01-0.02-0.01-0.02c-3.72-11.04-3.7-18.46-4-30.35
		c2.8,1.75,5.71,3.36,8.62,4.91c1.49,9.18,3.38,18.6,8.27,26.62c3.14,3.22,9.63,0.08,8.88-4.42c-0.94-3.43-2.62-6.59-3.62-9.99
		c1.86,2.26,3.06,5.1,5.05,7.25c3.26,2.32,8.82-0.46,8.23-4.63c-0.4-4.5-3.87-7.79-6.5-11.15c-1.16-1.29-2.37-2.53-3.63-3.72
		c2.76,0.15,6.41,0.07,7.83-2.76c1.62-3.13-0.51-7.85-4.29-7.78c-5.23-0.7-10.52,0.06-15.68,0.95c-4.52-2.72-9.58-5.05-13.5-8.6
		c-0.23-12.58-0.07-21.68-0.07-21.68c0.01-0.32,0.09-0.63,0.25-0.91c0,0,1.12-1.89,3.44-2.51
		C-20477.28,21027.04-20476.81,21026.97-20476.32,21026.94L-20476.32,21026.94z"/>
</g>
</svg>
