<?xml version="1.0" encoding="utf-8"?>
<!-- Generator: Adobe Illustrator 27.5.0, SVG Export Plug-In . SVG Version: 6.00 Build 0)  -->
<svg version="1.1" id="Layer_1" xmlns="http://www.w3.org/2000/svg" xmlns:xlink="http://www.w3.org/1999/xlink" x="0px" y="0px"
	 viewBox="0 0 595.28 513.28" style="enable-background:new 0 0 595.28 513.28;" xml:space="preserve">
<style type="text/css">
	.st0{fill:#7DA18B;stroke:#225132;stroke-width:7;stroke-miterlimit:10;}
	.st1{fill:#F6E6CD;}
	.st2{fill:none;}
	.st3{fill:#7DA18B;stroke:#235032;stroke-width:7;stroke-miterlimit:10;}
	.st4{fill:none;stroke:#F6E6CD;stroke-width:5;stroke-miterlimit:10;}
	.st5{fill:#006838;stroke:#F6E6CD;stroke-width:5;stroke-miterlimit:10;}
	.st6{fill:none;stroke:#FFD45D;stroke-width:3;stroke-miterlimit:10;}
	.st7{fill:#9BCF7E;}
	.st8{fill:#006838;}
	.st9{fill:url(#SVGID_1_);}
	.st10{fill:url(#SVGID_00000147940720299154301120000007348167332945668529_);}
	.st11{fill:url(#SVGID_00000044146167152973345010000009357121518079543732_);}
	.st12{fill:#9BCF7E;stroke:#006838;stroke-width:3;stroke-miterlimit:10;}
	.st13{fill:#8DC63F;}
</style>
<path class="st0" d="M510.55,248.14c0,123.16-99.85,223.01-223.01,223.01c-123.17,0-223.02-99.85-223.02-223.01
	c0-123.17,99.85-223.01,223.02-223.01C410.7,25.13,510.55,124.97,510.55,248.14z"/>
<g>
	<g>
		<path class="st1" d="M180.65,367.94c-4.65,7.02-9.3,14.04-13.94,21.06c1.36,0.9,2.72,1.78,4.1,2.65
			c-0.28,0.44-0.56,0.88-0.83,1.32c-4.11-2.6-8.16-5.34-12.14-8.23c0.31-0.42,0.61-0.84,0.92-1.26c1.33,0.96,2.66,1.91,4.01,2.85
			c4.8-6.92,9.59-13.83,14.39-20.75c-1.19-0.83-2.38-1.67-3.55-2.52c0.31-0.42,0.61-0.84,0.92-1.26c3.48,2.53,7.02,4.92,10.61,7.2
			c-0.28,0.44-0.56,0.88-0.83,1.32C183.06,369.52,181.85,368.74,180.65,367.94z"/>
		<path class="st1" d="M198.97,408.77c-0.59-0.26-1.18-0.52-1.76-0.79c-2.74-10.82-4.64-21.62-5.72-32.29
			c-0.03-0.01-0.07-0.02-0.1-0.04c-4.02,7.04-8.04,14.08-12.05,21.12c1.26,0.72,2.53,1.43,3.8,2.12c-0.25,0.46-0.5,0.91-0.75,1.37
			c-3.34-1.82-6.65-3.74-9.92-5.75c0.27-0.44,0.54-0.89,0.82-1.33c1.38,0.85,2.77,1.68,4.17,2.49c4.24-7.27,8.49-14.54,12.73-21.81
			c-1.24-0.72-2.47-1.46-3.69-2.21c0.27-0.44,0.54-0.89,0.82-1.33c2.72,1.67,5.46,3.26,8.24,4.79c0.95,8.56,2.43,17.19,4.46,25.85
			c0.04,0.01,0.08,0.02,0.11,0.03c2.69-5.93,5.39-11.87,8.08-17.8c-1.29-0.59-2.57-1.18-3.85-1.8c0.23-0.47,0.45-0.94,0.68-1.41
			c3.11,1.49,6.25,2.9,9.41,4.22c-0.2,0.48-0.4,0.96-0.6,1.44c-1.3-0.54-2.6-1.1-3.89-1.67
			C206.28,392.24,202.62,400.51,198.97,408.77z"/>
		<path class="st1" d="M210.11,403.92c0.5,0.2,1,0.4,1.5,0.59c-0.38,1.44-0.51,2.72-0.38,3.83c0.13,1.11,0.45,2.07,0.96,2.89
			c0.51,0.82,1.2,1.51,2.05,2.07c0.85,0.56,1.8,1.03,2.86,1.39c1.26,0.43,2.38,0.66,3.37,0.7c0.98,0.03,1.83-0.09,2.56-0.38
			c0.72-0.28,1.32-0.71,1.78-1.29c0.46-0.57,0.81-1.25,1.05-2.04c0.3-0.97,0.35-1.83,0.17-2.57c-0.18-0.75-0.54-1.44-1.07-2.1
			c-0.53-0.65-1.21-1.29-2.03-1.92c-0.82-0.63-1.73-1.31-2.72-2.04c-0.99-0.73-1.91-1.47-2.76-2.21c-0.85-0.74-1.55-1.54-2.08-2.39
			c-0.54-0.85-0.86-1.76-0.98-2.73c-0.12-0.98,0.07-2.06,0.54-3.26c0.45-1.13,1.06-2.07,1.82-2.85c0.76-0.78,1.66-1.35,2.69-1.71
			c1.03-0.37,2.18-0.52,3.46-0.47c1.28,0.05,2.67,0.34,4.2,0.85c0.6,0.2,1.22,0.44,1.85,0.71c0.63,0.27,1.24,0.56,1.85,0.87
			c0.61,0.32,1.2,0.65,1.77,0.99c0.58,0.35,1.12,0.7,1.62,1.05c-0.59,2.29-1.18,4.58-1.76,6.87c-0.48-0.14-0.97-0.29-1.45-0.43
			c0.28-1.38,0.34-2.56,0.18-3.54c-0.16-0.98-0.46-1.79-0.91-2.46c-0.45-0.67-1-1.21-1.67-1.62c-0.67-0.42-1.37-0.75-2.13-1.01
			c-1.01-0.34-1.92-0.53-2.74-0.57c-0.82-0.04-1.55,0.06-2.2,0.31c-0.65,0.24-1.2,0.62-1.68,1.13c-0.47,0.51-0.85,1.14-1.14,1.9
			c-0.34,0.9-0.45,1.72-0.31,2.45c0.13,0.73,0.44,1.43,0.94,2.11c0.5,0.67,1.15,1.34,1.95,2c0.81,0.66,1.71,1.37,2.71,2.11
			c0.91,0.69,1.8,1.38,2.68,2.09c0.88,0.71,1.62,1.47,2.24,2.31c0.62,0.83,1.05,1.75,1.29,2.76c0.24,1.01,0.18,2.16-0.19,3.45
			c-0.36,1.25-0.93,2.29-1.74,3.12c-0.8,0.82-1.79,1.42-2.96,1.79c-1.17,0.37-2.53,0.5-4.05,0.4c-1.52-0.11-3.17-0.46-4.94-1.07
			c-0.77-0.27-1.56-0.58-2.35-0.93c-0.8-0.36-1.58-0.74-2.33-1.16c-0.76-0.42-1.48-0.86-2.18-1.31c-0.7-0.45-1.33-0.91-1.9-1.37
			C208.4,408.79,209.26,406.35,210.11,403.92z"/>
		<path class="st1" d="M242.73,413.28c-0.25,1.09-0.42,2.13-0.53,3.12c-0.1,0.99,0.02,1.9,0.37,2.74c0.35,0.84,1.01,1.58,1.97,2.23
			c0.96,0.65,2.39,1.16,4.28,1.51c1.92,0.36,3.51,0.4,4.75,0.15c1.25-0.25,2.25-0.72,3.01-1.4c0.75-0.68,1.31-1.54,1.69-2.57
			c0.37-1.03,0.64-2.17,0.82-3.4c0.82-5.61,1.63-11.22,2.45-16.83c-1.38-0.2-2.75-0.41-4.12-0.64c0.09-0.51,0.17-1.03,0.26-1.54
			c3.33,0.56,6.66,1.02,10.01,1.41c-0.06,0.52-0.12,1.03-0.18,1.55c-1.37-0.16-2.74-0.33-4.11-0.51c-0.75,5.55-1.51,11.1-2.26,16.64
			c-0.23,1.73-0.61,3.23-1.12,4.5c-0.52,1.27-1.28,2.29-2.29,3.05c-1.01,0.76-2.31,1.25-3.9,1.46c-1.59,0.21-3.55,0.11-5.89-0.34
			c-2.09-0.4-3.85-0.95-5.26-1.64c-1.42-0.69-2.52-1.54-3.28-2.54c-0.77-0.99-1.23-2.15-1.38-3.45c-0.15-1.3-0.02-2.78,0.38-4.42
			c1.42-5.74,2.83-11.48,4.25-17.22c-1.35-0.33-2.71-0.68-4.06-1.04c0.14-0.5,0.27-1.01,0.41-1.51c3.98,1.07,7.99,2.01,12.02,2.83
			c-0.1,0.51-0.21,1.02-0.31,1.53c-1.36-0.28-2.73-0.57-4.09-0.87C245.31,401.81,244.02,407.54,242.73,413.28z"/>
		<path class="st1" d="M281.18,399.13c2.18,0.1,4.02,0.3,5.52,0.64c1.5,0.34,2.71,0.79,3.64,1.36c0.93,0.57,1.61,1.26,2.02,2.07
			c0.42,0.81,0.63,1.71,0.65,2.7c0.01,0.86-0.12,1.68-0.41,2.45c-0.28,0.77-0.72,1.47-1.31,2.1c-0.59,0.63-1.34,1.17-2.24,1.61
			c-0.9,0.44-1.97,0.78-3.19,0.99c0,0.03,0,0.05,0,0.08c1.01,0.23,1.84,0.54,2.5,0.95c0.65,0.41,1.19,0.91,1.6,1.49
			c0.41,0.59,0.73,1.25,0.97,2c0.24,0.75,0.45,1.57,0.64,2.47c0.19,0.92,0.36,1.76,0.51,2.53c0.15,0.76,0.36,1.42,0.61,1.97
			c0.25,0.55,0.6,0.98,1.03,1.27c0.43,0.3,1.04,0.44,1.8,0.42c0.14,0,0.34-0.01,0.6-0.03c0.26-0.02,0.54-0.05,0.85-0.1
			c0.02,0.5,0.03,1,0.05,1.5c-0.27,0.06-0.56,0.11-0.87,0.16c-0.31,0.05-0.63,0.08-0.95,0.11c-0.32,0.03-0.64,0.05-0.94,0.06
			c-0.31,0.01-0.58,0.02-0.82,0.02c-1.37,0.02-2.45-0.1-3.23-0.34c-0.78-0.24-1.37-0.62-1.79-1.13c-0.41-0.51-0.7-1.15-0.86-1.92
			c-0.16-0.77-0.31-1.68-0.45-2.74c-0.21-1.54-0.42-2.83-0.62-3.88c-0.21-1.05-0.51-1.89-0.9-2.53c-0.39-0.64-0.92-1.1-1.59-1.39
			c-0.67-0.29-1.59-0.45-2.75-0.5c-1.39-0.06-2.77-0.13-4.16-0.22c-0.26,4.14-0.51,8.28-0.77,12.42c1.64,0.1,3.28,0.18,4.92,0.25
			c-0.02,0.52-0.04,1.04-0.06,1.56c-4.76-0.19-9.51-0.53-14.25-1.02c0.05-0.52,0.11-1.04,0.16-1.55c1.56,0.16,3.11,0.31,4.67,0.43
			c0.69-8.39,1.38-16.78,2.07-25.17c-1.38-0.11-2.76-0.24-4.15-0.38c0.05-0.52,0.11-1.04,0.16-1.55
			C273.61,398.68,277.4,398.96,281.18,399.13z M277.18,411.75c0.97,0.06,1.95,0.11,2.92,0.16c1.58,0.08,2.91,0,3.97-0.2
			c1.07-0.2,1.93-0.55,2.58-1.05c0.66-0.49,1.12-1.12,1.39-1.9c0.27-0.77,0.41-1.71,0.42-2.8c0.01-0.91-0.09-1.69-0.3-2.34
			c-0.2-0.65-0.59-1.17-1.15-1.59c-0.56-0.41-1.33-0.72-2.32-0.94c-0.99-0.22-2.27-0.35-3.85-0.42c-1-0.05-1.99-0.1-2.99-0.16
			C277.64,404.26,277.41,408,277.18,411.75z"/>
		<path class="st1" d="M308.25,425.41c0.04,0.52,0.08,1.04,0.13,1.56c-3.82,0.31-7.65,0.52-11.48,0.64
			c-0.02-0.52-0.03-1.04-0.05-1.56c1.48-0.04,2.97-0.1,4.45-0.18c3.61-9.23,6.72-18.54,9.33-27.9c0.54-0.06,1.08-0.12,1.62-0.18
			c4.35,8.6,9.16,17.06,14.41,25.35c1.53-0.25,3.06-0.52,4.59-0.81c0.1,0.51,0.19,1.02,0.29,1.54c-4.77,0.89-9.57,1.63-14.38,2.21
			c-0.06-0.52-0.13-1.03-0.19-1.55c1.62-0.2,3.23-0.41,4.84-0.64c-1.56-2.59-3.07-5.19-4.54-7.8c-3.53,0.45-7.07,0.81-10.61,1.08
			c-0.98,2.86-2.01,5.72-3.08,8.57C305.13,425.65,306.69,425.54,308.25,425.41z M310.8,404.15c-1.11,3.81-2.31,7.6-3.59,11.39
			c3.08-0.25,6.15-0.56,9.21-0.94c-1.92-3.46-3.77-6.95-5.54-10.46C310.86,404.15,310.83,404.15,310.8,404.15z"/>
		<path class="st1" d="M360.96,416.59c-0.61,0.2-1.21,0.4-1.82,0.59c-9.23-6.2-17.78-12.96-25.59-20.16
			c-0.03,0.01-0.07,0.03-0.1,0.04c1.76,7.91,3.53,15.82,5.29,23.73c1.38-0.31,2.76-0.63,4.13-0.96c0.12,0.51,0.25,1.01,0.37,1.52
			c-3.62,0.88-7.25,1.66-10.9,2.36c-0.1-0.51-0.2-1.02-0.29-1.53c1.54-0.29,3.08-0.6,4.62-0.93c-1.75-8.23-3.51-16.47-5.26-24.7
			c-1.36,0.29-2.73,0.57-4.09,0.83c-0.1-0.51-0.2-1.02-0.29-1.53c3.03-0.58,6.05-1.23,9.06-1.95c6.34,5.72,13.16,11.15,20.42,16.22
			c0.03-0.02,0.07-0.04,0.1-0.05c-1.99-6.21-3.98-12.41-5.97-18.62c-1.33,0.43-2.67,0.84-4.01,1.24c-0.15-0.5-0.3-1-0.45-1.5
			c3.26-0.97,6.5-2.02,9.72-3.17c0.17,0.49,0.35,0.98,0.52,1.47c-1.32,0.47-2.65,0.93-3.98,1.37
			C355.27,399.43,358.12,408.01,360.96,416.59z"/>
		<path class="st1" d="M389.84,394.88c1.09,2.34,2.18,4.68,3.26,7.02c-0.58,0.55-1.24,1.11-1.96,1.67c-0.72,0.56-1.47,1.1-2.24,1.61
			c-0.77,0.51-1.55,0.99-2.33,1.44c-0.78,0.44-1.53,0.82-2.23,1.15c-2.24,1.03-4.41,1.61-6.48,1.76c-2.07,0.14-3.97-0.13-5.69-0.8
			c-1.72-0.67-3.22-1.72-4.52-3.15c-1.3-1.43-2.33-3.2-3.13-5.31c-0.81-2.16-1.21-4.23-1.22-6.22c-0.01-1.99,0.33-3.83,1.01-5.52
			c0.69-1.7,1.7-3.21,3.06-4.56c1.36-1.35,3.01-2.47,5-3.39c0.56-0.26,1.16-0.51,1.81-0.75c0.65-0.24,1.31-0.47,2-0.68
			c0.69-0.21,1.38-0.41,2.07-0.58c0.69-0.17,1.38-0.32,2.04-0.45c1.16,2.07,2.33,4.15,3.49,6.22c-0.46,0.24-0.91,0.47-1.37,0.7
			c-0.76-1.21-1.54-2.11-2.33-2.71c-0.79-0.6-1.59-0.98-2.4-1.13c-0.81-0.16-1.62-0.14-2.44,0.05c-0.82,0.19-1.64,0.48-2.48,0.86
			c-0.85,0.39-1.62,0.82-2.31,1.31c-0.7,0.48-1.3,1.04-1.8,1.68c-0.5,0.64-0.89,1.37-1.17,2.2c-0.28,0.82-0.42,1.78-0.41,2.86
			c0.01,1.08,0.16,2.3,0.47,3.66c0.31,1.36,0.8,2.88,1.48,4.57c0.68,1.68,1.37,3.1,2.09,4.26c0.72,1.16,1.46,2.12,2.23,2.86
			c0.77,0.74,1.56,1.28,2.38,1.62c0.82,0.34,1.66,0.53,2.51,0.57c0.86,0.04,1.73-0.06,2.62-0.3c0.89-0.24,1.8-0.57,2.71-0.99
			c1.11-0.51,2.08-1.09,2.91-1.74c0.83-0.65,1.48-1.41,1.93-2.27c0.46-0.86,0.69-1.85,0.71-2.95c0.02-1.1-0.23-2.37-0.75-3.8
			C388.87,395.38,389.35,395.14,389.84,394.88z"/>
		<path class="st1" d="M398.47,382c0.85-0.51,1.7-1.04,2.54-1.56c0.86-0.54,1.57-1.03,2.11-1.45c0.54-0.42,0.9-0.88,1.09-1.37
			c0.18-0.48,0.19-1.06,0.01-1.71c-0.18-0.65-0.55-1.5-1.13-2.52c0.44-0.29,0.88-0.59,1.32-0.88c2.15,3.2,4.3,6.39,6.46,9.59
			c-0.46,0.31-0.93,0.62-1.4,0.93c-0.72-0.94-1.35-1.65-1.88-2.12c-0.53-0.47-1.07-0.73-1.61-0.8c-0.54-0.07-1.13,0.05-1.77,0.35
			c-0.64,0.3-1.42,0.75-2.36,1.33c-0.85,0.53-1.71,1.06-2.56,1.58c2.13,3.52,4.26,7.04,6.38,10.56c1.84-1.11,3.66-2.25,5.47-3.42
			c1.07-0.69,1.98-1.33,2.73-1.93c0.76-0.6,1.37-1.19,1.85-1.76c0.48-0.58,0.81-1.17,1.02-1.77c0.2-0.6,0.29-1.26,0.25-1.96
			c-0.04-0.7-0.21-1.48-0.49-2.33c-0.29-0.85-0.68-1.81-1.18-2.9c0.45-0.32,0.9-0.65,1.35-0.97c1.77,2.71,3.53,5.41,5.29,8.13
			c-7.69,5.56-15.65,10.58-23.82,15.06c-0.25-0.46-0.5-0.91-0.75-1.37c1.41-0.77,2.82-1.56,4.22-2.37c-4.2-7.3-8.4-14.59-12.6-21.89
			c-1.24,0.72-2.49,1.42-3.74,2.1c-0.25-0.46-0.5-0.91-0.75-1.37c6.98-3.83,13.79-8.11,20.37-12.84c1.64,2.04,3.29,4.07,4.94,6.1
			c-0.43,0.31-0.85,0.61-1.28,0.92c-0.94-0.93-1.77-1.64-2.51-2.11c-0.73-0.48-1.47-0.74-2.21-0.79c-0.74-0.05-1.53,0.12-2.38,0.5
			c-0.85,0.38-1.86,0.96-3.03,1.73c-1.92,1.25-3.85,2.47-5.8,3.64C394.57,375.55,396.52,378.78,398.47,382z"/>
	</g>
</g>
<line class="st2" x1="230.4" y1="240.11" x2="229.66" y2="266.46"/>
<line class="st2" x1="266.92" y1="243.88" x2="264.68" y2="277"/>
<line class="st2" x1="124.35" y1="797.35" x2="123.47" y2="794.7"/>
<path class="st3" d="M215.72,311l72.62,47.28l77-50.13c14.25-9.28,22.85-25.13,22.85-42.13l0-102.74l-34.44-22.42
	c-39.77-25.89-91.06-25.89-130.82,0l-34.44,22.42l0,97.52C188.5,281.05,198.74,299.94,215.72,311z"/>
<line class="st4" x1="246.9" y1="290.93" x2="328.4" y2="290.93"/>
<line class="st4" x1="259.68" y1="301.19" x2="316.85" y2="301.19"/>
<line class="st4" x1="250.8" y1="280.66" x2="323.95" y2="280.66"/>
<line class="st4" x1="267.68" y1="311.65" x2="309.85" y2="311.65"/>
<path class="st5" d="M243.19,271.5c-24.69-26.27-25.36-69.89-1.49-97.44l2.19-2.53c23.54-27.16,62.36-28.18,86.71-2.27l0,0
	c25.94,27.6,26.64,73.44,1.56,102.38"/>
<path class="st6" d="M312.35,280.66"/>
<line class="st4" x1="332.17" y1="271.64" x2="243.19" y2="271.5"/>
<g>
	<g>
		<path class="st1" d="M154.64,139.52c-0.34,0.85-0.76,1.72-1.25,2.61c-0.49,0.89-1.01,1.76-1.58,2.6
			c-0.56,0.84-1.14,1.65-1.74,2.44c-0.6,0.78-1.18,1.49-1.73,2.13c-1.81,2.06-3.69,3.7-5.67,4.92c-1.99,1.22-4.01,2.02-6.1,2.39
			c-2.09,0.37-4.21,0.31-6.37-0.22c-2.16-0.53-4.29-1.53-6.37-3.04c-2.13-1.55-3.77-3.34-4.89-5.4c-1.12-2.06-1.72-4.31-1.76-6.73
			c-0.05-2.42,0.46-4.94,1.53-7.54c1.07-2.59,2.71-5.16,4.91-7.63c1.26-1.41,2.71-2.82,4.35-4.19c1.64-1.37,3.29-2.57,4.94-3.6
			c2.01,1.83,4.01,3.66,6.02,5.5c-0.48,0.49-0.97,0.98-1.45,1.47c-1.28-1.01-2.5-1.65-3.66-1.91c-1.16-0.26-2.27-0.25-3.32,0.04
			c-1.05,0.29-2.06,0.81-3.03,1.55c-0.96,0.74-1.89,1.62-2.78,2.62c-0.93,1.05-1.73,2.11-2.41,3.18c-0.68,1.07-1.19,2.16-1.53,3.28
			c-0.34,1.12-0.49,2.24-0.45,3.37c0.04,1.13,0.33,2.29,0.86,3.48c0.53,1.18,1.31,2.38,2.36,3.59c1.05,1.21,2.4,2.45,4.04,3.73
			c1.62,1.26,3.13,2.25,4.51,2.98c1.38,0.73,2.66,1.23,3.84,1.51c1.18,0.28,2.28,0.37,3.3,0.26c1.02-0.1,1.97-0.37,2.85-0.78
			c0.88-0.42,1.72-0.96,2.52-1.64c0.8-0.68,1.58-1.45,2.34-2.32c0.75-0.85,1.46-1.71,2.13-2.57c0.67-0.86,1.23-1.76,1.69-2.69
			c-2.39-2.26-4.78-4.53-7.18-6.79c-1.4,1.49-2.79,3.01-4.16,4.56c-0.44-0.4-0.89-0.79-1.33-1.19c3.73-4.22,7.6-8.24,11.59-12.05
			c0.41,0.43,0.82,0.86,1.23,1.29c-1.2,1.14-2.38,2.31-3.56,3.49C149.76,134.64,152.2,137.08,154.64,139.52z"/>
		<path class="st1" d="M152.58,99.79c2.5-1.96,4.75-3.41,6.7-4.39c1.96-0.98,3.67-1.56,5.12-1.76c1.45-0.2,2.67-0.07,3.65,0.39
			c0.98,0.46,1.78,1.17,2.41,2.11c0.54,0.82,0.89,1.7,1.06,2.65c0.17,0.95,0.13,1.93-0.1,2.95c-0.23,1.02-0.66,2.06-1.3,3.14
			c-0.64,1.07-1.49,2.16-2.57,3.28c0.02,0.02,0.03,0.05,0.05,0.07c1.17-0.56,2.22-0.88,3.15-0.97c0.93-0.09,1.79,0,2.58,0.26
			c0.79,0.27,1.54,0.68,2.25,1.23c0.71,0.55,1.44,1.19,2.19,1.92c0.77,0.76,1.46,1.45,2.08,2.08c0.62,0.63,1.22,1.13,1.8,1.5
			c0.58,0.37,1.16,0.58,1.74,0.61c0.58,0.03,1.22-0.17,1.92-0.62c0.13-0.08,0.31-0.21,0.53-0.37c0.23-0.16,0.47-0.35,0.73-0.57
			c0.31,0.48,0.61,0.97,0.92,1.45c-0.21,0.2-0.44,0.41-0.7,0.63c-0.26,0.22-0.53,0.43-0.8,0.64c-0.28,0.21-0.55,0.4-0.82,0.59
			c-0.27,0.19-0.51,0.35-0.72,0.49c-1.22,0.81-2.24,1.34-3.08,1.59c-0.84,0.25-1.61,0.27-2.32,0.05c-0.7-0.21-1.39-0.62-2.05-1.23
			c-0.66-0.6-1.42-1.35-2.26-2.22c-1.24-1.27-2.31-2.31-3.23-3.12c-0.91-0.81-1.78-1.36-2.61-1.65c-0.82-0.29-1.66-0.31-2.52-0.05
			c-0.86,0.26-1.87,0.84-3.02,1.73c-1.37,1.06-2.73,2.15-4.08,3.25c3,3.67,5.99,7.34,8.99,11.02c1.4-1.15,2.81-2.27,4.24-3.37
			c0.36,0.47,0.73,0.94,1.09,1.42c-4.07,3.14-8.03,6.47-11.87,10c-0.4-0.44-0.8-0.88-1.2-1.32c1.28-1.18,2.58-2.33,3.89-3.47
			c-6.28-7.29-12.56-14.57-18.84-21.86c-1.51,1.31-3,2.64-4.49,4c-0.4-0.44-0.8-0.88-1.2-1.32
			C144.02,106.77,148.25,103.19,152.58,99.79z M158.18,114.07c0.96-0.79,1.93-1.57,2.9-2.33c1.58-1.25,2.83-2.37,3.75-3.39
			c0.92-1.02,1.55-2,1.89-2.96c0.34-0.95,0.39-1.89,0.17-2.81c-0.23-0.92-0.7-1.9-1.42-2.92c-0.6-0.85-1.23-1.5-1.89-1.93
			c-0.66-0.43-1.45-0.61-2.36-0.52c-0.91,0.09-2,0.46-3.26,1.13c-1.26,0.67-2.78,1.69-4.56,3.09c-1.12,0.88-2.23,1.78-3.34,2.68
			C152.76,107.43,155.47,110.75,158.18,114.07z"/>
		<path class="st1" d="M189.74,92.93c1.05-0.57,2.1-1.13,3.16-1.68c1.08-0.56,1.97-1.05,2.67-1.49c0.7-0.43,1.19-0.91,1.49-1.45
			c0.3-0.53,0.4-1.19,0.31-1.96c-0.09-0.77-0.37-1.79-0.85-3.05c0.6-0.28,1.19-0.57,1.79-0.85c1.87,3.99,3.73,7.98,5.6,11.97
			c-0.56,0.26-1.12,0.53-1.68,0.79c-0.66-1.18-1.26-2.08-1.79-2.69c-0.53-0.61-1.1-0.99-1.71-1.14c-0.61-0.15-1.31-0.09-2.08,0.18
			c-0.78,0.27-1.75,0.7-2.9,1.3c-1.05,0.54-2.09,1.1-3.13,1.66c2.24,4.13,4.49,8.26,6.73,12.4c1.95-1.06,3.92-2.08,5.91-3.07
			c1.17-0.58,2.18-1.12,3.03-1.62c0.85-0.5,1.56-1.01,2.13-1.53c0.57-0.52,1.01-1.09,1.32-1.7c0.31-0.61,0.5-1.3,0.59-2.09
			c0.08-0.78,0.06-1.68-0.08-2.69c-0.14-1.01-0.36-2.18-0.66-3.51c0.56-0.24,1.13-0.48,1.69-0.71c1.26,3.47,2.52,6.94,3.8,10.41
			c-8.73,3.64-17.24,7.98-25.42,13.01c-0.31-0.51-0.62-1.01-0.93-1.52c1.44-0.88,2.89-1.75,4.34-2.59
			c-4.81-8.33-9.62-16.66-14.44-24.99c-1.68,0.97-3.35,1.97-5.01,2.99c-0.31-0.51-0.62-1.01-0.93-1.52
			c9.41-5.78,19.17-10.78,29.19-15c1.34,2.67,2.67,5.35,4,8.03c-0.6,0.25-1.2,0.5-1.79,0.76c-0.84-1.26-1.64-2.23-2.4-2.92
			c-0.75-0.69-1.58-1.12-2.49-1.3c-0.9-0.18-1.95-0.1-3.14,0.25c-1.19,0.34-2.63,0.92-4.31,1.74c-2.75,1.34-5.47,2.74-8.17,4.21
			C185.63,85.36,187.68,89.14,189.74,92.93z"/>
		<path class="st1" d="M223.78,78.34c1.12-0.36,2.24-0.71,3.36-1.06c1.15-0.35,2.1-0.67,2.85-0.96c0.75-0.29,1.32-0.67,1.7-1.14
			c0.38-0.47,0.6-1.09,0.65-1.87c0.05-0.78-0.05-1.83-0.29-3.15c0.63-0.17,1.26-0.34,1.89-0.5c1.12,4.26,2.23,8.52,3.35,12.78
			c-0.59,0.15-1.18,0.31-1.77,0.47c-0.44-1.28-0.86-2.28-1.27-2.97c-0.41-0.7-0.9-1.18-1.47-1.44c-0.57-0.26-1.26-0.33-2.06-0.21
			c-0.8,0.12-1.82,0.37-3.04,0.74c-1.11,0.34-2.22,0.69-3.33,1.05c1.46,4.47,2.92,8.94,4.37,13.41c2.08-0.67,4.18-1.31,6.28-1.91
			c1.24-0.35,2.32-0.69,3.23-1.03c0.92-0.34,1.7-0.71,2.35-1.11c0.65-0.41,1.17-0.88,1.58-1.42c0.41-0.54,0.72-1.19,0.94-1.94
			c0.22-0.75,0.35-1.64,0.39-2.66c0.04-1.02,0.04-2.2-0.02-3.56c0.59-0.13,1.18-0.26,1.77-0.39c0.61,3.64,1.23,7.28,1.86,10.92
			c-9.16,1.99-18.19,4.67-27,8.04c-0.21-0.56-0.43-1.11-0.64-1.67c1.55-0.59,3.11-1.17,4.67-1.72c-3.22-9.06-6.44-18.13-9.66-27.19
			c-1.8,0.64-3.6,1.3-5.39,1.98c-0.21-0.56-0.43-1.11-0.64-1.67c10.13-3.88,20.5-6.98,31.01-9.29c0.84,2.87,1.66,5.74,2.48,8.61
			c-0.63,0.14-1.26,0.28-1.88,0.42c-0.6-1.39-1.21-2.49-1.82-3.3c-0.61-0.81-1.35-1.39-2.2-1.73c-0.85-0.34-1.89-0.45-3.1-0.33
			c-1.22,0.12-2.72,0.42-4.5,0.91c-2.91,0.81-5.8,1.68-8.68,2.61C221.11,70.15,222.45,74.25,223.78,78.34z"/>
		<path class="st1" d="M282.21,86.51c-0.65,0.02-1.3,0.04-1.95,0.06c-7.37-9.72-15.86-19-25.41-27.66
			c-0.05,0.01-0.09,0.03-0.14,0.04c1.38,9.15,2.77,18.31,4.15,27.46c1.46-0.22,2.93-0.42,4.39-0.6c0.08,0.59,0.15,1.18,0.23,1.77
			c-3.79,0.48-7.57,1.07-11.34,1.78c-0.11-0.58-0.22-1.17-0.33-1.75c1.62-0.3,3.24-0.59,4.86-0.85c-1.55-9.49-3.1-18.98-4.65-28.47
			c-1.87,0.3-3.74,0.63-5.61,0.98c-0.11-0.58-0.22-1.17-0.33-1.75c4.2-0.79,8.43-1.46,12.66-2c7.65,7.13,14.61,14.65,20.83,22.47
			c0.04-0.01,0.08-0.02,0.13-0.03c-0.28-7.44-0.55-14.87-0.83-22.31c-1.89,0.07-3.78,0.16-5.67,0.28c-0.04-0.59-0.08-1.19-0.11-1.78
			c4.67-0.29,9.34-0.44,14.02-0.43c0,0.59,0,1.19,0,1.78c-1.89,0-3.79,0.02-5.68,0.07C281.69,65.88,281.95,76.19,282.21,86.51z"/>
		<path class="st1" d="M318.21,86.93c1.26,0.21,2.38,0.37,3.35,0.46c0.97,0.09,1.84,0.09,2.61-0.01c0.77-0.1,1.46-0.3,2.07-0.62
			c0.61-0.32,1.18-0.78,1.71-1.38c0.53-0.6,1.04-1.36,1.53-2.28c0.49-0.92,1.01-2.03,1.53-3.33c0.59,0.13,1.18,0.27,1.77,0.41
			c-1.06,3.62-2.11,7.23-3.15,10.86c-8.89-2.08-17.91-3.5-26.97-4.26c0.05-0.59,0.1-1.19,0.15-1.78c1.64,0.14,3.27,0.3,4.9,0.48
			c1.07-9.55,2.13-19.11,3.2-28.66c-1.88-0.21-3.77-0.39-5.66-0.55c0.05-0.59,0.1-1.19,0.15-1.78c5.66,0.48,11.31,1.17,16.92,2.08
			c-0.1,0.59-0.19,1.17-0.29,1.76c-1.87-0.3-3.75-0.58-5.63-0.84c-1.31,9.52-2.62,19.05-3.93,28.57
			C314.39,86.32,316.3,86.61,318.21,86.93z"/>
		<path class="st1" d="M351.88,65.37c-2.89,9.17-5.78,18.35-8.66,27.52c1.58,0.49,3.15,1.01,4.72,1.54
			c-0.19,0.56-0.39,1.13-0.58,1.69c-4.62-1.58-9.28-2.97-13.99-4.17c0.15-0.58,0.3-1.15,0.45-1.73c1.6,0.41,3.19,0.84,4.78,1.29
			c2.65-9.25,5.3-18.49,7.95-27.74c-1.83-0.52-3.67-1.02-5.51-1.49c0.15-0.58,0.3-1.15,0.45-1.73c5.53,1.41,11.01,3.05,16.43,4.9
			c-0.19,0.56-0.39,1.13-0.58,1.69C355.52,66.53,353.7,65.94,351.88,65.37z"/>
		<path class="st1" d="M377.32,107.94c-0.88-0.08-1.79-0.22-2.74-0.42c-0.95-0.2-1.88-0.45-2.79-0.73c-0.91-0.29-1.8-0.6-2.67-0.93
			c-0.87-0.34-1.65-0.67-2.37-1.01c-2.32-1.11-4.25-2.39-5.8-3.91c-1.56-1.51-2.74-3.19-3.53-5.05c-0.8-1.86-1.2-3.89-1.2-6.08
			c0.01-2.19,0.44-4.5,1.34-6.91c0.92-2.47,2.17-4.55,3.77-6.21c1.6-1.67,3.49-2.89,5.65-3.65c2.17-0.76,4.56-1.03,7.17-0.78
			c2.6,0.25,5.32,1.04,8.12,2.38c1.6,0.77,3.24,1.73,4.91,2.88c1.67,1.15,3.19,2.36,4.56,3.63c-1.21,2.44-2.42,4.87-3.63,7.3
			c-0.57-0.32-1.15-0.63-1.73-0.94c0.62-1.51,0.91-2.85,0.87-4.03c-0.04-1.18-0.33-2.22-0.85-3.13c-0.53-0.91-1.25-1.71-2.17-2.41
			c-0.92-0.69-1.95-1.31-3.08-1.86c-1.19-0.57-2.35-1.01-3.48-1.34c-1.14-0.32-2.25-0.48-3.35-0.48c-1.09,0.01-2.15,0.2-3.17,0.57
			c-1.02,0.38-2,0.99-2.95,1.83c-0.95,0.85-1.86,1.94-2.71,3.29c-0.86,1.35-1.68,2.98-2.46,4.91c-0.77,1.9-1.33,3.61-1.68,5.13
			c-0.35,1.52-0.52,2.88-0.51,4.07c0.01,1.2,0.18,2.26,0.5,3.19c0.33,0.93,0.78,1.75,1.36,2.46c0.58,0.71,1.27,1.34,2.08,1.9
			c0.81,0.56,1.7,1.06,2.67,1.53c0.96,0.46,1.92,0.88,2.87,1.26c0.95,0.38,1.92,0.65,2.89,0.8c1.52-2.93,3.03-5.85,4.55-8.78
			c-1.72-0.89-3.46-1.75-5.2-2.59c0.26-0.54,0.52-1.07,0.77-1.61c4.76,2.28,9.44,4.77,14.04,7.45c-0.3,0.51-0.6,1.03-0.9,1.54
			c-1.38-0.8-2.76-1.59-4.16-2.36C380.65,101.89,378.98,104.91,377.32,107.94z"/>
		<path class="st1" d="M389.04,114.42c5.24-8.07,10.47-16.14,15.71-24.21c-1.64-1.07-3.29-2.11-4.95-3.12
			c0.31-0.51,0.62-1.02,0.93-1.52c4.98,3.05,9.87,6.31,14.64,9.8c-0.35,0.48-0.7,0.96-1.05,1.44c-1.59-1.16-3.19-2.3-4.81-3.41
			c-2.44,3.55-4.88,7.1-7.32,10.65c5.08,3.5,10.03,7.26,14.84,11.28c2.75-3.31,5.51-6.62,8.26-9.94c-1.53-1.28-3.07-2.53-4.62-3.76
			c0.37-0.47,0.74-0.94,1.1-1.4c4.67,3.68,9.21,7.59,13.62,11.71c-0.4,0.44-0.81,0.87-1.21,1.31c-1.47-1.37-2.96-2.72-4.46-4.05
			c-6.35,7.23-12.69,14.45-19.04,21.68c1.3,1.15,2.59,2.32,3.86,3.51c-0.4,0.44-0.81,0.87-1.21,1.31c-3.76-3.51-7.62-6.83-11.6-9.97
			c0.37-0.47,0.74-0.94,1.1-1.4c1.35,1.06,2.68,2.15,4.01,3.26c3.01-3.62,6.01-7.23,9.02-10.85c-4.76-3.98-9.67-7.71-14.71-11.17
			c-2.66,3.88-5.33,7.75-7.99,11.63c1.4,0.96,2.79,1.95,4.17,2.96c-0.35,0.48-0.7,0.96-1.05,1.44c-4.06-2.97-8.22-5.75-12.46-8.34
			c0.31-0.51,0.62-1.02,0.93-1.52C386.19,112.59,387.62,113.49,389.04,114.42z"/>
		<path class="st1" d="M439.01,115.38c8.54,8.35,16.54,17.56,23.9,27.61c-2.44,2.1-4.88,4.19-7.33,6.27
			c-0.42-0.58-0.84-1.15-1.26-1.72c1.17-1.22,2.03-2.32,2.58-3.3c0.55-0.98,0.79-1.98,0.72-2.98c-0.07-1.01-0.44-2.1-1.11-3.27
			c-0.67-1.17-1.64-2.54-2.92-4.09c-0.53-0.65-1.07-1.29-1.61-1.93c-7.34,6.22-14.67,12.43-22.01,18.65
			c1.27,1.51,2.52,3.04,3.76,4.6c-0.47,0.37-0.93,0.74-1.4,1.11c-3.53-4.46-7.21-8.7-11.04-12.73c0.43-0.41,0.86-0.82,1.29-1.23
			c1.34,1.41,2.66,2.85,3.96,4.31c7.16-6.42,14.32-12.84,21.48-19.25c-0.52-0.58-1.04-1.16-1.57-1.74c-0.9-0.99-1.72-1.82-2.48-2.51
			c-0.75-0.69-1.47-1.24-2.15-1.64c-0.68-0.4-1.34-0.67-1.99-0.79c-0.65-0.13-1.31-0.12-1.99,0.02c-0.68,0.14-1.4,0.41-2.16,0.8
			c-0.76,0.39-1.61,0.92-2.53,1.58c-0.49-0.48-0.97-0.96-1.46-1.43C434.12,119.58,436.56,117.48,439.01,115.38z"/>
	</g>
</g>
<line class="st4" x1="276.46" y1="321.29" x2="301.07" y2="321.29"/>
<polygon class="st7" points="144.02,232.75 123.91,243.52 103.8,232.75 123.91,221.99 "/>
<path class="st2" d="M755.33,699.12"/>
<path class="st8" d="M441.17,758.42"/>
<path class="st5" d="M436.52,703.55"/>
<path class="st8" d="M710.19,947.8"/>
<linearGradient id="SVGID_1_" gradientUnits="userSpaceOnUse" x1="289.6267" y1="221.3361" x2="418.899" y2="221.3361">
	<stop  offset="0" style="stop-color:#009444"/>
	<stop  offset="0.0233" style="stop-color:#2A9A49"/>
	<stop  offset="0.085" style="stop-color:#5BA957"/>
	<stop  offset="0.148" style="stop-color:#77B767"/>
	<stop  offset="0.2121" style="stop-color:#8BC273"/>
	<stop  offset="0.2779" style="stop-color:#97CB7B"/>
	<stop  offset="0.3479" style="stop-color:#9BCF7E"/>
	<stop  offset="0.7424" style="stop-color:#F6E6CD"/>
	<stop  offset="0.9832" style="stop-color:#F6E6CD"/>
</linearGradient>
<path class="st9" d="M289.63,262.49h18.56c0,0,3.38-11.02,11.95-19.19c8.57-8.16,12.98-22.45,7.1-42.45
	c-5.88-20-21.15-22.13-17.46-20c7.09,4.08,9.55,15.82,10.37,21.13c0.57,3.72,3.03,19.7-11.96,32.35
	C293.19,246.97,289.74,256.36,289.63,262.49z"/>
<linearGradient id="SVGID_00000000213240864598537000000015752519386014004116_" gradientUnits="userSpaceOnUse" x1="237.6513" y1="221.6346" x2="300.0439" y2="221.1637">
	<stop  offset="0.2268" style="stop-color:#9BCF7E"/>
	<stop  offset="0.2755" style="stop-color:#8BC373"/>
	<stop  offset="0.4042" style="stop-color:#68AF5E"/>
	<stop  offset="0.5357" style="stop-color:#49A250"/>
	<stop  offset="0.6693" style="stop-color:#2A9A49"/>
	<stop  offset="0.8066" style="stop-color:#069545"/>
	<stop  offset="0.9527" style="stop-color:#009444"/>
</linearGradient>
<path style="fill:url(#SVGID_00000000213240864598537000000015752519386014004116_);" d="M283.39,262.53l-18.56-0.03
	c0,0-3.36-11.03-11.92-19.21c-8.56-8.18-12.95-22.47-7.04-42.47c5.91-19.99,21.18-22.09,17.49-19.98
	c-7.09,4.07-9.58,15.8-10.4,21.11c-0.58,3.72-3.06,19.69,11.91,32.37S283.29,256.41,283.39,262.53z"/>
<radialGradient id="SVGID_00000181054963379933210560000014449581954098663611_" cx="286.6779" cy="199.472" r="140.5014" fx="152.9247" fy="242.492" gradientTransform="matrix(1 0 0 4.003 0 -599.0235)" gradientUnits="userSpaceOnUse">
	<stop  offset="0" style="stop-color:#9BCF7E"/>
	<stop  offset="0.0233" style="stop-color:#8BC373"/>
	<stop  offset="0.085" style="stop-color:#68AF5E"/>
	<stop  offset="0.148" style="stop-color:#49A250"/>
	<stop  offset="0.2121" style="stop-color:#2A9A49"/>
	<stop  offset="0.2779" style="stop-color:#069545"/>
	<stop  offset="0.3479" style="stop-color:#009444"/>
	<stop  offset="0.7424" style="stop-color:#F6E6CD"/>
	<stop  offset="0.9832" style="stop-color:#F1F2F2"/>
</radialGradient>
<path style="fill:url(#SVGID_00000181054963379933210560000014449581954098663611_);" d="M286.27,162.35c0,0,0.43,7.68,10.67,22.4
	c10.24,14.72,7.68,10.88,11.52,18.99s2.05,13.23-2.39,22.19c-2.08,4.21-7.65,8.4-7.65,8.4l-5.32,2.27c0,0,4.27-9.81-2.13-24.75
	c0,0-2.99-9.39-4.69-18.35c0,0-4.18,17.1-4.69,18.35c-2.03,4.94-6.4,19.63-2.13,24.75c0,0-8.96-2.56-14.51-15.36
	c-5.55-12.8,0.9-21.76,5.44-26.88C270.38,194.35,279.87,181.55,286.27,162.35z"/>
<path class="st12" d="M286.7,205.71c0.01-0.19,0.31-0.19,0.34,0c0.52,3.07,2.18,12.31,3.91,15.54c2.26,4.23,3.24,12.21,0.35,20.02
	c-0.92,2.49-1.26,3.35-4.28,10.84c-0.06,0.14-0.25,0.15-0.32,0.02c-0.65-1.29-2.82-6.31-5.01-10.61
	c-2.36-4.63-1.54-15.93,0.82-19.95c0.03-0.05,0.06-0.11,0.08-0.17C283.2,219.54,286.45,213.47,286.7,205.71z"/>
<path class="st13" d="M444.55,769.92"/>
<polygon class="st7" points="473.03,232.75 452.92,243.52 432.81,232.75 452.92,221.99 "/>
</svg>
