<?xml version="1.0" encoding="utf-8"?>
<!-- Generator: Adobe Illustrator 27.5.0, SVG Export Plug-In . SVG Version: 6.00 Build 0)  -->
<svg version="1.1" id="OBJECTS" xmlns="http://www.w3.org/2000/svg" xmlns:xlink="http://www.w3.org/1999/xlink" x="0px" y="0px"
	 viewBox="0 0 2079.07 1729.11" style="enable-background:new 0 0 2079.07 1729.11;" xml:space="preserve">
<style type="text/css">
	.st0{fill-rule:evenodd;clip-rule:evenodd;fill:#B6DDBD;}
	.st1{fill:#B6DDBD;}
	.st2{fill:#123524;}
	.st3{fill:#006837;}
	.st4{fill:#001E00;}
	.st5{fill:#FFFFFF;}
	.st6{fill:#BC2E35;}
	.st7{fill:#F1F2F2;}
	.st8{fill:#D1955F;}
	.st9{fill:#162B68;}
	.st10{fill:#E6AA6E;}
	.st11{fill:#25447D;}
	.st12{fill:#A0B4FC;}
	.st13{fill:#4F9EB6;}
	.st14{fill:url(#SVGID_1_);}
	.st15{fill:url(#SVGID_00000097480262253405905450000006455719625844369544_);}
	.st16{fill:#C18452;}
	.st17{fill:#C73334;}
	.st18{fill:#C7FFFF;}
	.st19{fill:#75AE74;}
</style>
<circle class="st0" cx="1078.67" cy="706.77" r="703.83"/>
<path class="st1" d="M736.53,1504.44c0,13.14,203.55,23.78,454.64,23.78c251.09,0,454.64-10.65,454.64-23.78
	c0-13.14-203.55-23.78-454.64-23.78C940.08,1480.65,736.53,1491.3,736.53,1504.44z"/>
<rect x="774.53" y="334.78" class="st2" width="851.59" height="1170.24"/>
<path class="st1" d="M387.61,1497.31c0,13.14,59.74,23.78,133.44,23.78c73.7,0,133.44-10.65,133.44-23.78
	c0-13.14-59.74-23.78-133.44-23.78C447.35,1473.53,387.61,1484.17,387.61,1497.31z"/>
<rect x="756.57" y="334.78" class="st3" width="851.59" height="1170.24"/>
<path class="st2" d="M1321.9,401.11h-250.3v-99.27c0-18.44,14.95-33.39,33.39-33.39h183.51c18.44,0,33.39,14.95,33.39,33.39V401.11z
	"/>
<path class="st4" d="M1182.09,217.59c-14.05,0-25.41,11.39-25.41,25.41c0,14.05,11.36,25.45,25.41,25.45
	c14.05,0,25.41-11.39,25.41-25.45C1207.5,228.98,1196.14,217.59,1182.09,217.59z M1182.09,264.7c-11.96,0-21.66-9.74-21.66-21.7
	c0-11.92,9.71-21.66,21.66-21.66s21.66,9.74,21.66,21.66C1203.75,254.96,1194.05,264.7,1182.09,264.7z"/>
<rect x="778.29" y="346.5" class="st5" width="800.75" height="1131.92"/>
<path class="st6" d="M541.74,736.95c0,1.8-43.78,80.21-43.78,80.21s-27.4-7.05-39.17-13.64c-11.73-6.6-1.46-16.15,9.52-33.02
	c11.02-16.87-28-25.64-40.44-37.74c-12.48-12.07-22.04-43.4-8.99-56.59c13.08-13.19,22.56-32.31,22.56-52.32
	c0-20.95,10.08-27.25,21.89-27.43c15.82-0.3,36.42,6.93,38.7,8.24c0.07,0.04,2.66-0.55-1.37,3.64
	C500.67,608.28,541.67,735.3,541.74,736.95z"/>
<path class="st6" d="M499.19,471.61c0,0,88.11-26.1,65.61,99.68L499.19,471.61z"/>
<path class="st7" d="M526.45,664.16l102.67,90.8c0,0,108.58,16.48,143.51,12.79l1.72,18.27c0,0-143.47,17.98-159.15,11.85
	l-57.9-44.62L526.45,664.16z"/>
<path class="st8" d="M625.57,1503.65c-22.24,2.95-69.1,0-69.1,0s-2.92-17.18-11.7-33.73c-1.69-3.2-4.11-6.43-6.92-9.55
	c0-0.07-0.07-0.11-0.11-0.14c-11.66-13.14-29.86-24.64-29.86-24.64c1.54-6.04,3.96-10.33,5.93-14.2c0-0.04-2.27,0.43-2.24,0.39
	c2.63-5.18,6.15-9.23,8.57-12.5c1.65-2.17,2.81-4.01,2.95-5.64c0.6-5.93-15.21-61.52-15.21-61.52
	c4.11-13.63,25.75-19.53,25.75-19.53s3.51,52.65,9.98,75.12c6.43,22.51,42.15,72.21,42.15,72.21
	C618.55,1492.4,625.57,1503.65,625.57,1503.65z"/>
<path class="st9" d="M625.57,1503.65c-2.21,0.28-4.71,0.53-7.34,0.71c-23.82,1.67-61.75-0.71-61.75-0.71s-2.92-17.18-11.7-33.73
	c-1.69-3.2-4.11-6.43-6.92-9.55l-0.11-0.35v0.21l-0.88,44.73h-6.57c0,0-10.12-46.72-22.41-69.37c0,0,0.74-6.6,3.62-13.67
	c0-0.04,0.04-0.11,0.07-0.14c1.83-4.54,4.57-9.27,8.57-12.5c0,0,23.15,56.77,65.62,60.64
	C618.55,1492.4,625.57,1503.65,625.57,1503.65z"/>
<path class="st9" d="M558.46,879.12c0,0,11.82,30.42,10.48,53.28c-2.18,37.56-5.69,94.33-8.96,132.21
	c-3.97,46.05-13.63,85.31-18.13,101.78v0.04c-1.44,5.32-2.35,8.24-2.35,8.24c-7.03,49.1-4.39,147.93-4.39,147.93
	c-12.01,3.55-29.58,19.53-29.58,19.53s-21.64-67.45-22.24-94.08c-0.6-26.63,5.87-49.7,12.29-71.61c1.26-4.3,1.76-16.33,1.76-32.91
	c0-15.87-0.46-36-1.19-57.41c-2.42-70.33-7.48-155.25-7.48-155.25l29.16,15.98l3.79-3.76L558.46,879.12z"/>
<path class="st10" d="M517.84,1507.2c-39.8,9.44-70.82,0-70.82,0c-3.51-29-18.76-66.88-18.44-76.93c0.14-4.51,2.18-8.24,4.36-11.57
	h0.04c2.78-4.15,5.83-7.63,5.83-10.9c0-5.93-20.48-65.68-20.48-65.68h34.53c0,0-1.16,42,3.51,63.3
	c4.71,21.3,33.37,74.55,33.37,74.55C517.84,1498.89,517.84,1507.2,517.84,1507.2z"/>
<path class="st11" d="M517.84,1507.2c-39.8,9.44-70.82,0-70.82,0c-3.51-29-18.76-66.88-18.44-76.93c0.14-4.51,2.18-8.24,4.36-11.57
	h0.04c0,0,5.55,34.08,15.21,52.12c9.66,18.03,33.09,12.28,41.56,9.16C517.84,1498.89,517.84,1507.2,517.84,1507.2z"/>
<path class="st11" d="M558.46,879.12c0,0,3.6,35.78-6.38,49.41c-9.94,13.6-26.63,18.92-26.63,18.92s-0.04,3.12-0.21,8.73
	c-0.6,19.81-2.99,70.72-12.08,125.57c-3.83,23.18-9.48,43.56-15.35,60.46c-0.14,0.43-0.32,0.89-0.46,1.31
	c-11.77,33.58-24.17,53.04-24.17,53.04c-10.68,28.97-18.27,155-18.27,155c-7.03,6.82-36.6,2.38-36.6,2.38s-15.21-59.18-11.49-89.36
	c3.76-30.18,22.02-66.85,23.78-78.1c1.51-9.55,3.44-37.21-1.83-76.29c-0.95-6.78-2.07-13.92-3.44-21.34
	c-9.38-50.27-21.77-161.13-11.14-195.01c11.32-36.08,48.92-76.33,52.29-78.43c0.18-0.11,31.73,7.25,31.87,7.14
	c0.18-0.11,0.32-0.21,0.42-0.28c0.35-0.21,0.56-0.36,0.56-0.36L558.46,879.12z"/>
<g>
	<path class="st12" d="M437.66,914.09l-5.87-15.04l0.91-0.28c0.41-0.12,41.01-12.72,62.26-35.35l0.74-0.79l9.19,13.26l-0.4,0.52
		c-0.25,0.33-25.87,32.89-66.16,37.61L437.66,914.09z M434.12,900.18l4.68,11.99c36.45-4.57,60.52-32.25,63.9-36.35l-7.2-10.4
		C475.56,886.01,440.22,898.18,434.12,900.18z"/>
</g>
<g>
	<path class="st12" d="M449.38,894.31l-1.39-1.08c26.07-34.14,59.05-55.74,59.38-55.95l0.95,1.5
		C507.99,838.98,475.26,860.43,449.38,894.31z"/>
</g>
<path class="st13" d="M596.87,737.33c0.84,21.32-23.03,37.26-23.03,37.26s-4.81,12.29-10.26,27.46l0,0.04
	c-4.11,11.44-8.6,24.49-11.68,35.19l-0.03,0c-2.42,8.39-3.96,15.31-3.81,18.76c0.72,13.63,10.4,22.8,10.4,22.8l-0.01,0.29
	c-0.25,1.81-2.66,11.13-27.58,6.48c-27.55-5.14-68.95-70.17-68.95-70.17c9.61,2.05,35.29-12.24,34.54-25.86
	c-0.33-6.17-7.08-23.83-14.08-43.14c-8.35-23.11-17.1-48.63-15.64-59.68c2.68-20.29,25.27-48.31,25.27-48.31l30.44,14.57
	C535.34,678.15,596.87,737.33,596.87,737.33z"/>
<path class="st10" d="M501.87,596.58c0,0-0.76,22.89-9.85,41.88c0,0,6.6,17.5,16.14,24.93c9.54,7.42,18.28,6.6,19.26,4.43
	c0.97-2.17-5.74-11.05-5.74-11.05s10.24-50.8,16.32-57.95L501.87,596.58z"/>
<linearGradient id="SVGID_1_" gradientUnits="userSpaceOnUse" x1="546.5515" y1="684.47" x2="546.5515" y2="632.1043" gradientTransform="matrix(0.9956 -0.0937 0.0937 0.9956 -71.1083 151.1952)">
	<stop  offset="0" style="stop-color:#6E003A"/>
	<stop  offset="1" style="stop-color:#9C004F"/>
</linearGradient>
<path class="st14" d="M515.67,783.47c0,0,43.03-16.44,38.08-56.18C553.75,727.28,515.32,753.19,515.67,783.47z"/>
<path class="st8" d="M526.45,635.07c0,0-14.81-10.81-25.77-26.78l1.19-11.71c0,0,20.37,6.05,36.12,2.23L526.45,635.07z"/>
<linearGradient id="SVGID_00000155113627912753757400000011901117838861179828_" gradientUnits="userSpaceOnUse" x1="543.9358" y1="684.47" x2="543.9358" y2="627.223" gradientTransform="matrix(0.9956 -0.0937 0.0937 0.9956 -71.1083 151.1952)">
	<stop  offset="0" style="stop-color:#EFBD45"/>
	<stop  offset="1" style="stop-color:#F0C82E"/>
</linearGradient>
<path style="fill:url(#SVGID_00000155113627912753757400000011901117838861179828_);" d="M515.67,783.47c0,0-3.93-7.01-6.34-11.76
	c0,0,18.97-36.82,37.62-48.68l2.86,4.63l3.93-0.37C553.75,727.28,523.35,763.58,515.67,783.47z"/>
<path class="st16" d="M515.14,1368.46c0,0,8.13-22.41,19.77-30.15l-1.26-15.71c0,0-19.54,9.38-26.45,18.07L515.14,1368.46z"/>
<path class="st9" d="M618.23,1504.36c-23.82,1.67-61.75-0.71-61.75-0.71s-2.92-17.18-11.7-33.73c-1.69-3.2-4.11-6.43-6.92-9.55
	l-0.11-0.35v0.21l-0.88,44.73h-6.57c0,0-10.12-46.72-22.41-69.37c0,0,23.11,10.93,37.16,26.02c14.05,15.09,19.04,35.5,19.04,35.5
	S598.77,1504.82,618.23,1504.36z"/>
<path class="st10" d="M540.84,618.13c-12.15,0.49-33.84-5.12-44.55-13.04l-0.08-0.02c-5.28-3.94-10.51-8.94-15.83-15.34
	c-13.6-16.37-13.58-53.91-10.53-74.07c0.52-3.7,1.18-6.82,1.87-9.1c4.45-14.76,39.68-27.18,61.76-20.96c0,0,1.54,0.85,3.81,2.42
	c0.05,0.01,0.1,0.06,0.14,0.1c2.55,1.76,5.98,4.44,9.23,7.88c0.11,0.12,0.22,0.23,0.33,0.35c2.19,2.37,4.26,5.05,5.88,8.06
	c0.02,0.03,0.02,0.03,0.04,0.07c1.17,2.17,2.11,4.48,2.67,6.94c3.63,15.69,6.32,23.28,6.02,32.49c-0.42,12.63,4.12,25.31,0.75,38.18
	C557.56,600.32,549.59,617.77,540.84,618.13z"/>
<path class="st17" d="M501.19,608.41c-1.95-0.47-12.19-6.78-24.71-6.55c-22.44-20.15-47.43-53.9-27.01-94.03
	c33.36-65.54,71.35-23.89,71.35-23.89s-60.73,28.03-49.83,70.37C480.74,592.23,479.82,592.03,501.19,608.41z"/>
<path class="st17" d="M523.81,482.29c-3.99,3.24-10.99,11.97-14.58,15.76c-3.55,3.81-6.97,7.91-9.02,12.2
	c-1.01,2.12-1.5,4.29-1.15,5.81c0.06,0.18,0.12,0.36,0.16,0.55l0.37,0.71c0.24,0.48,0.47,0.98,0.83,1.4
	c0.61,0.91,1.38,1.73,2.28,2.49c1.78,1.56,4.03,2.78,6.49,4.26c1.22,0.8,2.57,1.55,3.82,3.07c1.27,1.4,1.96,4.02,1.35,5.75
	c-0.42,1.8-1.24,3.16-2.07,4.41c-0.85,1.23-1.7,2.36-2.65,3.42c-1.84,2.17-3.84,4.11-5.8,6.01c-1.94,1.91-3.91,3.77-5.47,5.79
	c-1.56,2.01-2.6,4.27-2,6.49c0.66,2.25,2.59,4.16,4.64,5.87c2.05,1.74,4.25,3.31,6.55,4.74c2.25,1.51,4.81,2.62,6.78,4.72
	c1.02,1.07,1.18,2.75,0.63,4.02c-0.46,1.32-1.28,2.44-2.06,3.55c0.71-1.16,1.45-2.33,1.8-3.63c0.43-1.28,0.18-2.67-0.78-3.57
	c-1.9-1.79-4.56-2.78-6.92-4.13c-2.42-1.29-4.79-2.75-7.02-4.4c-2.19-1.62-4.58-3.5-5.73-6.5c-0.44-1.51-0.59-3.23-0.09-4.72
	c0.37-1.55,1.16-2.84,1.94-4.06c1.62-2.41,3.52-4.45,5.33-6.49c1.82-2.03,3.62-4.03,5.17-6.14c1.49-2.06,3.13-4.41,3.38-6.23
	c0.19-0.95-0.09-1.23-0.58-1.84c-0.51-0.59-1.6-1.21-2.71-1.79c-2.29-1.19-4.98-2.39-7.47-4.26c-1.24-0.92-2.45-2.02-3.46-3.31
	c-0.56-0.6-0.98-1.31-1.4-2.02l-0.63-1.07l-0.55-1.37c-1.13-3.82-0.2-7.27,0.86-10.13c2.31-5.76,5.77-10.35,9.33-14.77
	c3.64-4.39,7.43-8.41,11.66-12.35L523.81,482.29z"/>
<path class="st6" d="M528.79,479.67c5.49,1.82,10.61,3.89,15.75,6.35c5.08,2.53,10.14,5.26,14.64,9.53c2.16,2.15,4.45,4.9,5.01,8.84
	l0.07,1.47l-0.13,1.24c-0.09,0.82-0.17,1.64-0.43,2.42c-0.38,1.59-1.02,3.09-1.76,4.45c-1.48,2.74-3.43,4.95-5.01,6.99
	c-0.76,1-1.49,2.02-1.71,2.76c-0.19,0.76-0.33,1.14,0.24,1.92c0.98,1.54,3.45,3,5.67,4.25c2.29,1.27,4.76,2.34,7.26,3.42
	c2.5,1.1,5.07,2.16,7.56,3.68c1.22,0.78,2.47,1.63,3.46,2.88c1.08,1.15,1.65,2.77,1.89,4.33c0.21,3.21-1.18,5.91-2.5,8.3
	c-1.34,2.43-2.88,4.74-4.55,6.92c-1.58,2.21-3.58,4.22-4.57,6.64c-0.5,1.21-0.14,2.58,0.78,3.56c0.86,1.03,2.02,1.79,3.15,2.55
	c-1.18-0.68-2.39-1.35-3.36-2.36c-1.03-0.92-1.59-2.51-1.11-3.91c0.91-2.73,2.78-4.81,4.19-7.12c1.49-2.27,2.84-4.61,3.97-7.04
	c1.15-2.41,2.11-4.95,1.77-7.27c-0.38-2.27-2.27-3.89-4.53-5.07c-2.27-1.19-4.83-2.05-7.39-2.98c-2.57-0.92-5.2-1.84-7.78-3.05
	c-1.3-0.57-2.55-1.24-3.83-2.01c-1.27-0.79-2.58-1.68-3.72-3.14c-1.27-1.32-1.74-3.99-1.17-5.79c0.5-1.91,1.41-3.15,2.19-4.39
	c1.62-2.37,3.15-4.42,4.12-6.58c0.49-1.07,0.86-2.14,1.03-3.22c0.15-0.53,0.15-1.08,0.17-1.62l0.04-0.8
	c-0.04-0.19-0.07-0.38-0.08-0.57c-0.31-1.53-1.67-3.29-3.47-4.8c-3.66-3.05-8.47-5.35-13.29-7.33c-4.85-1.94-17.42-9.18-22.4-10.46
	L528.79,479.67z"/>
<path class="st7" d="M529.62,677.98l49.66,65.46c0,0-49.05,88.37-41.51,115.87c7.53,27.5-40.02,323.31-40.02,323.31
	s-41.4,9.78-91.73-12.71c0,0,13.18-168.17,0-231.72c-13.18-63.55,80.47-144.7,80.47-144.7l-22.72-105.11c0,0,9.65-34.17,24.61-45.44
	L529.62,677.98z"/>
<path class="st10" d="M501.19,739.31c0,0,59.73,63.91,79.8,79.85c0,0,74.03-47.98,103.81-97.14c0,0,23.98,4.87,40.09,4.25
	c16.11-0.63,42.19-14.08,42.19-14.08l-0.28-2.95c0,0,7.59-5.25,7.56-7.92c-0.03-2.67-4.46-2.92-4.46-2.92s3.5-2.78,3.7-5.25
	c0.2-2.47-3.54-2.34-8.7-0.96c-5.16,1.38-10.69,5.91-10.69,5.91l-7.53,2.05c0,0,19.26-10.95,21.68-15.64c0,0-3.41-3.47-16.83,1.58
	c-13.42,5.05-16.01,7.97-16.01,7.97s-31.1,2.26-46.31-7.01c0,0,3.09-6.98,8.84-11.53c5.75-4.55,10.23-6.09,10.23-6.09l8.53-12.95
	c0,0-22.76,9.39-32.39,14.75c-9.64,5.36-12.62,6.54-14.91,10.32c-2.29,3.78,1.6,12.33,4.33,27.23c0,0-21.03,29.62-45.34,43.05
	c-24.32,13.43-39.49,19.95-47.78,25.63c0,0-19.9-25.26-34.46-50.19C546.27,727.28,508.12,723.95,501.19,739.31z"/>
<polygon class="st18" points="498.5,749.42 483.21,721.3 491.02,754.36 "/>
<path class="st7" d="M535.76,677.98l51.72,65.46l-49.72,115.87l-11.61,325.43l19.92-3.58c0,0,37.63-229.8,27.25-267.06
	c-10.38-37.26-25.48-48.07-25.26-58.07c0.21-9.99,51.58-117.42,51.58-117.42l-77.18-85.6l12.44,22.98L535.76,677.98z"/>
<path class="st8" d="M778.8,783.96l10.74-26.65l15.77-11.73c0,0-6.6-2.93-12.83,0c-6.23,2.93-12.47,7.09-12.47,7.09l-7.37,15.07
	l1.72,18.27L778.8,783.96z"/>
<path class="st5" d="M491.02,754.36l7.47-4.94c0,0,73.45,74.74,81.01,87.85c0,0,108.7-105.43,104.68-106.82
	c-8.76-3.03-13.31-6.59-19.31-14.45l-83.9,56.86l-31.16-45.2c0,0-21.5-34.97-31.58-49.62c-10.08-14.65-43.61-8.82-43.61-8.82
	s-9.5,12.26-7.95,22.34C468.23,701.63,483.58,743.25,491.02,754.36z"/>
<path class="st7" d="M580.97,772.86c0,0-5.39,3.63-5.64,13.46c0,0,9.62-14.93,24.32-19.67
	C599.65,766.65,589.22,768.37,580.97,772.86z"/>
<path class="st3" d="M1307.24,401.11h-250.3v-99.27c0-18.44,14.95-33.39,33.39-33.39h183.51c18.44,0,33.39,14.95,33.39,33.39V401.11
	z"/>
<path class="st2" d="M1178.67,217.59c-14.05,0-25.41,11.39-25.41,25.41c0,14.05,11.36,25.45,25.41,25.45
	c14.05,0,25.41-11.39,25.41-25.45C1204.08,228.98,1192.72,217.59,1178.67,217.59z M1178.67,264.7c-11.96,0-21.66-9.74-21.66-21.7
	c0-11.92,9.71-21.66,21.66-21.66s21.66,9.74,21.66,21.66C1200.33,254.96,1190.62,264.7,1178.67,264.7z"/>
<circle class="st0" cx="1925.38" cy="166.94" r="97.76"/>
<ellipse transform="matrix(0.7071 -0.7071 0.7071 0.7071 -198.9487 196.7916)" class="st0" cx="138.07" cy="338.55" rx="97.76" ry="97.76"/>
<ellipse transform="matrix(0.7071 -0.7071 0.7071 0.7071 -212.1668 1615.7192)" class="st0" cx="1844.26" cy="1063.97" rx="97.76" ry="97.76"/>
<ellipse transform="matrix(0.4517 -0.8922 0.8922 0.4517 -967.7225 884.6396)" class="st0" cx="235.83" cy="1229.6" rx="48.88" ry="48.88"/>
<circle class="st0" cx="1804.96" cy="324.15" r="39.87"/>
<ellipse transform="matrix(0.7071 -0.7071 0.7071 0.7071 -1097.399 550.3869)" class="st0" cx="115.68" cy="1599.87" rx="93.66" ry="93.66"/>
<g>
	<path class="st2" d="M928.82,471.05c-1.8,0-3.26,1.46-3.26,3.26v5.45c0,1.8,1.46,3.26,3.26,3.26h66.44c1.8,0,3.26-1.46,3.26-3.26
		v-5.45c0-1.8-1.46-3.26-3.26-3.26H928.82z"/>
	<path class="st2" d="M998.52,510.15v-5.45c0-1.8-1.46-3.26-3.26-3.26h-66.44c-1.8,0-3.26,1.46-3.26,3.26v5.45
		c0,1.8,1.46,3.26,3.26,3.26h66.44C997.06,513.41,998.52,511.95,998.52,510.15z"/>
	<path class="st2" d="M925.58,535.07v5.49c0,1.76,1.46,3.22,3.22,3.22h49.11v-9.32c0-0.91,0.1-1.76,0.2-2.62h-49.31
		C927.04,531.85,925.58,533.31,925.58,535.07z"/>
	<path class="st2" d="M903.82,566.81V445.06h12.69v-11.89h-13.2c-6.3,0-11.33,5.14-11.33,11.33v122.8c0,6.25,5.04,11.33,11.33,11.33
		h79.54c-1.81-3.68-3.22-7.61-4.03-11.84H903.82z"/>
	<path class="st2" d="M1019.83,502.03c1.81-0.86,3.88-1.26,6.04-1.16c2.12,0.1,4.08,0.55,5.84,1.36V444.5
		c0-6.2-5.04-11.33-11.33-11.33h-13.95v11.89h13.4V502.03z"/>
	<path class="st2" d="M929.87,449.14h63.22c2.47,0,4.48-1.96,4.48-4.43v-17.98c0-2.47-2.02-4.43-4.48-4.43h-10.43
		c-0.55-11.28-9.77-20.25-21.16-20.25c-11.43,0-20.65,8.97-21.16,20.25h-10.48c-2.47,0-4.43,1.96-4.43,4.43v17.98
		C925.43,447.17,927.4,449.14,929.87,449.14z M961.5,415.19c4.43,0,8.06,3.63,8.06,8.06c0,4.48-3.63,8.11-8.06,8.11
		c-4.48,0-8.11-3.63-8.11-8.11C953.39,418.82,957.02,415.19,961.5,415.19z"/>
	<path class="st19" d="M1058.63,528.7c-21.27-2.17-27.57-14.08-27.89-14.7c-0.96-2-2.99-3.28-5.22-3.28c-2.25,0-4.29,1.3-5.24,3.33
		c-0.06,0.12-6.41,12.45-27.86,14.65c-2.95,0.3-5.2,2.79-5.2,5.76v23.2c0,28.85,34.21,46.75,35.66,47.49
		c0.83,0.43,1.74,0.64,2.65,0.64s1.82-0.21,2.65-0.64c1.46-0.75,35.66-18.65,35.66-47.49v-23.2
		C1063.84,531.49,1061.59,529,1058.63,528.7z M1040.39,564.06h-9.07v9.07c0,3.2-2.59,5.79-5.79,5.79c-3.2,0-5.79-2.59-5.79-5.79
		v-9.07h-9.07c-3.2,0-5.79-2.59-5.79-5.79s2.59-5.79,5.79-5.79h9.07v-9.07c0-3.2,2.59-5.79,5.79-5.79c3.2,0,5.79,2.59,5.79,5.79
		v9.07h9.07c3.2,0,5.79,2.59,5.79,5.79S1043.59,564.06,1040.39,564.06z"/>
</g>
<g>
	<g>
		<path class="st2" d="M1399.79,575.56c-11.3,10.91-26.16,16.95-41.86,16.95c-33.27,0-60.28-27.08-60.28-60.28
			c0-18.96,8.98-36.83,24.14-48.21l2.17,20.51c-6.42,7.82-9.83,17.57-9.83,27.7c0,24.14,19.66,43.8,43.8,43.8
			c14.39,0,27.62-6.89,35.83-18.65L1399.79,575.56z"/>
		<path class="st2" d="M1349.93,448.18c12.88,0,23.33-10.44,23.33-23.32c0-12.88-10.44-23.32-23.33-23.32s-23.32,10.44-23.32,23.32
			C1326.61,437.74,1337.05,448.18,1349.93,448.18z"/>
		<g>
			<path class="st2" d="M1439.73,566.29h-6.18l-14.92-45.2c-1.63-4.95-6.25-8.29-11.46-8.29h-32.98l-1.61-18.99h21.24
				c5.32,0,9.64-4.32,9.64-9.64l0,0c0-5.32-4.32-9.64-9.64-9.64h-24l-0.83-7.27c-0.7-6.1-5.85-10.7-11.99-10.7h-13.6
				c-1.81,0-3.64,0.31-5.28,1.07c-4.91,2.29-7.53,7.28-6.99,12.28l6.03,56.24c0.66,6.13,5.83,10.78,12,10.78h49.28l14.92,45.2
				c1.63,4.95,6.25,8.29,11.46,8.29h15.41c6.79,0,12.27-5.61,12.06-12.44C1452.1,571.38,1446.34,566.29,1439.73,566.29z"/>
		</g>
	</g>
	<path class="st19" d="M1460.63,417.22c-19.49-1.53-25.2-12.32-25.47-12.87c-0.83-1.72-2.57-2.79-4.48-2.81
		c-1.91,0-3.71,1.08-4.57,2.8c-0.23,0.45-5.89,11.34-25.48,12.88c-1.8,0.14-3.24,1.58-3.24,3.38l0,21.64
		c0,25.03,29.69,40.57,30.95,41.22c0.72,0.37,1.51,0.55,2.3,0.55c0.79,0,1.58-0.19,2.3-0.55c1.26-0.65,30.95-16.18,30.95-41.22
		l0-21.64C1463.88,418.8,1462.44,417.36,1460.63,417.22z M1447.49,438.58l-17.47,17.47c-0.98,0.98-2.27,1.47-3.55,1.47
		c-1.29,0-2.57-0.49-3.55-1.47l-9.14-9.14c-1.96-1.96-1.96-5.15,0-7.11c1.96-1.96,5.14-1.96,7.11,0l5.58,5.58l13.92-13.92
		c1.96-1.96,5.14-1.96,7.11,0C1449.45,433.44,1449.45,436.62,1447.49,438.58z"/>
</g>
<g>
	<g>
		<path class="st2" d="M1441.05,721.46c-47.04-4.79-60.74-31.83-61.32-33.03c-1.09-2.29-3.39-3.75-5.91-3.75
			c-2.55,0-4.87,1.48-5.94,3.78c-0.13,0.29-13.73,28.16-61.32,33c-3.33,0.36-5.89,3.18-5.89,6.54v47.49
			c0,55.87,67.28,91.06,70.15,92.55c0.94,0.47,1.95,0.7,3,0.7c1.02,0,2.03-0.23,3-0.7c1.82-0.94,29.33-15.34,49.33-39.91
			c-0.86,0.21-1.77,0.31-2.71,0.31c-4.12,0-7.97-2.19-10.13-5.6c-14.46,16.51-32.48,27.79-39.52,31.86
			c-12.53-7.22-60.01-37.38-60.01-79.21v-41.7c33.86-4.92,51.76-20.68,60.04-30.81c8.26,10.13,26.15,25.89,60.01,30.81v27.53
			c2.06-1.59,4.61-2.53,7.32-2.53c2.06,0,4.04,0.55,5.78,1.54v-32.33C1446.94,724.63,1444.41,721.82,1441.05,721.46z"/>
	</g>
	<path class="st2" d="M1415.55,765.11c-0.68-6.82-4.35-12.95-10.13-16.83c-8.93-6.02-21.28-4.53-29.33,3.54l-2.32,2.29l-2.5-2.5
		c-3.31-3.31-7.45-5.76-12.03-6.67c-9.38-1.82-18.44,2.16-23.57,9.79c-6.02,8.93-4.53,21.28,3.54,29.33l32.98,32.98
		c0.89,0.89,2.29,0.89,3.18,0l12.84-12.84c-3.8-2.03-6.38-6.02-6.38-10.6c0-6.62,5.37-11.98,11.96-11.98h16.83
		C1414.35,777.02,1416.12,771.1,1415.55,765.11z"/>
	<g>
		<path class="st19" d="M1471.68,783.47c-4.11,0-7.63,2.46-9.22,5.97h-9.6l-7.82-20.19c-0.62-1.61-2.16-2.66-3.88-2.66
			c-1.72,0-3.26,1.06-3.88,2.66l-13.82,35.68l-4.97-12.83c-0.62-1.61-2.16-2.66-3.88-2.66h-20.81c-2.3,0-4.16,1.87-4.16,4.16
			s1.86,4.16,4.16,4.16h17.96l7.82,20.19c0.62,1.61,2.16,2.66,3.88,2.66c1.72,0,3.26-1.06,3.88-2.66l13.82-35.68l4.97,12.83
			c0.62,1.61,2.16,2.66,3.88,2.66h12.45c1.59,3.52,5.11,5.97,9.22,5.97c5.6,0,10.14-4.54,10.14-10.14
			C1481.81,788.01,1477.27,783.47,1471.68,783.47z"/>
	</g>
</g>
<g>
	<path class="st2" d="M1445.46,1224.13c-48.47-4.96-62.55-32.96-63.14-34.2c-0.88-1.85-2.75-3.03-4.81-3.04c-0.01,0-0.02,0-0.03,0
		c-2.05,0-3.93,1.19-4.83,3.04c-0.57,1.19-14.63,29.24-63.15,34.2c-2.73,0.28-4.8,2.58-4.8,5.32v48.11
		c0,55.81,67.47,91.09,70.34,92.57c0.77,0.39,1.61,0.59,2.44,0.59s1.68-0.2,2.44-0.59c2.87-1.48,70.34-36.76,70.34-92.57v-48.11
		C1450.26,1226.71,1448.19,1224.41,1445.46,1224.13z M1406.38,1290.77c-2.25,5.93-2.84,9.4-5.51,20.62
		c-1.48,6.21-4.61,13.46-11.06,13.46c-6.44,0-5.95-17.11-7.41-24.52c-0.67-3.42-1.81-5-2.94-6.38c-1.02-1.26-2.95-1.26-3.97,0
		c-1.12,1.38-2.26,2.95-2.93,6.38c-1.46,7.41-0.97,24.52-7.41,24.52c-6.44,0-9.58-7.25-11.06-13.46c-2.67-11.23-3.26-14.7-5.5-20.62
		c-3.72-9.82-8.23-15.24-8.23-23.33c0-14.75,10.68-26.65,24.67-25.72c2.68,0.17,5.3,0.84,7.75,1.9c3.01,1.31,6.41,1.31,9.42,0
		c2.45-1.07,5.06-1.73,7.74-1.9c13.99-0.93,24.67,10.97,24.67,25.72C1414.6,1275.53,1410.1,1280.95,1406.38,1290.77z"/>
	<path class="st19" d="M1390.22,1263.45h-7.63v-7.63c0-1.08-0.88-1.96-1.96-1.96h-6.32c-1.08,0-1.96,0.88-1.96,1.96v7.63h-7.63
		c-1.08,0-1.95,0.87-1.95,1.95v6.32c0,1.08,0.87,1.95,1.95,1.95h7.63v7.63c0,1.08,0.87,1.95,1.96,1.95h6.32
		c1.08,0,1.96-0.88,1.96-1.95v-7.63h7.63c1.08,0,1.96-0.87,1.96-1.95v-6.32C1392.18,1264.32,1391.31,1263.45,1390.22,1263.45z"/>
</g>
<g>
	<path class="st2" d="M1512.86,1045.09h-8.18l-8.63-24.05c-1.16-3.42-4.22-5.86-7.81-6.2c-9.54-0.88-49.89-0.88-59.42,0
		c-3.59,0.34-6.65,2.77-7.78,6.2l-8.66,24.05h-8.15c-1.53,0-2.74,1.24-2.74,2.75v5.32l2.89,0.88c7.27,2.24,11.43,9.76,9.48,17.15
		l-5.32,19.75c0.4,0.34,0.88,0.62,1.39,0.79v12.82c0,2.43,1.98,4.41,4.41,4.41h9.34c2.43,0,4.41-1.98,4.41-4.41v-12.73h60.9v12.73
		c0,2.43,1.98,4.41,4.41,4.41h9.37c2.43,0,4.41-1.98,4.41-4.41v-12.82c1.05-0.37,1.92-1.1,2.46-2.07c0.37-0.65,0.59-1.39,0.59-2.18
		v-23.18c0-2.49-0.45-5.01-1.3-7.36h3.93c1.5,0,2.72-1.22,2.72-2.74v-6.37C1515.58,1046.33,1514.36,1045.09,1512.86,1045.09z
		 M1431.22,1025.9c8.72-0.76,45.93-0.76,54.61,0l8.4,23.37h-71.42L1431.22,1025.9z M1438.89,1073.61c0,2.35-1.92,4.27-4.3,4.27
		h-10.44c-2.38,0-4.3-1.92-4.3-4.27v-2.97c0-2.35,1.92-4.27,4.3-4.27h10.44c2.38,0,4.3,1.92,4.3,4.27V1073.61z M1497.21,1073.61
		c0,2.35-1.92,4.27-4.3,4.27h-10.44c-2.38,0-4.27-1.92-4.27-4.27v-2.97c0-2.35,1.9-4.27,4.27-4.27h10.44c2.38,0,4.3,1.92,4.3,4.27
		V1073.61z"/>
	<path class="st19" d="M1351.36,1010.24l23.23,11.5c0.58,0.28,1.19,0.44,1.79,0.47c1.75,0.09,3.47-0.85,4.3-2.53
		c1.11-2.25,0.19-4.98-2.06-6.09l-13.87-6.86l6.18-2.34c1.21-0.46,2.17-1.41,2.64-2.62c0.46-1.21,0.39-2.56-0.2-3.71l-5.51-10.74
		l9.31,3.63c1.19,0.46,2.52,0.41,3.66-0.15c1.15-0.57,2-1.58,2.36-2.8l3.71-12.65l3.59,9.98c0.44,1.21,1.36,2.18,2.55,2.67
		c1.19,0.5,2.53,0.45,3.69-0.1l11.63-5.58l-3.78,13.03c-0.7,2.41,0.68,4.93,3.09,5.64l4.71,1.38l-13.48,8.16
		c-2.15,1.3-2.84,4.1-1.53,6.25c1.3,2.15,4.1,2.84,6.25,1.53l22.33-13.52c1.54-0.93,2.39-2.69,2.15-4.48
		c-0.24-1.78-1.5-3.27-3.23-3.78l-10.28-3l5.35-18.43c0.5-1.73-0.06-3.58-1.43-4.74c-1.37-1.16-3.29-1.41-4.91-0.63l-16.25,7.79
		l-6.61-18.37c-0.67-1.85-2.46-2.96-4.42-3.01c-1.97,0.06-3.68,1.38-4.23,3.27l-6.24,21.28l-15.87-6.19
		c-1.76-0.68-3.76-0.2-5.03,1.19c-1.27,1.41-1.53,3.44-0.67,5.13l8.66,16.88l-11.19,4.23c-1.69,0.64-2.85,2.22-2.93,4.03
		C1348.74,1007.75,1349.73,1009.44,1351.36,1010.24z"/>
	<path class="st2" d="M1402.71,1059.44l-37.52-11.57l-17.36-27.14c-3.22-4.99-8.4-8.43-14.26-9.43l-38.09-6.47
		c-6.23-1.06-12.58,1.29-16.6,6.15l-16.19,19.48l-13.52-1.39c-4.71-0.46-8.87,2.98-9.29,7.65l-2.18,24.61
		c-0.4,4.38,2.66,8.32,7.01,9.06l5.67,0.96c-0.49,9.8,6.34,18.69,16.25,20.37c9.91,1.68,19.29-4.45,22.07-13.86l61.46,10.43
		c-0.49,9.81,6.34,18.69,16.25,20.37c9.91,1.68,19.29-4.44,22.07-13.86l5.02,0.85c4.28,0.73,8.43-1.92,9.56-6.14l5.32-19.82
		C1409.55,1065.31,1407.08,1060.78,1402.71,1059.44z M1280.16,1074.08c-0.96,5.64-6.33,9.46-11.97,8.5
		c-5.64-0.96-9.46-6.33-8.5-11.97c0.96-5.64,6.33-9.46,11.97-8.5C1277.31,1063.06,1281.12,1068.43,1280.16,1074.08z
		 M1303.39,1037.03l-27.79-4.72l11.83-14.19c1.51-1.82,3.89-2.69,6.19-2.3l13.15,2.23L1303.39,1037.03z M1314.38,1038.9l3.37-18.98
		l13.95,2.37c2.75,0.47,5.22,2.09,6.74,4.46l11.67,18.22L1314.38,1038.9z M1379.94,1091.02c-0.96,5.64-6.33,9.46-11.97,8.5
		c-5.64-0.96-9.46-6.33-8.5-11.97c0.96-5.64,6.33-9.46,11.97-8.5C1377.09,1080,1380.9,1085.38,1379.94,1091.02z"/>
</g>
<g>
	<g>
		<path d="M848.87,664.4v-41.6h8.37v41.6H848.87z M850.2,647.26v-7.15h27.74v7.15H850.2z M870.74,664.4v-41.6h8.37v41.6H870.74z"/>
		<path d="M887.54,664.4v-41.6h8.37v41.6H887.54z M887.54,629.92v-7.12h30.88v7.12H887.54z M887.54,647.15V640h25.17v7.15H887.54z
			 M887.54,664.4v-7.12h30.88v7.12H887.54z"/>
		<path d="M921.94,664.4l13-41.6h10.27l13,41.6h-9.04l-8.81-31.44h-0.57l-8.81,31.44H921.94z M928.5,656.52v-7.15h22.83v7.15H928.5z
			"/>
		<path d="M963.63,664.4v-41.6H972v41.6H963.63z M963.63,664.4v-7.12h30.88v7.12H963.63z"/>
		<path d="M999.13,629.92v-7.12h34.05v7.12H999.13z M1011.97,664.4v-41.6h8.37v41.6H1011.97z"/>
		<path d="M1039.08,664.4v-41.6h8.37v41.6H1039.08z M1040.41,647.26v-7.15h27.74v7.15H1040.41z M1060.95,664.4v-41.6h8.37v41.6
			H1060.95z"/>
	</g>
</g>
<g id="g28214" transform="matrix(0.16332255,0,0,0.16332255,3980.7944,-4216.5187)">
	<path id="path28164" class="st19" d="M-19125.48,31838.12c-12.1,0.2-22.93,11.28-22.74,23.29v726.75
		c-0.09,6.06,2.37,12.11,6.65,16.43c4.29,4.32,10.35,6.84,16.45,6.84c6.1,0,12.17-2.52,16.45-6.84c4.29-4.32,6.74-10.37,6.65-16.43
		V32414c448.99,0,897.99,0,1346.98,0v174.16c-0.09,6.06,2.37,12.11,6.65,16.43c4.29,4.32,10.35,6.84,16.45,6.84
		c6.1,0,12.16-2.52,16.45-6.84c4.29-4.32,6.74-10.37,6.65-16.43v-726.75c0.09-6.13-2.4-12.25-6.76-16.57
		c-4.36-4.33-10.53-6.81-16.7-6.72c-12.1,0.2-22.94,11.28-22.74,23.29v506.72c-448.99,0-897.98,0-1346.98,0v-506.72
		c0.09-6.13-2.4-12.25-6.76-16.58C-19113.14,31840.51-19119.32,31838.03-19125.48,31838.12z"/>
	<path id="path28186" class="st2" d="M-18860.89,31933.98c-106.15,0-192.76,85.92-192.76,191.37
		c0,105.39,86.62,191.27,192.76,191.27c39.68,0,76.67-11.98,107.39-32.52h938c12.76,0,23.11-10.26,23.12-22.93
		c0-6.97-3.19-13.57-8.68-17.93c-111.42-88.25-286.27-144.87-483.62-144.87c-150.16,0-287.27,32.9-393.37,87.53
		c6.43-19.04,9.92-39.41,9.92-60.56C-18668.13,32019.91-18754.74,31933.98-18860.89,31933.98z"/>
</g>
<g id="g32509" transform="matrix(0.16700838,0,0,0.16700838,3094.2688,-3132.7354)">
	<path id="path80" class="st2" d="M-12786.19,26481.24c31.43,6.86,54.95,34.56,54.95,67.69c0,1.39-0.08,2.72-0.16,4.09h96.69
		c3-34.55,33.1-62.33,71.45-66.41v-5.37H-12786.19L-12786.19,26481.24z"/>
	<path id="path100" class="st2" d="M-12869.98,26171.24c-15.18,0-31.83,0.15-49.75,0.15c-104.54,0-324.93,269.5-353.9,298.47
		c-1.31,1.31-2.56,2.8-3.76,4.41c38.76-32.74,85.4-50.72,134.42-60.64c72.29-85.7,166.68-175.51,237.11-175.51
		c130.99,0,149.96-1.3,149.96-34.04C-12755.91,26173.81-12796.57,26171.23-12869.98,26171.24L-12869.98,26171.24z"/>
	<path id="path120" class="st2" d="M-12493.25,26171.24c-73.34,0-114,2.65-114.07,32.84c0,32.75,18.88,34.04,149.87,34.04
		c69.7,0,162.88,88.05,234.87,172.95c44.3,7.69,87.19,21.63,122.96,48.06c-51.78-57.55-247.27-287.74-343.97-287.74
		C-12461.49,26171.4-12478.06,26171.24-12493.25,26171.24L-12493.25,26171.24z"/>
	<path id="path188" class="st2" d="M-12350.38,26457.29c-104.55,0-180.53,15.75-225.83,46.82c-34.98,23.98-51.26,56.33-51.26,101.81
		c0,24.02,5.4,85.39,55.44,136.44c21.9,22.34,49.72,39.91,82.72,52.21c38.58,14.39,84.48,21.69,136.42,21.69
		c97.91,0,169.94-23.3,214.08-69.26c41.96-43.67,51.26-101,51.68-141.39c0.41-39.18-9.55-67.68-31.32-89.68
		C-12156.95,26477.02-12234.98,26457.29-12350.38,26457.29 M-12350.37,26427.06c238.05,0,294.49,81.36,293.47,178.85
		c-1.16,111.31-60.46,240.57-295.99,240.57c-235.53,0-304.81-141.07-304.81-240.57
		C-12657.7,26506.41-12588.42,26427.06-12350.37,26427.06"/>
	<path id="path152" class="st2" d="M-12999.04,26457.29c-104.55,0-180.53,15.75-225.84,46.82c-34.97,23.98-51.26,56.33-51.26,101.81
		c0,24.02,5.4,85.39,55.44,136.44c21.9,22.34,49.73,39.91,82.72,52.21c38.58,14.39,84.48,21.69,136.42,21.69
		c97.91,0,169.94-23.3,214.08-69.26c41.95-43.67,51.26-101,51.68-141.39c0.41-39.18-9.54-67.68-31.32-89.68
		C-12805.61,26477.02-12883.65,26457.29-12999.04,26457.29 M-12999.04,26427.06c238.05,0,294.49,81.36,293.47,178.85
		c-1.16,111.31-60.46,240.57-295.99,240.57c-235.53,0-304.81-141.07-304.81-240.57
		C-13306.37,26506.41-13237.09,26427.06-12999.04,26427.06"/>
</g>
<g>
	<g>
		<path d="M1193.66,665.21v-41.6h8.37v41.6H1193.66z M1201.59,665.21v-7.38h3.52c4.12,0,7.21-1.09,9.27-3.27
			c2.06-2.18,3.09-5.37,3.09-9.57c0-4.61-1.03-8.1-3.09-10.46c-2.06-2.36-5.15-3.54-9.27-3.54h-3.39l-0.76-7.38h4.15
			c14.1,0,21.15,7.13,21.15,21.39c0,13.48-7.05,20.21-21.15,20.21H1201.59z"/>
		<path d="M1232.59,630.55v-6.94h28.47v6.94H1232.59z M1232.59,665.21v-6.97h28.47v6.97H1232.59z M1242.61,665.21v-41.6h8.37v41.6
			H1242.61z"/>
		<path d="M1283.32,665.79c-2.56,0-5.04-0.2-7.45-0.6c-2.41-0.4-4.56-0.96-6.47-1.68l1.14-7.91c2.32,0.9,4.63,1.59,6.93,2.08
			c2.29,0.49,4.41,0.73,6.36,0.73c2.26,0,3.99-0.37,5.2-1.11c1.21-0.74,1.81-1.81,1.81-3.19c0-1.82-1.24-3.26-3.71-4.34l-6.47-2.9
			c-3.19-1.45-5.66-3.23-7.42-5.36c-1.75-2.13-2.63-4.48-2.63-7.06c0-3.63,1.3-6.45,3.9-8.44s6.28-2.99,11.03-2.99
			c2.77,0,5.39,0.45,7.88,1.35c2.48,0.9,4.69,2.2,6.61,3.9l-5.77,6.12c-1.46-1.29-2.93-2.28-4.41-2.97
			c-1.48-0.69-2.91-1.04-4.28-1.04c-1.86,0-3.31,0.37-4.34,1.1c-1.04,0.73-1.55,1.79-1.55,3.18c0,0.92,0.36,1.79,1.09,2.61
			c0.73,0.82,1.77,1.56,3.12,2.23l6.09,2.9c3.17,1.52,5.62,3.3,7.34,5.33c1.72,2.03,2.58,4.21,2.58,6.53c0,3.69-1.44,6.54-4.31,8.54
			C1292.71,664.79,1288.62,665.79,1283.32,665.79z"/>
		<path d="M1304.78,665.21l13-41.6h10.27l13,41.6h-9.04l-8.81-31.44h-0.57l-8.81,31.44H1304.78z M1311.34,657.33v-7.15h22.83v7.15
			H1311.34z"/>
		<path d="M1346.47,665.21v-41.6h8.37v41.6H1346.47z M1352.24,644.76v-2.87h12.49v2.87H1352.24z M1354.39,642.77v-3.11h6.12
			c1.97,0,3.45-0.4,4.45-1.19s1.51-1.96,1.51-3.5c0-1.41-0.53-2.47-1.6-3.18c-1.07-0.71-2.67-1.07-4.8-1.07h-5.55l-0.76-7.12h6.63
			c4.73,0,8.4,0.89,10.98,2.68s3.88,4.33,3.88,7.63c0,2.83-1,5.01-3.01,6.55c-2.01,1.53-4.85,2.3-8.53,2.3H1354.39z M1354.39,665.21
			v-7.12h8.02c2.28,0,4.06-0.5,5.33-1.49s1.9-2.39,1.9-4.19c0-1.78-0.67-3.15-2-4.13c-1.33-0.98-3.22-1.46-5.67-1.46h-7.45
			l-0.76-3.11h12.43c3.91,0,6.93,0.88,9.05,2.64s3.19,4.24,3.19,7.44c0,3.63-1.23,6.45-3.69,8.44c-2.46,1.99-5.96,2.99-10.48,2.99
			H1354.39z"/>
		<path d="M1384.76,630.55v-6.94h28.47v6.94H1384.76z M1384.76,665.21v-6.97h28.47v6.97H1384.76z M1394.78,665.21v-41.6h8.37v41.6
			H1394.78z"/>
		<path d="M1422.55,665.21v-41.6h8.37v41.6H1422.55z M1422.55,665.21v-7.12h30.88v7.12H1422.55z"/>
		<path d="M1460.85,630.55v-6.94h28.47v6.94H1460.85z M1460.85,665.21v-6.97h28.47v6.97H1460.85z M1470.86,665.21v-41.6h8.37v41.6
			H1470.86z"/>
		<path d="M1496.1,630.73v-7.12h34.05v7.12H1496.1z M1508.94,665.21v-41.6h8.37v41.6H1508.94z"/>
		<path d="M1547.46,652.79l-15.06-29.18h9.35l9.13,19.34h0.57l9.13-19.34h9.35l-15.06,29.18H1547.46z M1546.98,665.21V644.7h8.37
			v20.51H1546.98z"/>
	</g>
</g>
<g id="g10214" transform="matrix(0.16281262,0,0,0.16281262,2756.3215,-2206.2458)">
	<path id="rect10152" class="st2" d="M-11533.76,18001.88c-19.59,0-35.36,15.77-35.36,35.36v813.32c0,19.59,15.77,35.36,35.36,35.36
		h1034.33c19.59,0,35.36-15.77,35.36-35.36v-813.32c0-19.59-15.77-35.36-35.36-35.36H-11533.76z M-11460.34,18167.63h406.66
		c9.79,0,17.68,7.89,17.68,17.68v517.17c0,9.79-7.89,17.68-17.68,17.68h-406.66c-9.8,0-17.68-7.88-17.68-17.68v-517.17
		C-11478.03,18175.52-11470.14,18167.63-11460.34,18167.63z M-10913.27,18196.37h327.58c19.59,0,35.36,15.77,35.36,35.36
		c0,19.59-15.77,35.36-35.36,35.36h-327.58c-19.59,0-35.36-15.77-35.36-35.36
		C-10948.63,18212.14-10932.86,18196.37-10913.27,18196.37z M-10913.27,18337.81h327.58c19.59,0,35.36,15.77,35.36,35.36
		s-15.77,35.36-35.36,35.36h-327.58c-19.59,0-35.36-15.78-35.36-35.36S-10932.86,18337.81-10913.27,18337.81z M-10913.27,18479.26
		h327.58c19.59,0,35.36,15.77,35.36,35.36c0,19.59-15.77,35.36-35.36,35.36h-327.58c-19.59,0-35.36-15.77-35.36-35.36
		C-10948.63,18495.03-10932.86,18479.26-10913.27,18479.26z M-10913.27,18620.71h327.58c19.59,0,35.36,15.77,35.36,35.36
		c0,19.59-15.77,35.36-35.36,35.36h-327.58c-19.59,0-35.36-15.77-35.36-35.36
		C-10948.63,18636.48-10932.86,18620.71-10913.27,18620.71z"/>
	<path id="path10173" class="st19" d="M-11257.01,18239.19c-97.36,0-96.21,85.02-96.21,85.02l-0.62,45.1
		c-7.96-0.11-9.81,7.83-9.81,23.55c0,23.56,14.36,48.18,27.42,60.92c4.43,18.52,12.87,34.81,24.24,47.24
		c-0.39,0.25-0.78,0.52-1.17,0.76c-38.8,23.67-85.05,39.71-115.27,55.73c-6.11,3.24-12.75,8.24-18.58,14.57v116.72h379.31v-116.38
		c-5.92-6.51-11.66-11.62-17.89-14.92c-30.22-16.03-76.47-32.07-115.27-55.73c-0.4-0.24-0.84-0.51-1.24-0.76
		c11.38-12.43,19.81-28.72,24.24-47.24c13.06-12.73,27.49-37.36,27.49-60.92c0-15.72-1.93-23.66-9.88-23.55l-0.62-45.1
		C-11160.88,18324.21-11159.66,18239.19-11257.01,18239.19L-11257.01,18239.19z"/>
</g>
<g>
	<g>
		<path d="M835.88,933.96v-41.6h7.21v41.6H835.88z M847.51,919.4L844,899.74h-1.85l0.47-7.38h4.31l3.05,18.6h0.23l0.82,8.44H847.51z
			 M849.21,919.4l0.88-8.44h0.35l3.05-18.6h4.31l0.47,7.38h-1.85l-3.52,19.66H849.21z M857.33,933.96v-41.6h7.21v41.6H857.33z"/>
		<path d="M871.97,933.96v-41.6h7.73v41.6H871.97z M871.97,899.48v-7.12h28.54v7.12H871.97z M871.97,916.71v-7.15h23.26v7.15H871.97
			z M871.97,933.96v-7.12h28.54v7.12H871.97z"/>
		<path d="M906.54,933.96v-41.6h7.73v41.6H906.54z M913.87,933.96v-7.38h3.25c3.81,0,6.67-1.09,8.57-3.27s2.86-5.37,2.86-9.57
			c0-4.61-0.95-8.1-2.86-10.46s-4.76-3.54-8.57-3.54h-3.13l-0.7-7.38h3.84c13.03,0,19.54,7.13,19.54,21.39
			c0,13.48-6.51,20.21-19.54,20.21H913.87z"/>
		<path d="M942.52,899.3v-6.94h26.31v6.94H942.52z M942.52,933.96v-6.97h26.31v6.97H942.52z M951.78,933.96v-41.6h7.73v41.6H951.78z
			"/>
		<path d="M995.17,934.55c-13.26,0-19.89-7.15-19.89-21.45c0-6.78,1.67-12.03,5.01-15.75s8.07-5.58,14.18-5.58
			c2.75,0,5.2,0.44,7.32,1.33c2.13,0.89,3.74,2.15,4.83,3.79l-4.34,5.68c-0.88-1.09-2-1.94-3.35-2.53c-1.36-0.6-2.83-0.89-4.41-0.89
			c-3.36,0-6.05,1.19-8.07,3.56s-3.03,5.74-3.03,10.09c0,9.57,4.25,14.36,12.74,14.36c2.83,0,5.62-0.59,8.38-1.76l1.35,7.15
			C1002.49,933.88,998.92,934.55,995.17,934.55z"/>
		<path d="M1009.23,933.96l12.01-41.6h9.49l12.01,41.6h-8.35l-8.14-31.44h-0.53l-8.14,31.44H1009.23z M1015.29,926.08v-7.15h21.09
			v7.15H1015.29z"/>
		<path d="M1047.17,933.96v-41.6h7.73v41.6H1047.17z M1054.49,918.73v-7.12h7.47c1.8,0,3.19-0.53,4.19-1.6s1.49-2.55,1.49-4.47
			c0-1.93-0.5-3.43-1.49-4.48s-2.39-1.58-4.19-1.58h-7.35l-0.7-7.12h8.06c4.47,0,7.93,1.09,10.37,3.28
			c2.44,2.19,3.66,5.29,3.66,9.32c0,4.36-1.22,7.74-3.66,10.15c-2.44,2.41-5.9,3.62-10.37,3.62H1054.49z M1068.29,933.96
			l-7.85-19.57h8.14l8.94,19.57H1068.29z"/>
		<path d="M1082.91,933.96v-41.6h7.73v41.6H1082.91z M1082.91,899.48v-7.12h28.54v7.12H1082.91z M1082.91,916.71v-7.15h23.26v7.15
			H1082.91z M1082.91,933.96v-7.12h28.54v7.12H1082.91z"/>
	</g>
</g>
<g>
	<g>
		<path d="M1309.26,932.19v-41.6h7.73v41.6H1309.26z M1309.26,932.19v-7.12h28.54v7.12H1309.26z"/>
		<path d="M1344.65,897.54v-6.94h26.31v6.94H1344.65z M1344.65,932.19v-6.97h26.31v6.97H1344.65z M1353.91,932.19v-41.6h7.73v41.6
			H1353.91z"/>
		<path d="M1380.16,932.19v-41.6h7.73v41.6H1380.16z M1380.16,897.71v-7.12h28.54v7.12H1380.16z M1380.16,916.7v-7.18h22.76v7.18
			H1380.16z"/>
		<path d="M1414.73,932.19v-41.6h7.73v41.6H1414.73z M1414.73,897.71v-7.12h28.54v7.12H1414.73z M1414.73,914.94v-7.15h23.26v7.15
			H1414.73z M1414.73,932.19v-7.12h28.54v7.12H1414.73z"/>
	</g>
</g>
<g>
	<g>
		<path d="M855.29,1170.69c-13.26,0-19.89-7.15-19.89-21.45c0-6.78,1.67-12.03,5.01-15.75s8.07-5.58,14.18-5.58
			c2.75,0,5.2,0.44,7.32,1.33c2.13,0.89,3.74,2.15,4.83,3.79l-4.34,5.68c-0.88-1.09-2-1.94-3.35-2.53c-1.36-0.6-2.83-0.89-4.41-0.89
			c-3.36,0-6.05,1.19-8.07,3.56s-3.03,5.74-3.03,10.09c0,9.57,4.25,14.36,12.74,14.36c2.83,0,5.62-0.59,8.38-1.76l1.35,7.15
			C862.61,1170.02,859.04,1170.69,855.29,1170.69z"/>
		<path d="M872.13,1170.1v-41.6h7.73v41.6H872.13z M879.46,1154.87v-7.12h7.47c1.8,0,3.19-0.53,4.19-1.6s1.49-2.55,1.49-4.47
			c0-1.93-0.5-3.43-1.49-4.48s-2.39-1.58-4.19-1.58h-7.35l-0.7-7.12h8.06c4.47,0,7.93,1.09,10.37,3.28
			c2.44,2.19,3.66,5.29,3.66,9.32c0,4.36-1.22,7.74-3.66,10.15c-2.44,2.41-5.9,3.62-10.37,3.62H879.46z M893.25,1170.1l-7.85-19.57
			h8.14l8.94,19.57H893.25z"/>
		<path d="M908.11,1135.44v-6.94h26.31v6.94H908.11z M908.11,1170.1v-6.97h26.31v6.97H908.11z M917.37,1170.1v-41.6h7.73v41.6
			H917.37z"/>
		<path d="M940.69,1135.62v-7.12h31.46v7.12H940.69z M952.55,1170.1v-41.6h7.73v41.6H952.55z"/>
		<path d="M978.42,1135.44v-6.94h26.31v6.94H978.42z M978.42,1170.1v-6.97h26.31v6.97H978.42z M987.68,1170.1v-41.6h7.73v41.6
			H987.68z"/>
		<path d="M1031.07,1170.69c-13.26,0-19.89-7.15-19.89-21.45c0-6.78,1.67-12.03,5.01-15.75s8.07-5.58,14.18-5.58
			c2.75,0,5.2,0.44,7.32,1.33c2.13,0.89,3.74,2.15,4.83,3.79l-4.34,5.68c-0.88-1.09-2-1.94-3.35-2.53c-1.36-0.6-2.83-0.89-4.41-0.89
			c-3.36,0-6.05,1.19-8.07,3.56c-2.02,2.37-3.03,5.74-3.03,10.09c0,9.57,4.25,14.36,12.74,14.36c2.83,0,5.62-0.59,8.38-1.76
			l1.35,7.15C1038.39,1170.02,1034.82,1170.69,1031.07,1170.69z"/>
		<path d="M1045.13,1170.1l12.01-41.6h9.49l12.01,41.6h-8.35l-8.14-31.44h-0.53l-8.14,31.44H1045.13z M1051.19,1162.22v-7.15h21.09
			v7.15H1051.19z"/>
		<path d="M1083.66,1170.1v-41.6h7.73v41.6H1083.66z M1083.66,1170.1v-7.12h28.54v7.12H1083.66z"/>
	</g>
</g>
<g>
	<g>
		<path d="M1240.29,1170.73l12.01-41.6h9.49l12.01,41.6h-8.35l-8.14-31.44h-0.53l-8.14,31.44H1240.29z M1246.35,1162.85v-7.15h21.09
			v7.15H1246.35z"/>
		<path d="M1296.54,1171.32c-13.26,0-19.89-7.15-19.89-21.45c0-6.78,1.67-12.03,5.01-15.75s8.07-5.58,14.18-5.58
			c2.75,0,5.2,0.44,7.32,1.33c2.13,0.89,3.74,2.15,4.83,3.79l-4.34,5.68c-0.88-1.09-2-1.94-3.35-2.53c-1.36-0.6-2.83-0.89-4.41-0.89
			c-3.36,0-6.05,1.19-8.07,3.56s-3.03,5.74-3.03,10.09c0,9.57,4.25,14.36,12.74,14.36c2.83,0,5.62-0.59,8.38-1.76l1.35,7.15
			C1303.86,1170.65,1300.29,1171.32,1296.54,1171.32z"/>
		<path d="M1331.69,1171.32c-13.26,0-19.89-7.15-19.89-21.45c0-6.78,1.67-12.03,5.01-15.75s8.07-5.58,14.18-5.58
			c2.75,0,5.2,0.44,7.32,1.33c2.13,0.89,3.74,2.15,4.83,3.79l-4.34,5.68c-0.88-1.09-2-1.94-3.35-2.53c-1.36-0.6-2.83-0.89-4.41-0.89
			c-3.36,0-6.05,1.19-8.07,3.56s-3.03,5.74-3.03,10.09c0,9.57,4.25,14.36,12.74,14.36c2.83,0,5.62-0.59,8.38-1.76l1.35,7.15
			C1339.02,1170.65,1335.44,1171.32,1331.69,1171.32z"/>
		<path d="M1349.36,1136.07v-6.94h26.31v6.94H1349.36z M1349.36,1170.73v-6.97h26.31v6.97H1349.36z M1358.62,1170.73v-41.6h7.73
			v41.6H1358.62z"/>
		<path d="M1383.69,1170.73v-41.6h7.73v41.6H1383.69z M1391.02,1170.73v-7.38h3.25c3.81,0,6.67-1.09,8.57-3.27s2.86-5.37,2.86-9.57
			c0-4.61-0.95-8.1-2.86-10.46s-4.76-3.54-8.57-3.54h-3.13l-0.7-7.38h3.84c13.03,0,19.54,7.13,19.54,21.39
			c0,13.48-6.51,20.21-19.54,20.21H1391.02z"/>
		<path d="M1419.44,1170.73v-41.6h7.73v41.6H1419.44z M1419.44,1136.25v-7.12h28.54v7.12H1419.44z M1419.44,1153.47v-7.15h23.26
			v7.15H1419.44z M1419.44,1170.73v-7.12h28.54v7.12H1419.44z"/>
		<path d="M1454.24,1170.73v-41.6h7.44v41.6H1454.24z M1470.09,1170.73l-7.32-32.52h-3.19v-9.08h6.3l7.32,32.52h1.96v9.08H1470.09z
			 M1474.28,1170.73v-41.6h7.44v41.6H1474.28z"/>
		<path d="M1487.4,1136.25v-7.12h31.46v7.12H1487.4z M1499.27,1170.73v-41.6h7.73v41.6H1499.27z"/>
	</g>
</g>
<g>
	<g>
		<path d="M881.83,1433.29l-10.75-41.6h8l8.5,34.66h0.53l8.5-34.66h8l-10.75,41.6H881.83z"/>
		<path d="M909.84,1398.63v-6.94h26.31v6.94H909.84z M909.84,1433.29v-6.97h26.31v6.97H909.84z M919.09,1433.29v-41.6h7.73v41.6
			H919.09z"/>
		<path d="M956.71,1433.87c-2.36,0-4.66-0.2-6.88-0.6s-4.22-0.96-5.98-1.68l1.05-7.91c2.15,0.9,4.28,1.59,6.4,2.08
			c2.12,0.49,4.08,0.73,5.87,0.73c2.09,0,3.69-0.37,4.8-1.11s1.67-1.81,1.67-3.19c0-1.82-1.14-3.26-3.43-4.34l-5.98-2.9
			c-2.95-1.45-5.23-3.23-6.86-5.36c-1.62-2.13-2.43-4.48-2.43-7.06c0-3.63,1.2-6.45,3.6-8.44s5.8-2.99,10.2-2.99
			c2.56,0,4.98,0.45,7.28,1.35c2.29,0.9,4.33,2.2,6.11,3.9l-5.33,6.12c-1.35-1.29-2.71-2.28-4.07-2.97
			c-1.37-0.69-2.69-1.04-3.96-1.04c-1.72,0-3.06,0.37-4.01,1.1c-0.96,0.73-1.44,1.79-1.44,3.18c0,0.92,0.34,1.79,1.01,2.61
			s1.64,1.56,2.89,2.23l5.62,2.9c2.93,1.52,5.19,3.3,6.78,5.33c1.59,2.03,2.39,4.21,2.39,6.53c0,3.69-1.33,6.54-3.98,8.54
			C965.39,1432.87,961.61,1433.87,956.71,1433.87z"/>
		<path d="M980.15,1398.63v-6.94h26.31v6.94H980.15z M980.15,1433.29v-6.97h26.31v6.97H980.15z M989.41,1433.29v-41.6h7.73v41.6
			H989.41z"/>
		<path d="M1028.46,1433.87c-10.57,0-15.85-7.03-15.85-21.09c0-14.45,5.28-21.68,15.85-21.68c10.57,0,15.85,7.23,15.85,21.68
			C1044.31,1426.84,1039.03,1433.87,1028.46,1433.87z M1028.46,1426.49c5.16,0,7.73-4.57,7.73-13.71c0-9.53-2.58-14.3-7.73-14.3
			c-5.16,0-7.73,4.77-7.73,14.3C1020.72,1421.92,1023.3,1426.49,1028.46,1426.49z"/>
		<path d="M1049.88,1433.29v-41.6h7.44v41.6H1049.88z M1065.72,1433.29l-7.32-32.52h-3.19v-9.08h6.3l7.32,32.52h1.96v9.08H1065.72z
			 M1069.91,1433.29v-41.6h7.44v41.6H1069.91z"/>
	</g>
</g>
<g>
	<g>
		<path d="M1272.25,1431.22v-41.6h7.73v41.6H1272.25z M1279.58,1431.22v-7.38h3.25c3.81,0,6.67-1.09,8.57-3.27s2.86-5.37,2.86-9.57
			c0-4.61-0.95-8.1-2.86-10.46s-4.76-3.54-8.57-3.54h-3.13l-0.7-7.38h3.84c13.03,0,19.54,7.13,19.54,21.39
			c0,13.48-6.51,20.21-19.54,20.21H1279.58z"/>
		<path d="M1308,1431.22v-41.6h7.73v41.6H1308z M1308,1396.74v-7.12h28.54v7.12H1308z M1308,1413.96v-7.15h23.26v7.15H1308z
			 M1308,1431.22v-7.12h28.54v7.12H1308z"/>
		<path d="M1342.8,1431.22v-41.6h7.44v41.6H1342.8z M1358.65,1431.22l-7.32-32.52h-3.19v-9.08h6.3l7.32,32.52h1.96v9.08H1358.65z
			 M1362.84,1431.22v-41.6h7.44v41.6H1362.84z"/>
		<path d="M1375.97,1396.74v-7.12h31.46v7.12H1375.97z M1387.83,1431.22v-41.6h7.73v41.6H1387.83z"/>
		<path d="M1410.1,1431.22l12.01-41.6h9.49l12.01,41.6h-8.35l-8.14-31.44h-0.53l-8.14,31.44H1410.1z M1416.16,1423.34v-7.15h21.09
			v7.15H1416.16z"/>
		<path d="M1448.62,1431.22v-41.6h7.73v41.6H1448.62z M1448.62,1431.22v-7.12h28.54v7.12H1448.62z"/>
	</g>
</g>
<ellipse class="st1" cx="1071.61" cy="108.14" rx="586.91" ry="108.14"/>
<g>
	<g>
		<path d="M521.63,119.97l-4.45-41.6h7.62l2.55,34.72h0.82l3.11-24.17h6.86l-2.46,8h-1.17l-2.34,23.06H521.63z M537.19,119.97
			l-2.34-23.06h-1.17l-2.4-8h6.86l3.05,24.17H542l2.55-34.72h7.62l-4.45,41.6H537.19z"/>
		<path d="M572.29,120.55c-5.37,0-9.52-1.39-12.45-4.17s-4.39-6.78-4.39-12c0-5.08,1.25-9.02,3.74-11.84s6-4.22,10.53-4.22
			c4.43,0,7.86,1.3,10.28,3.9c2.42,2.6,3.63,6.38,3.63,11.34c0,1.41-0.06,2.74-0.18,4.01h-22.79v-5.51h15.18
			c0-2.09-0.53-3.69-1.6-4.8c-1.06-1.11-2.55-1.67-4.47-1.67c-2.07,0-3.68,0.74-4.82,2.21c-1.14,1.48-1.71,3.57-1.71,6.28
			c0,2.93,0.84,5.16,2.53,6.68c1.69,1.52,4.1,2.29,7.22,2.29c1.41,0,2.79-0.07,4.16-0.22c1.37-0.15,2.76-0.35,4.19-0.6l0.76,7.5
			c-1.99,0.35-3.81,0.58-5.45,0.67C575.01,120.5,573.56,120.55,572.29,120.55z"/>
		<path d="M640.14,120.55c-10.57,0-15.85-7.03-15.85-21.09c0-14.45,5.28-21.68,15.85-21.68c10.57,0,15.85,7.23,15.85,21.68
			C655.99,113.52,650.71,120.55,640.14,120.55z M640.14,113.17c5.16,0,7.73-4.57,7.73-13.71c0-9.53-2.58-14.3-7.73-14.3
			s-7.73,4.77-7.73,14.3C632.41,108.6,634.98,113.17,640.14,113.17z"/>
		<path d="M659.21,101.89v-6.8h29.71v6.8H659.21z M668.65,119.97V91.55c0-10.74,5.19-16.11,15.56-16.11c2.4,0,4.72,0.2,6.94,0.59
			l-0.76,7.35c-1.31-0.16-2.47-0.26-3.47-0.32c-1.01-0.06-1.97-0.09-2.89-0.09c-4.98,0-7.47,2.76-7.47,8.29v28.71H668.65z"/>
		<path d="M694.37,101.89v-6.8h29.71v6.8H694.37z M703.8,119.97V91.55c0-10.74,5.19-16.11,15.56-16.11c2.4,0,4.72,0.2,6.94,0.59
			l-0.76,7.35c-1.31-0.16-2.47-0.26-3.47-0.32c-1.01-0.06-1.97-0.09-2.89-0.09c-4.98,0-7.47,2.76-7.47,8.29v28.71H703.8z"/>
		<path d="M748.07,120.55c-5.37,0-9.52-1.39-12.45-4.17s-4.39-6.78-4.39-12c0-5.08,1.25-9.02,3.74-11.84s6-4.22,10.53-4.22
			c4.43,0,7.86,1.3,10.28,3.9c2.42,2.6,3.63,6.38,3.63,11.34c0,1.41-0.06,2.74-0.18,4.01h-22.79v-5.51h15.18
			c0-2.09-0.53-3.69-1.6-4.8c-1.06-1.11-2.55-1.67-4.47-1.67c-2.07,0-3.68,0.74-4.82,2.21c-1.14,1.48-1.71,3.57-1.71,6.28
			c0,2.93,0.84,5.16,2.53,6.68c1.69,1.52,4.1,2.29,7.22,2.29c1.41,0,2.79-0.07,4.16-0.22c1.37-0.15,2.76-0.35,4.19-0.6l0.76,7.5
			c-1.99,0.35-3.81,0.58-5.45,0.67C750.79,120.5,749.34,120.55,748.07,120.55z"/>
		<path d="M765.03,119.97v-6.8h21.74v6.8H765.03z M766.2,95.71v-6.8h11.72l0.59,6.8H766.2z M771.59,119.97V88.91h6.74l1.17,8.91
			v22.15H771.59z M779.5,106.61l-1.82-10.69h2.67c0.31-5.06,2.96-7.59,7.94-7.59c2.95,0,5.21,1.08,6.78,3.25
			c1.57,2.17,2.36,5.29,2.36,9.38h-7.91c0-1.84-0.34-3.15-1.01-3.96c-0.67-0.8-1.75-1.2-3.24-1.2c-1.93,0-3.38,0.94-4.34,2.81
			C779.98,100.48,779.5,103.15,779.5,106.61z"/>
		<path d="M835.05,96.21v-7.29h29.12v7.29H835.05z M842.49,104.82V79.54h7.91v25.28H842.49z M857.67,120.55
			c-5.35,0-9.22-1.07-11.6-3.22c-2.38-2.15-3.57-5.59-3.57-10.31v-4.04h7.91v3.28c0,2.36,0.61,4.08,1.83,5.16
			c1.22,1.07,3.23,1.61,6.02,1.61c0.9,0,1.86-0.05,2.89-0.16c1.03-0.11,2.19-0.25,3.5-0.42l0.7,7.41c-1.29,0.23-2.54,0.41-3.76,0.53
			C860.36,120.49,859.06,120.55,857.67,120.55z"/>
		<path d="M873.08,119.97V76.02h7.94v43.95H873.08z M891.45,119.97v-18.75c0-1.74-0.39-3.08-1.16-4.01
			c-0.77-0.94-1.87-1.41-3.3-1.41c-3.98,0-5.98,2.72-5.98,8.17l-1.82-9.43h2.58c0.29-2.09,1.01-3.65,2.14-4.67
			c1.13-1.03,2.85-1.54,5.16-1.54c3.28,0,5.82,1,7.62,2.99c1.8,1.99,2.7,4.8,2.7,8.44v20.21H891.45z"/>
		<path d="M923.85,120.55c-5.37,0-9.52-1.39-12.45-4.17s-4.39-6.78-4.39-12c0-5.08,1.25-9.02,3.74-11.84s6-4.22,10.53-4.22
			c4.43,0,7.86,1.3,10.28,3.9c2.42,2.6,3.63,6.38,3.63,11.34c0,1.41-0.06,2.74-0.18,4.01h-22.79v-5.51h15.18
			c0-2.09-0.53-3.69-1.6-4.8c-1.06-1.11-2.55-1.67-4.47-1.67c-2.07,0-3.68,0.74-4.82,2.21c-1.14,1.48-1.71,3.57-1.71,6.28
			c0,2.93,0.84,5.16,2.53,6.68c1.69,1.52,4.1,2.29,7.22,2.29c1.41,0,2.79-0.07,4.16-0.22c1.37-0.15,2.76-0.35,4.19-0.6l0.76,7.5
			c-1.99,0.35-3.81,0.58-5.45,0.67C926.58,120.5,925.12,120.55,923.85,120.55z"/>
		<path d="M978.9,119.97v-41.6h7.73v41.6H978.9z M978.9,85.48v-7.12h28.54v7.12H978.9z M978.9,104.47v-7.18h22.76v7.18H978.9z"/>
		<path d="M1026.86,120.55c-4.47,0-7.94-1.41-10.4-4.22s-3.69-6.78-3.69-11.89c0-5.14,1.23-9.11,3.69-11.91
			c2.46-2.8,5.93-4.2,10.4-4.2c4.47,0,7.94,1.4,10.4,4.2c2.46,2.8,3.69,6.77,3.69,11.91c0,5.12-1.23,9.08-3.69,11.89
			S1031.33,120.55,1026.86,120.55z M1026.86,113.02c1.91,0,3.39-0.75,4.42-2.24c1.04-1.49,1.55-3.61,1.55-6.34
			c0-2.75-0.52-4.87-1.55-6.36c-1.04-1.48-2.51-2.23-4.42-2.23c-1.89,0-3.36,0.74-4.41,2.23c-1.04,1.48-1.57,3.6-1.57,6.36
			c0,2.73,0.52,4.85,1.57,6.34C1023.49,112.28,1024.96,113.02,1026.86,113.02z"/>
		<path d="M1046.81,83.32v-7.29h9.32v7.29H1046.81z M1066.64,120.55c-3.91,0-6.72-1.07-8.45-3.22c-1.73-2.15-2.59-5.59-2.59-10.31
			v-31h7.91v30.7c0,1.29,0.14,2.34,0.41,3.16c0.27,0.82,0.8,1.43,1.58,1.82c0.78,0.39,1.94,0.59,3.49,0.59
			c1.72,0,3.89-0.37,6.5-1.11l0.91,8.14c-1.66,0.43-3.26,0.74-4.8,0.94C1070.05,120.45,1068.4,120.55,1066.64,120.55z"/>
		<path d="M1081.97,83.32v-7.29h9.32v7.29H1081.97z M1101.8,120.55c-3.91,0-6.72-1.07-8.45-3.22c-1.73-2.15-2.59-5.59-2.59-10.31
			v-31h7.91v30.7c0,1.29,0.14,2.34,0.41,3.16c0.27,0.82,0.8,1.43,1.58,1.82c0.78,0.39,1.94,0.59,3.49,0.59
			c1.72,0,3.89-0.37,6.5-1.11l0.91,8.14c-1.66,0.43-3.26,0.74-4.8,0.94C1105.21,120.45,1103.56,120.55,1101.8,120.55z"/>
		<path d="M1132.33,120.55c-4.47,0-7.94-1.41-10.4-4.22s-3.69-6.78-3.69-11.89c0-5.14,1.23-9.11,3.69-11.91
			c2.46-2.8,5.93-4.2,10.4-4.2c4.47,0,7.94,1.4,10.4,4.2c2.46,2.8,3.69,6.77,3.69,11.91c0,5.12-1.23,9.08-3.69,11.89
			S1136.8,120.55,1132.33,120.55z M1132.33,113.02c1.91,0,3.39-0.75,4.42-2.24c1.04-1.49,1.55-3.61,1.55-6.34
			c0-2.75-0.52-4.87-1.55-6.36c-1.04-1.48-2.51-2.23-4.42-2.23c-1.89,0-3.36,0.74-4.41,2.23c-1.04,1.48-1.57,3.6-1.57,6.36
			c0,2.73,0.52,4.85,1.57,6.34C1128.96,112.28,1130.43,113.02,1132.33,113.02z"/>
		<path d="M1153.51,119.97l-2.05-31.05h7.71l1.11,23.67h0.53l3.54-23.67h5.68l-2.61,7.65h-0.41l-3.13,23.41H1153.51z M1170.5,119.97
			l-3.13-23.41h-0.47l-2.55-7.65h5.68l3.54,23.67h0.53l1.9-23.67h7.5l-2.93,31.05H1170.5z"/>
		<path d="M1189.25,119.97v-7.32h12.07v7.32H1189.25z M1191.01,96.24v-7.32h17.64v7.32H1191.01z M1204.34,84.72
			c-1.5,0-2.72-0.47-3.66-1.41s-1.41-2.16-1.41-3.66c0-1.5,0.47-2.72,1.41-3.66s2.16-1.41,3.66-1.41c1.5,0,2.72,0.47,3.66,1.41
			s1.41,2.16,1.41,3.66c0,1.5-0.47,2.72-1.41,3.66S1205.84,84.72,1204.34,84.72z M1200.74,119.97v-29.3h7.91v29.3H1200.74z
			 M1208.06,119.97v-7.32h9.79v7.32H1208.06z"/>
		<path d="M1224.64,119.97V88.91h7.09l0.85,6.56v24.49H1224.64z M1243.01,119.97v-18.25c0-1.88-0.39-3.32-1.16-4.34
			c-0.77-1.02-1.87-1.52-3.3-1.52c-3.98,0-5.98,2.87-5.98,8.61l-1.82-9.93h2.58c0.29-2.09,1.01-3.65,2.14-4.67
			c1.13-1.03,2.85-1.54,5.16-1.54c3.28,0,5.82,1,7.62,2.99c1.8,1.99,2.7,4.8,2.7,8.44v20.21H1243.01z"/>
		<path d="M1269.88,120.55c-3.85,0-6.84-1.39-8.98-4.16c-2.14-2.77-3.21-6.75-3.21-11.92c0-5.14,1.07-9.11,3.21-11.92
			s5.15-4.22,9.04-4.22c2.36,0,4.16,0.51,5.38,1.54c1.22,1.03,2.02,2.58,2.39,4.67h2.29l-1.82,9.93c0-3.01-0.5-5.2-1.51-6.59
			c-1.01-1.39-2.52-2.08-4.56-2.08c-2.01,0-3.56,0.76-4.66,2.27c-1.09,1.51-1.64,3.65-1.64,6.4c0,2.85,0.53,5,1.6,6.45
			c1.06,1.45,2.63,2.17,4.7,2.17c2.27,0,3.84-0.68,4.73-2.05c0.89-1.37,1.33-3.55,1.33-6.56l2.11,9.87h-2.75
			c-0.31,2.07-1.12,3.62-2.43,4.66C1273.78,120.04,1272.04,120.55,1269.88,120.55z M1260.71,133.97l-0.29-6.91l9.96-0.29
			c2.73-0.08,4.72-0.83,5.95-2.27s1.85-3.55,1.85-6.34V95.47l0.59-6.56h7.35v28.3c0,5.53-1.3,9.6-3.9,12.23
			c-2.6,2.63-6.74,4.04-12.42,4.23L1260.71,133.97z"/>
		<path d="M1330.11,85.31v-6.94h26.31v6.94H1330.11z M1330.11,119.97v-6.97h26.31v6.97H1330.11z M1339.37,119.97v-41.6h7.73v41.6
			H1339.37z"/>
		<path d="M1365.27,119.97V88.91h7.09l0.85,6.56v24.49H1365.27z M1383.64,119.97v-18.25c0-1.88-0.39-3.32-1.16-4.34
			c-0.77-1.02-1.87-1.52-3.3-1.52c-3.98,0-5.98,2.87-5.98,8.61l-1.82-9.93h2.58c0.29-2.09,1.01-3.65,2.14-4.67
			c1.13-1.03,2.85-1.54,5.16-1.54c3.28,0,5.82,1,7.62,2.99c1.8,1.99,2.7,4.8,2.7,8.44v20.21H1383.64z"/>
		<path d="M1411.18,120.55c-2.36,0-4.46-0.07-6.28-0.22c-1.83-0.15-3.43-0.37-4.82-0.66l0.94-7.59c2.46,0.31,4.53,0.55,6.21,0.7
			c1.68,0.16,3,0.23,3.96,0.23c2.66,0,4.58-0.18,5.77-0.54c1.19-0.36,1.79-0.94,1.79-1.74c0-0.47-0.15-0.84-0.44-1.11
			c-0.29-0.27-0.76-0.51-1.41-0.7l-10.11-2.93c-2.07-0.6-3.63-1.53-4.67-2.77c-1.04-1.24-1.57-2.9-1.57-5
			c0-3.34,1.41-5.83,4.22-7.46c2.81-1.63,7.08-2.45,12.8-2.45c1.33,0,2.71,0.05,4.14,0.15c1.44,0.1,2.96,0.24,4.56,0.44l-0.85,7.35
			c-1.78-0.16-3.33-0.26-4.66-0.32s-2.45-0.09-3.37-0.09c-3.07,0-5.29,0.17-6.67,0.51c-1.38,0.34-2.06,0.9-2.06,1.68
			c0,0.49,0.14,0.86,0.42,1.13c0.28,0.26,0.73,0.48,1.33,0.66l8.7,2.4c2.68,0.72,4.67,1.77,5.99,3.15s1.98,3.17,1.98,5.38
			c0,3.3-1.31,5.76-3.93,7.37S1416.55,120.55,1411.18,120.55z"/>
		<path d="M1444.22,120.55c-2.95,0-5.23-0.97-6.86-2.92c-1.62-1.94-2.43-4.68-2.43-8.22V88.91h7.94v18.54
			c0,1.78,0.41,3.15,1.22,4.12s1.93,1.45,3.35,1.45c1.86,0,3.26-0.72,4.2-2.15s1.42-3.84,1.42-7.22l1.58,10.34h-2.4
			c-0.49,2.11-1.44,3.73-2.84,4.86S1446.27,120.55,1444.22,120.55z M1453.07,111.18V88.91h7.94v20.51L1453.07,111.18z
			 M1453.6,120.26l-0.53-7.44v-5.45h7.94v5.51l4.28,0.64v6.45L1453.6,120.26z"/>
		<path d="M1468.16,119.97v-6.8h21.74v6.8H1468.16z M1469.33,95.71v-6.8h11.72l0.59,6.8H1469.33z M1474.72,119.97V88.91h6.74
			l1.17,8.91v22.15H1474.72z M1482.63,106.61l-1.82-10.69h2.67c0.31-5.06,2.96-7.59,7.94-7.59c2.95,0,5.21,1.08,6.78,3.25
			s2.36,5.29,2.36,9.38h-7.91c0-1.84-0.34-3.15-1.01-3.96c-0.67-0.8-1.75-1.2-3.24-1.2c-1.93,0-3.38,0.94-4.34,2.81
			S1482.63,103.15,1482.63,106.61z"/>
		<path d="M1514.24,120.55c-3.3,0-5.87-0.81-7.71-2.43c-1.84-1.62-2.75-3.93-2.75-6.91c0-3.48,1.2-6.14,3.6-8
			c2.4-1.86,5.81-2.78,10.22-2.78c1.7,0,3.17,0.09,4.41,0.26s2.5,0.45,3.76,0.82l-1.29,6.18c-1.25-0.29-2.37-0.46-3.37-0.51
			c-1-0.05-2.04-0.07-3.13-0.07c-4.1,0-6.15,1.17-6.15,3.52c0,1.05,0.37,1.86,1.11,2.42s1.83,0.83,3.25,0.83
			c1.72,0,3.15-0.32,4.31-0.97s2.02-1.46,2.59-2.46s0.86-2.02,0.86-3.08v-1.93l1.11,7.97h-2.49l1.03-0.94
			c-0.06,1.8-0.47,3.3-1.23,4.5s-1.83,2.1-3.21,2.7S1516.16,120.55,1514.24,120.55z M1524.76,120.26l-0.67-9.2l-0.12-4.04v-6.06
			c0-1.66-0.71-2.88-2.12-3.65c-1.42-0.77-3.52-1.2-6.31-1.27l-7.94-0.21l0.59-7.21l6.77,0.09c5.62,0.08,9.8,1.19,12.54,3.33
			s4.1,5.26,4.1,9.36v11.48l4.31,0.64v6.45L1524.76,120.26z"/>
		<path d="M1541.05,119.97V88.91h7.09l0.85,6.56v24.49H1541.05z M1559.42,119.97v-18.25c0-1.88-0.39-3.32-1.16-4.34
			c-0.77-1.02-1.87-1.52-3.3-1.52c-3.98,0-5.98,2.87-5.98,8.61l-1.82-9.93h2.58c0.29-2.09,1.01-3.65,2.14-4.67s2.85-1.54,5.16-1.54
			c3.28,0,5.82,1,7.62,2.99s2.7,4.8,2.7,8.44v20.21H1559.42z"/>
		<path d="M1592.99,120.55c-5.64,0-10.01-1.39-13.1-4.17s-4.63-6.78-4.63-12c0-5.08,1.41-9.02,4.22-11.84s6.83-4.22,12.04-4.22
			c3.2,0,5.95,0.63,8.25,1.88c2.29,1.25,3.92,3.02,4.88,5.3l-5.74,4.57c-0.86-1.35-1.95-2.39-3.27-3.12s-2.77-1.1-4.35-1.1
			c-2.48,0-4.42,0.71-5.82,2.14c-1.4,1.43-2.09,3.46-2.09,6.09c0,2.91,0.89,5.13,2.68,6.65s4.33,2.29,7.63,2.29
			c1.41,0,2.81-0.07,4.2-0.21c1.4-0.14,2.76-0.32,4.09-0.56l0.82,7.41c-1.58,0.35-3.21,0.59-4.89,0.7S1594.59,120.55,1592.99,120.55
			z"/>
		<path d="M1626.98,120.55c-5.37,0-9.52-1.39-12.45-4.17s-4.39-6.78-4.39-12c0-5.08,1.25-9.02,3.74-11.84s6-4.22,10.53-4.22
			c4.43,0,7.86,1.3,10.28,3.9c2.42,2.6,3.63,6.38,3.63,11.34c0,1.41-0.06,2.74-0.18,4.01h-22.79v-5.51h15.18
			c0-2.09-0.53-3.69-1.6-4.8s-2.55-1.67-4.47-1.67c-2.07,0-3.68,0.74-4.82,2.21c-1.14,1.48-1.71,3.57-1.71,6.28
			c0,2.93,0.84,5.16,2.53,6.68s4.1,2.29,7.22,2.29c1.41,0,2.79-0.07,4.16-0.22s2.76-0.35,4.19-0.6l0.76,7.5
			c-1.99,0.35-3.81,0.58-5.45,0.67C1629.7,120.5,1628.25,120.55,1626.98,120.55z"/>
	</g>
</g>
</svg>
