<?xml version="1.0" encoding="utf-8"?>
<!-- Generator: Adobe Illustrator 27.5.0, SVG Export Plug-In . SVG Version: 6.00 Build 0)  -->
<svg version="1.1" xmlns="http://www.w3.org/2000/svg" xmlns:xlink="http://www.w3.org/1999/xlink" x="0px" y="0px"
	 viewBox="0 0 1536.44 1473.33" style="enable-background:new 0 0 1536.44 1473.33;" xml:space="preserve">
<style type="text/css">
	.st0{fill:#B6DDBD;}
	.st1{opacity:0.4;fill:#A8C4E5;}
	.st2{fill:#99CCCC;}
	.st3{fill:#006837;}
	.st4{fill:#75AE74;}
	.st5{fill:#FFFFFF;}
	.st6{opacity:0.52;fill:#A8C4E5;}
	.st7{opacity:0.65;fill:#E3F2FF;}
	.st8{fill:#88AAD4;}
	.st9{fill:#E1E8F2;}
	.st10{fill:#F3F3F3;}
	.st11{fill:#C2D6F2;}
	.st12{opacity:0.61;fill:#F3F3F3;}
	.st13{opacity:0.4;fill:#99CCCC;}
	.st14{fill:#DAE4F0;}
	.st15{fill:#FBDDD3;}
	.st16{fill:#2130A7;}
	.st17{fill:#C6D2F2;}
	.st18{fill:#21DED5;}
	.st19{fill:#A8C4E5;}
	.st20{fill:#2B337C;}
	.st21{fill:#E6E6ED;}
	.st22{fill:#E9E8E6;}
	.st23{fill:none;stroke:#006837;stroke-width:2.0533;stroke-linecap:round;stroke-linejoin:round;stroke-miterlimit:10;}
	.st24{opacity:0.11;fill:#FFFFFF;}
	.st25{fill:#FCFEFF;}
	.st26{fill:#2C1F9C;}
	.st27{fill:#E1EAF4;}
</style>
<g id="background">
</g>
<g id="image">
	<path class="st0" d="M774.25,23.45L774.25,23.45c407.32,0,737.52,320.26,737.52,715.33v0c0,653.33-828.68,964.74-1282.51,481.95
		l0,0C-202.47,761.47,133.47,23.45,774.25,23.45z"/>
	<g>
		<path class="st1" d="M516.52,1133.28c-1.22-4.31-4.53-8.31-10.02-11.48l-134.11-77.42c-11.38-6.57-28.94-7.74-44.62-3.88
			c0.51,0.26,1.04,0.5,1.53,0.79l134.11,77.42c5.49,3.17,8.8,7.17,10.02,11.48c0,0,0-0.01,0-0.01c4.12,8.91-3.41,19.33-15.51,26.32
			l0,0c-4.75,2.75-10.3,4.75-16.2,6.05c18.05,7.34,43.14,6.37,59.29-2.95h0c12.11-6.99,19.63-17.41,15.51-26.32
			C516.52,1133.28,516.51,1133.28,516.52,1133.28z"/>
		<path class="st2" d="M297.95,1078.83l125.34,72.36c18.07,10.43,48.19,11.58,66.26,1.14c9.49-5.48,16.71-14.42,16.23-21.6
			c-1.22-4.31-4.53-8.31-10.02-11.48l-134.11-77.42c-0.49-0.28-1.02-0.52-1.53-0.79c-15.85-8.14-42.01-6.79-59.52,3.32h0
			c-11.5,6.64-16.46,15.44-14.53,23.3c-0.03-0.27-0.07-0.54-0.09-0.81C288,1071.24,291.99,1075.38,297.95,1078.83z M337.6,1063.33
			c3.12-1.8,8.18-1.8,11.3,0c3.12,1.8,3.12,4.72,0,6.52c-3.12,1.8-8.18,1.8-11.3,0C334.48,1068.05,334.48,1065.13,337.6,1063.33z
			 M337.06,1087.47c-3.12-1.8-3.12-4.72,0-6.52c3.12-1.8,8.18-1.8,11.3,0c3.12,1.8,3.12,4.72,0,6.52
			C345.23,1089.27,340.18,1089.27,337.06,1087.47z M419.75,1135.21c-3.12-1.8-3.12-4.72,0-6.52c3.12-1.8,8.18-1.8,11.3,0
			c3.12,1.8,3.12,4.72,0,6.52C427.93,1137.02,422.87,1137.02,419.75,1135.21z M449.78,1152.55c-3.12-1.8-3.12-4.72,0-6.52
			c3.12-1.8,8.18-1.8,11.3,0c3.12,1.8,3.12,4.72,0,6.52C457.96,1154.35,452.9,1154.35,449.78,1152.55z M480.25,1128.48
			c3.12-1.8,8.18-1.8,11.3,0c3.12,1.8,3.12,4.72,0,6.52c-3.12,1.8-8.18,1.8-11.3,0C477.13,1133.2,477.13,1130.28,480.25,1128.48z
			 M461.62,1134.93c-3.12,1.8-8.18,1.8-11.3,0s-3.12-4.72,0-6.52c3.12-1.8,8.18-1.8,11.3,0
			C464.74,1130.21,464.74,1133.13,461.62,1134.93z M450.22,1111.14c3.12-1.8,8.18-1.8,11.3,0c3.12,1.8,3.12,4.72,0,6.52
			c-3.12,1.8-8.18,1.8-11.3,0C447.1,1115.86,447.1,1112.94,450.22,1111.14z M367.49,1063.38c3.12-1.8,8.18-1.8,11.3,0
			c3.12,1.8,3.12,4.72,0,6.52c-3.12,1.8-8.18,1.8-11.3,0C364.37,1068.1,364.37,1065.18,367.49,1063.38z M395.2,1070.06
			c1.03-0.59,2.29-0.59,3.32,0l45.01,25.99c2.21,1.28,2.21,4.47,0,5.75l-42.64,24.62c-1.03,0.59-2.29,0.59-3.32,0l-45.01-25.99
			c-2.21-1.28-2.21-4.47,0-5.75L395.2,1070.06z M337.46,1046.04c3.12-1.8,8.18-1.8,11.3,0c3.12,1.8,3.12,4.72,0,6.52
			c-3.12,1.8-8.18,1.8-11.3,0C334.34,1050.76,334.34,1047.84,337.46,1046.04z M307.62,1063.33c3.12-1.8,8.18-1.8,11.3,0
			c3.12,1.8,3.12,4.72,0,6.52c-3.12,1.8-8.18,1.8-11.3,0C304.5,1068.05,304.5,1065.13,307.62,1063.33z"/>
		<path class="st3" d="M490.26,1157.04c12.11-6.99,19.63-17.41,15.51-26.32c0,0,0,0.01,0,0.01c0.48,7.18-6.73,16.12-16.23,21.6
			c-18.07,10.43-48.19,9.29-66.26-1.14l-125.34-72.36c-5.96-3.44-9.94-7.59-11.97-11.98c0.02,0.27,0.05,0.54,0.09,0.81
			c0.75,6.2,5.21,12.28,13.42,17.02l125.34,72.36c13.31,7.69,32.71,9.69,49.24,6.05C479.96,1161.79,485.5,1159.79,490.26,1157.04
			L490.26,1157.04z"/>
		<path class="st4" d="M352.57,1094.67c-2.21,1.28-2.21,4.47,0,5.75l45.01,25.99c1.03,0.59,2.29,0.59,3.32,0l42.64-24.62
			c2.21-1.28,2.21-4.47,0-5.75l-45.01-25.99c-1.03-0.59-2.29-0.59-3.32,0L352.57,1094.67z M403.17,1119.12
			c-3.12,1.8-8.18,1.8-11.3,0c-3.12-1.8-3.12-4.72,0-6.52c3.12-1.8,8.18-1.8,11.3,0C406.29,1114.4,406.29,1117.32,403.17,1119.12z
			 M422.34,1095.04c3.12-1.8,8.18-1.8,11.3,0c3.12,1.8,3.12,4.72,0,6.52c-3.12,1.8-8.18,1.8-11.3,0
			C419.22,1099.76,419.22,1096.84,422.34,1095.04z M403.71,1101.5c-3.12,1.8-8.18,1.8-11.3,0c-3.12-1.8-3.12-4.72,0-6.52
			c3.12-1.8,8.18-1.8,11.3,0C406.83,1096.78,406.83,1099.7,403.71,1101.5z M392.3,1077.71c3.12-1.8,8.18-1.8,11.3,0
			c3.12,1.8,3.12,4.72,0,6.52c-3.12,1.8-8.18,1.8-11.3,0C389.19,1082.43,389.19,1079.51,392.3,1077.71z M361.84,1095.26
			c3.12-1.8,8.18-1.8,11.3,0c3.12,1.8,3.12,4.72,0,6.52c-3.12,1.8-8.18,1.8-11.3,0C358.72,1099.98,358.72,1097.06,361.84,1095.26z"
			/>
		<path class="st5" d="M337.46,1052.56c3.12,1.8,8.18,1.8,11.3,0c3.12-1.8,3.12-4.72,0-6.52c-3.12-1.8-8.18-1.8-11.3,0
			C334.34,1047.84,334.34,1050.76,337.46,1052.56z"/>
		<path class="st5" d="M367.49,1069.9c3.12,1.8,8.18,1.8,11.3,0c3.12-1.8,3.12-4.72,0-6.52c-3.12-1.8-8.18-1.8-11.3,0
			C364.37,1065.18,364.37,1068.1,367.49,1069.9z"/>
		<path class="st5" d="M337.6,1069.85c3.12,1.8,8.18,1.8,11.3,0c3.12-1.8,3.12-4.72,0-6.52c-3.12-1.8-8.18-1.8-11.3,0
			C334.48,1065.13,334.48,1068.05,337.6,1069.85z"/>
		<path class="st5" d="M348.35,1087.47c3.12-1.8,3.12-4.72,0-6.52c-3.12-1.8-8.18-1.8-11.3,0c-3.12,1.8-3.12,4.72,0,6.52
			C340.18,1089.27,345.23,1089.27,348.35,1087.47z"/>
		<path class="st5" d="M307.62,1069.85c3.12,1.8,8.18,1.8,11.3,0c3.12-1.8,3.12-4.72,0-6.52c-3.12-1.8-8.18-1.8-11.3,0
			C304.5,1065.13,304.5,1068.05,307.62,1069.85z"/>
		<path class="st5" d="M450.22,1117.66c3.12,1.8,8.18,1.8,11.3,0c3.12-1.8,3.12-4.72,0-6.52c-3.12-1.8-8.18-1.8-11.3,0
			C447.1,1112.94,447.1,1115.86,450.22,1117.66z"/>
		<path class="st5" d="M431.05,1135.21c3.12-1.8,3.12-4.72,0-6.52c-3.12-1.8-8.18-1.8-11.3,0c-3.12,1.8-3.12,4.72,0,6.52
			C422.87,1137.02,427.93,1137.02,431.05,1135.21z"/>
		<path class="st5" d="M480.25,1135c3.12,1.8,8.18,1.8,11.3,0c3.12-1.8,3.12-4.72,0-6.52c-3.12-1.8-8.18-1.8-11.3,0
			C477.13,1130.28,477.13,1133.2,480.25,1135z"/>
		<path class="st5" d="M461.62,1128.41c-3.12-1.8-8.18-1.8-11.3,0c-3.12,1.8-3.12,4.72,0,6.52s8.18,1.8,11.3,0
			C464.74,1133.13,464.74,1130.21,461.62,1128.41z"/>
		<path class="st5" d="M461.08,1146.03c-3.12-1.8-8.18-1.8-11.3,0c-3.12,1.8-3.12,4.72,0,6.52c3.12,1.8,8.18,1.8,11.3,0
			C464.2,1150.75,464.2,1147.83,461.08,1146.03z"/>
		<path class="st5" d="M392.31,1084.23c3.12,1.8,8.18,1.8,11.3,0c3.12-1.8,3.12-4.72,0-6.52c-3.12-1.8-8.18-1.8-11.3,0
			C389.19,1079.51,389.19,1082.43,392.31,1084.23z"/>
		<path class="st5" d="M361.84,1101.78c3.12,1.8,8.18,1.8,11.3,0c3.12-1.8,3.12-4.72,0-6.52c-3.12-1.8-8.18-1.8-11.3,0
			C358.72,1097.06,358.72,1099.98,361.84,1101.78z"/>
		<path class="st5" d="M422.34,1101.56c3.12,1.8,8.18,1.8,11.3,0c3.12-1.8,3.12-4.72,0-6.52c-3.12-1.8-8.18-1.8-11.3,0
			C419.22,1096.84,419.22,1099.76,422.34,1101.56z"/>
		<path class="st5" d="M403.71,1094.98c-3.12-1.8-8.18-1.8-11.3,0c-3.12,1.8-3.12,4.72,0,6.52c3.12,1.8,8.18,1.8,11.3,0
			C406.83,1099.7,406.83,1096.78,403.71,1094.98z"/>
		<path class="st5" d="M403.17,1112.6c-3.12-1.8-8.18-1.8-11.3,0c-3.12,1.8-3.12,4.72,0,6.52c3.12,1.8,8.18,1.8,11.3,0
			C406.29,1117.32,406.29,1114.4,403.17,1112.6z"/>
	</g>
	<g>
		<polygon class="st6" points="1200.14,925.39 819.31,1087.76 1001.11,1256.59 1355.42,1105.52 1355.42,1069.59 		"/>
		<g>
			<g>
				<path class="st5" d="M1203.4,909.79l-380.83,162.38l181.8,168.83l351.05-149.68l0-40.34L1203.4,909.79z"/>
				<polygon class="st2" points="1322,1075.51 1178.85,942.58 1197.64,934.57 1340.79,1067.5 				"/>
				<polygon class="st2" points="1150.67,1051.58 1079.09,985.11 1097.88,977.1 1169.45,1043.57 				"/>
				<polygon class="st2" points="1101.03,1072.74 1029.46,1006.27 1048.24,998.27 1119.82,1064.73 				"/>
				<polygon class="st2" points="1044.03,1097.05 972.45,1030.58 991.24,1022.57 1062.81,1089.04 				"/>
				<polygon class="st2" points="1020.8,1221.63 942.57,1148.98 958.6,1142.14 1036.83,1214.79 				"/>
				<polygon class="st2" points="1306.15,1109.4 1129.52,945.37 1140.61,940.64 1317.24,1104.67 				"/>
				<polygon class="st2" points="1070.44,1209.9 893.81,1045.87 904.9,1041.14 1081.53,1205.17 				"/>
			</g>
			<g>
				<path class="st6" d="M1286.21,1076.8c-1.75-0.73-3.5-1.41-5.25-2.09c13.8-23.17-17.48-48.95-28.57-57.09
					c-2.38-1.75-5.29-2.58-8.24-2.39c-11.71,0.77-44.45,4.23-78.18,19.58c-18.36,4.7-44.36,12.66-68.76,24.78
					c-1.09,0.54-2.15,1.09-3.21,1.64c-4.09,0.78-8.17,1.63-12.25,2.55c-29.47,6.66-51.55,16.27-65.42,23.52
					c-8.56,3.96-15.1,7.85-19.87,11.13c-6.41,4.4-7.31,13.53-1.89,19.11c6.97,7.17,17.93,16.73,32.28,24.1
					c-0.69,10.28,0.81,21,4.52,32.09c2.97,8.05,11.9,11.95,19.44,12.27c4.61,0.2,9.02-0.9,11.66-3.27c1.94-1.74,2.93-4.18,2.35-7.31
					c-0.05-0.24-1.91-9.95-1.92-23.01c11.97,1.15,25.12,0.14,39.35-4.23c71.79-22.07,28.31-69.21,28.31-69.21l1.69-0.59l5.25-1.84
					l1.69-0.59c0,0,44.76,50.8,118.37,17.07c0.81-0.37,1.6-0.75,2.37-1.13c8.88,2.74,14.35,4.66,14.56,4.73
					c10,3.47,18.18,1.97,21.75-1.42c0.3-0.28,0.56-0.58,0.79-0.88C1299.89,1090.55,1297.23,1081.56,1286.21,1076.8z
					 M1267.17,1067.48c0.4-1.39,0.74-2.8,1.04-4.21C1268.05,1064.67,1267.71,1066.08,1267.17,1067.48z"/>
				<g>
					<path class="st3" d="M1003.4,1166.12c-8.68-25.95-5.5-49.84,9.44-71.01c11.9-16.86,31.25-32.03,57.52-45.08
						c44.59-22.15,94.47-30.66,94.97-30.75l2.88,3.66c-0.57,0.2-57.96,20.68-109.95,61.27c-32.07,25.02-20.96,83-20.84,83.61
						c0.59,3.18-0.42,5.66-2.39,7.44c-2.69,2.42-7.17,3.53-11.86,3.33C1015.51,1178.27,1006.42,1174.3,1003.4,1166.12z"/>
					<path class="st3" d="M1054.64,1054.3c31.72-7.17,63.65-10.14,94.89-8.81c39.23,1.66,76.84,7,113.05,22.04
						c11.21,4.84,13.91,13.98,11.02,17.8c-0.24,0.31-0.51,0.61-0.81,0.9c-3.63,3.44-11.95,4.97-22.12,1.44
						c-0.85-0.3-85.21-29.86-138.02-24.9c-85.54,8.03-142.46,27.05-143.03,27.24l1.14-1.47
						C971.13,1088.34,1000.78,1066.47,1054.64,1054.3z"/>
					<path class="st7" d="M978.58,1098.03c0,0,2.88,29.87,34.43,35.42c31.55,5.55,74.75,5,85.95-14.26s10.43-48.31-4.78-56.86
						C1078.96,1053.78,1000.51,1065.75,978.58,1098.03z"/>
					<path class="st7" d="M1117.56,1049.48c0,0,2.88,29.87,34.43,35.42c31.55,5.55,74.75,5,85.95-14.26
						c11.2-19.26,10.43-48.31-4.78-56.86C1217.95,1005.23,1139.5,1017.19,1117.56,1049.48z"/>
					<path class="st4" d="M967.9,1089.54c-6.52,4.48-7.44,13.76-1.92,19.43c16.66,17.13,55.59,47.73,109.52,31.15
						c73.01-22.45,28.79-70.39,28.79-70.39l1.72-0.6l5.34-1.87l1.72-0.6c0,0,45.52,51.67,120.39,17.36
						c57.11-26.17,9.15-66.09-5.27-76.66c-2.42-1.78-5.38-2.62-8.38-2.43c-17.43,1.14-80.66,8.13-125.85,50.36l-0.44,0.16
						C1022.34,1059.24,984.61,1078.06,967.9,1089.54z M1134.13,1064.25L1134.13,1064.25c-6.88-5.37-6.46-15.86,0.77-20.75
						c30.72-20.75,66.61-25.22,79.52-26.17c3.25-0.24,6.46,0.78,8.99,2.84c11.53,9.36,41.12,37.76-0.56,54.32
						C1172.39,1094.53,1134.13,1064.25,1134.13,1064.25z M990.67,1112.87c-7.55-5.4-6.98-16.76,1.02-21.46
						c14.18-8.33,40.2-19.15,82.84-22.43c3.62-0.28,7.19,0.99,9.82,3.49l7.1,6.75c0,0,33.95,31.79-20.37,48.5
						C1035.53,1138.64,1006.49,1124.17,990.67,1112.87z"/>
					<path class="st5" d="M1009.72,1117.06L1009.72,1117.06c-2.09-0.37-3.5-2.38-3.13-4.47l4-22.79c0.37-2.09,2.38-3.5,4.47-3.13v0
						c2.09,0.37,3.5,2.38,3.13,4.47l-4,22.79C1013.82,1116.02,1011.81,1117.42,1009.72,1117.06z"/>
					<path class="st5" d="M1023.86,1115.2L1023.86,1115.2c-1.43-0.25-2.39-1.62-2.14-3.05l4.43-25.2c0.25-1.43,1.62-2.39,3.05-2.14
						l0,0c1.43,0.25,2.39,1.62,2.14,3.05l-4.43,25.2C1026.66,1114.49,1025.29,1115.45,1023.86,1115.2z"/>
					<path class="st5" d="M1154.34,1066.12L1154.34,1066.12c-2.09-0.37-3.5-2.38-3.13-4.47l4-22.79c0.37-2.09,2.38-3.5,4.47-3.13
						l0,0c2.09,0.37,3.5,2.38,3.13,4.47l-4,22.79C1158.44,1065.08,1156.43,1066.49,1154.34,1066.12z"/>
					<path class="st5" d="M1168.49,1064.27L1168.49,1064.27c-1.43-0.25-2.39-1.62-2.14-3.05l4.43-25.2
						c0.25-1.43,1.62-2.39,3.05-2.14l0,0c1.43,0.25,2.39,1.62,2.14,3.05l-4.43,25.2
						C1171.28,1063.56,1169.91,1064.52,1168.49,1064.27z"/>
				</g>
			</g>
		</g>
	</g>
	<g>
		
			<ellipse transform="matrix(0.9998 -0.0197 0.0197 0.9998 -23.5803 7.8231)" class="st8" cx="384.88" cy="1199.56" rx="27.99" ry="17.49"/>
		
			<ellipse transform="matrix(0.9998 -0.0197 0.0197 0.9998 -23.5409 7.6788)" class="st9" cx="377.57" cy="1197.45" rx="27.99" ry="17.49"/>
		
			<rect x="349.48" y="1187.09" transform="matrix(0.9998 -0.0198 0.0198 0.9998 -23.4834 7.6883)" class="st9" width="55.99" height="11.19"/>
		
			<ellipse transform="matrix(0.9998 -0.0197 0.0197 0.9998 -23.3573 7.6724)" class="st10" cx="377.39" cy="1188.29" rx="27.99" ry="17.49"/>
		<path class="st9" d="M392.02,1195.86c-7.89,5.15-20.86,5.41-28.95,0.57c-8.09-4.84-8.25-12.94-0.36-18.09s20.86-5.41,28.95-0.57
			C399.75,1182.6,399.91,1190.7,392.02,1195.86z"/>
		<path class="st11" d="M390.69,1188.5l-28.5,0.88c-1.52,0.05-2.79-1.15-2.84-2.67l0,0c-0.05-1.51,1.15-2.79,2.67-2.84l28.5-0.88
			c1.52-0.05,2.79,1.15,2.84,2.67l0,0C393.4,1187.18,392.2,1188.46,390.69,1188.5z"/>
	</g>
	<g>
		<path class="st8" d="M261.63,1120.02l45.07-0.49c5.54-0.06,10.11,4.42,10.17,9.96l0.12,10.6c0.06,5.54-4.42,10.12-9.96,10.18
			l-45.07,0.49c-5.54,0.06-10.11-4.42-10.17-9.96l-0.12-10.6C251.62,1124.66,256.1,1120.08,261.63,1120.02z"/>
		<path class="st9" d="M256.48,1117.8l45.07-0.49c5.54-0.06,10.11,4.42,10.17,9.96l0.12,10.6c0.06,5.54-4.42,10.12-9.96,10.18
			l-45.07,0.49c-5.54,0.06-10.11-4.42-10.17-9.96l-0.12-10.6C246.46,1122.44,250.94,1117.86,256.48,1117.8z"/>
		<path class="st10" d="M256.43,1107.74l45.07-0.49c5.54-0.06,10.11,4.42,10.17,9.96l0.12,10.6c0.06,5.54-4.42,10.12-9.96,10.18
			l-45.07,0.49c-5.54,0.06-10.11-4.42-10.17-9.96l-0.12-10.6C246.42,1112.38,250.9,1107.8,256.43,1107.74z"/>
	</g>
	<g>
		<path class="st8" d="M520.03,1186.29l0.85-0.49l0,0l6.08-3.47l9.62-5.48l0,0l22.55-12.85c9.12-5.2,21.02-2.77,26.45,5.38
			c5.43,8.16,2.41,19.08-6.71,24.28l-22.07,12.57l0,0l-5.65,3.22l-0.84,0.48l0,0l-2.04,1.16l-8.51,4.85
			c-9.12,5.2-21.02,2.77-26.45-5.38h0C507.89,1202.41,510.91,1191.49,520.03,1186.29z"/>
		<g>
			<path class="st2" d="M576.46,1187.35l-42.24,25.26c-10.07,6.02-23.23,2.71-29.25-7.36v0c-6.02-10.07-2.71-23.23,7.36-29.25
				l42.24-25.26c10.07-6.02,23.23-2.71,29.25,7.36l0,0C589.84,1168.17,586.53,1181.33,576.46,1187.35z"/>
			<g>
				<path class="st4" d="M511.39,1176.56l11.65-6.97c10.07-6.02,23.23-2.71,29.25,7.36h0c6.02,10.07,2.71,23.23-7.36,29.25
					l-2.25,1.34l-9.4,5.62c-10.07,6.02-23.23,2.71-29.25-7.36l0,0C498.01,1195.74,501.32,1182.58,511.39,1176.56z"/>
				<path class="st4" d="M514.57,1174.66l15.1-9.03c10.07-6.02,19.78-0.64,25.8,9.42l0,0c6.02,10.07,6.7,20.84-3.37,26.86
					l-6.24,3.73l-9.4,5.62c-10.07,6.02-23.23,2.71-29.25-7.36h0C501.19,1193.84,504.5,1180.68,514.57,1174.66z"/>
			</g>
		</g>
		<path class="st12" d="M530.97,1191.13l45.08-25.08c2.08-1.16,2.84-3.81,1.68-5.89l0,0c-1.16-2.08-3.81-2.84-5.9-1.68l-45.08,25.08
			c-2.08,1.16-2.84,3.81-1.68,5.89l0,0C526.23,1191.53,528.89,1192.29,530.97,1191.13z"/>
	</g>
	<g>
		<g>
			<path class="st1" d="M681.05,1162.91L275.64,942.78c-14.57-7.91-13.23-22.73,3.01-33.11l531.83-339.85
				c16.23-10.37,41.2-12.37,55.77-4.45l405.41,220.13c14.57,7.91,13.23,22.73-3.01,33.11l-531.83,339.85
				C720.59,1168.83,695.62,1170.83,681.05,1162.91z"/>
			<path class="st3" d="M1252.2,778.99c-1.48-1.47-3.26-2.83-5.46-4.02L841.34,554.84c-14.57-7.91-39.54-5.92-55.77,4.45
				L253.74,899.15c-1.82,1.17-3.43,2.39-4.88,3.66l-8.68,4.43l0.73,13.21c0.88,4.54,4.11,8.71,9.82,11.81l405.41,220.13
				c14.57,7.91,39.54,5.92,55.77-4.45l531.83-339.85c8.43-5.39,12.8-11.97,13.06-18.16l-0.35-10.54L1252.2,778.99z"/>
			<path class="st4" d="M655.7,1141.82L250.3,921.69c-14.57-7.91-13.23-22.73,3.01-33.11l531.83-339.85
				c16.23-10.37,41.2-12.37,55.77-4.45l405.41,220.13c14.57,7.91,13.23,22.73-3.01,33.11l-531.83,339.85
				C695.24,1147.74,670.28,1149.74,655.7,1141.82z"/>
			<polygon class="st5" points="678.69,1105.99 288.93,894.35 822.45,562.05 1212.21,773.69 			"/>
			<path class="st3" d="M1114.67,693.28l-13.33-7.24h0c14.97-9.32,14.36-23.79-1.35-32.33l-72.18-39.19
				c-15.71-8.53-40.58-7.89-55.55,1.43l-8.95-4.86c-16.35-8.88-42.24-8.21-57.82,1.49l0,0c-15.58,9.7-14.95,24.77,1.41,33.65
				l151.36,82.19c16.35,8.88,42.24,8.21,57.82-1.49l0,0C1131.65,717.22,1131.02,702.16,1114.67,693.28z"/>
			<path class="st5" d="M1114.14,680.58l-13.33-7.24v0c14.97-9.32,14.36-23.79-1.35-32.33l-72.18-39.19
				c-15.71-8.53-40.58-7.89-55.55,1.43l-8.95-4.86c-16.35-8.88-42.24-8.21-57.82,1.49v0c-15.58,9.7-14.95,24.77,1.41,33.65
				l151.36,82.19c16.35,8.88,42.24,8.21,57.82-1.49l0,0C1131.12,704.52,1130.49,689.46,1114.14,680.58z"/>
			<path class="st13" d="M1073.63,678.64l-110.58-61.81c-3.92-2.19-4.25-7.73-0.61-10.25l0,0c1.86-1.29,4.29-1.39,6.29-0.28
				l110.58,61.81c3.92,2.19,4.25,7.73,0.61,10.25h0C1078.07,679.65,1075.63,679.75,1073.63,678.64z"/>
		</g>
		<path class="st4" d="M868.11,725.76c20.72-12.87,20.95-32.32,0.51-43.46c-11.51-6.27-27.11-8.56-42.25-7.07
			c1.56-8.88-3.39-17.79-14.9-24.06c-20.44-11.13-55.23-8.78-75.95,4.09c-4.06,2.52-7.73,5.62-11.23,9.16l-0.01,0
			c0.04,0.02,1.26-0.73,1.17-0.63c-2.99,3.6-4.08,6.94-4.68,10.75c-5.99,23.59,8.7,59.24,8.7,59.24
			c79.77,11.62,111.59,1.93,111.59,1.93l2.09-0.46C849.78,733.48,862.73,729.1,868.11,725.76z"/>
		<path class="st4" d="M1073.14,821.62l-168.69-94.3c-5.98-3.34-6.48-11.79-0.93-15.64h0c2.83-1.96,6.55-2.13,9.6-0.42l168.69,94.3
			c5.98,3.34,6.48,11.79,0.93,15.64l0,0C1079.91,823.16,1076.19,823.32,1073.14,821.62z"/>
		<path class="st2" d="M940.16,883.67l-168.69-94.3c-0.3-0.17-0.61-0.3-0.93-0.44l-135.8-75.91c-3.05-1.7-6.76-1.54-9.6,0.42
			c-5.55,3.85-5.04,12.3,0.93,15.64l168.69,94.3c0.3,0.17,0.61,0.3,0.93,0.44l135.8,75.91c3.05,1.7,6.76,1.54,9.6-0.42
			C946.64,895.46,946.13,887.01,940.16,883.67z"/>
		<path class="st2" d="M887.96,923.51l-168.69-94.3c-0.3-0.17-0.61-0.3-0.93-0.44l-135.8-75.91c-3.05-1.7-6.76-1.54-9.6,0.42
			c-5.55,3.85-5.04,12.3,0.93,15.64l168.69,94.3c0.3,0.17,0.61,0.3,0.93,0.44l135.8,75.91c3.05,1.7,6.76,1.54,9.6-0.42
			C894.44,935.3,893.94,926.85,887.96,923.51z"/>
		<path class="st2" d="M835.77,963.34l-168.69-94.3c-0.3-0.17-0.61-0.3-0.93-0.44l-135.8-75.91c-3.05-1.7-6.76-1.54-9.6,0.42
			c-5.55,3.85-5.04,12.3,0.93,15.64l168.69,94.3c0.3,0.17,0.61,0.3,0.93,0.44l135.8,75.91c3.05,1.7,6.76,1.54,9.6-0.42
			C842.25,975.13,841.74,966.68,835.77,963.34z"/>
		<path class="st4" d="M1042.49,851.09L873.8,756.8c-5.98-3.34-6.48-11.79-0.93-15.64l0,0c2.83-1.96,6.55-2.13,9.6-0.42l168.69,94.3
			c5.98,3.34,6.48,11.79,0.93,15.64h0C1049.26,852.63,1045.54,852.8,1042.49,851.09z"/>
		<path class="st4" d="M694.7,1042.62l-83.45-46.65c-4.06-2.27-9.11-1.16-11.78,2.58l0,0c-3.18,4.46-1.71,10.78,3.12,13.48
			l83.75,46.82c3.87,2.16,8.81,1.32,11.65-2.39C701.51,1051.87,699.81,1045.48,694.7,1042.62z"/>
		<path class="st4" d="M735.58,1014.88l-127.4-71.22c-4.04-2.26-9.06-1.18-11.74,2.52l0,0c-3.23,4.46-1.78,10.82,3.08,13.54
			l127.7,71.38c3.87,2.16,8.81,1.32,11.65-2.39C742.4,1024.13,740.69,1017.73,735.58,1014.88z"/>
	</g>
	<g>
		<path class="st3" d="M378.2,879.18c26.09,9.68,54.16,14.4,78.45,11.78c18.41-1.98,36.28-12.58,23.54-28.93
			c-13.25-17.01-40.24-14.37-55.01-9.36c-17.79,6.03-31.69,18.2-33.97,33.08c-3.2,20.9,41.27,23.05,58.79,21.45
			c-2.07-1.48-4.14-2.97-6.21-4.45c-2.53,5.16-4.13,12.5,5.7,17.84c2.99,1.62,6.52,2.51,9.61,2.29c3.41-0.24,8.63-4.95,11.66-3.94
			c-0.84-1.54-1.68-3.07-2.52-4.61c-2.94,3.54-4.5,7.16-4.92,11.66c-0.22,2.36,4.77,4.66,7.21,3.5c7.94-3.79,17.77-5.07,29.26-3.46
			c-1.22-1.65-2.43-3.3-3.65-4.95c-3.95,4.63-12.73,2.4-10.88,9.82c0.94,3.74,3.64,8.06,9.54,9.76c5.39,1.55,5.35-4,0-5.54
			c-4.43-1.27,1.07-5.56,2.27-6.05c2.63-1.06,4.79-1.8,6.36-3.64c1.21-1.42-0.16-4.46-3.65-4.95c-13.83-1.93-25.61-0.78-35.23,3.81
			c2.4,1.17,4.81,2.33,7.21,3.5c0.34-3.71,1.33-6.18,3.76-9.11c1.04-1.25,0.39-3.63-2.52-4.61c-4.06-1.35-6.81-1.65-10.21-0.61
			c-1.24,0.38-2.24,1.61-3.53,1.86c-11.3,2.16-8.68-6.62-7.34-9.36c1.11-2.26-3.03-4.74-6.21-4.45c-10.98,1-31.83,1.46-42.37-6.26
			c-8.32-6.09-1.23-15.51,2.39-20.31c8.06-10.67,24.49-20.72,44.86-20.5c14.23,0.15,26.76,8.8,24.92,18.35
			c-1.53,7.95-12.43,11.37-23.16,12.48c-22.27,2.32-48.09-2.1-71.94-10.95C375.16,872.36,372.9,877.22,378.2,879.18L378.2,879.18z"
			/>
	</g>
	<path class="st1" d="M581.55,640.07l-151.77-84.35c-1.93-1.01,7.36-19,9.47-20.34l135.29-97.27c2.12-1.34,5.4-1.62,7.32-0.61
		l174.85,91.37c1.93,1.01,1.77,2.91-0.35,4.26L588.87,639.46C586.75,640.8,583.47,641.08,581.55,640.07z"/>
	<g>
		<path class="st3" d="M721.93,489.82l-17.17-9.53l0.01-0.03l-124.24-68.98c-3-1.67-6.78-0.13-7.76,3.17l-9.62,32.32l21.47,9.92
			l-0.01,0.03l102.85,68.65l-0.61,0.01l-123.22-68.41c-1.6-0.89-4.37-0.73-6.18,0.36l-122.78,73.65l-22.34,0.37l0.24,14.44l0.07,0
			c0.13,0.43,0.46,0.83,1.02,1.14l145.39,80.72c1.6,0.89,4.37,0.73,6.18-0.36l143.4-86.02c0.51-0.31,0.88-0.66,1.12-1.02l0.38,0.25
			l14.33-44.45C725.19,493.63,724.13,491.04,721.93,489.82z"/>
		<path class="st5" d="M717.06,487.1l-17.17-9.53l0.01-0.03l-124.24-68.98c-3-1.67-6.78-0.13-7.76,3.17l-9.4,31.6
			c-0.45,0.15-0.88,0.33-1.27,0.56l-143.4,86.02c-1.81,1.09-1.99,2.69-0.38,3.58l145.39,80.72c1.6,0.89,4.37,0.73,6.18-0.36
			l143.4-86.02c0.78-0.47,1.24-1.04,1.4-1.6l0.02,0.01l9.77-32.9C720.32,490.91,719.26,488.32,717.06,487.1z"/>
		<g>
			<path class="st2" d="M557.61,477.82l-18.33-10.18c-1.33-0.74-1.18-2.06,0.32-2.96l15-9c1.5-0.9,3.79-1.03,5.12-0.3l18.33,10.18
				c1.33,0.74,1.18,2.06-0.32,2.96l-15,9C561.23,478.42,558.94,478.55,557.61,477.82z"/>
			<path class="st2" d="M594.93,498.54l-18.33-10.18c-1.33-0.74-1.18-2.06,0.32-2.96l15-9c1.5-0.9,3.79-1.03,5.12-0.3l18.33,10.18
				c1.33,0.74,1.18,2.06-0.32,2.96l-15,9C598.55,499.14,596.25,499.27,594.93,498.54z"/>
			<path class="st2" d="M632.25,519.26l-18.33-10.18c-1.33-0.74-1.18-2.06,0.32-2.96l15-9c1.5-0.9,3.79-1.03,5.12-0.3L652.68,507
				c1.33,0.74,1.18,2.06-0.32,2.96l-15,9C635.86,519.86,633.57,519.99,632.25,519.26z"/>
			<path class="st2" d="M669.56,539.98l-18.33-10.18c-1.33-0.74-1.18-2.06,0.32-2.96l15-9c1.5-0.9,3.79-1.03,5.12-0.3L690,527.72
				c1.33,0.74,1.18,2.06-0.32,2.96l-15,9C673.18,540.58,670.89,540.71,669.56,539.98z"/>
			<path class="st2" d="M523.39,498.34l-18.33-10.18c-1.33-0.74-1.18-2.06,0.32-2.96l15-9c1.5-0.9,3.79-1.03,5.12-0.3l18.33,10.18
				c1.33,0.74,1.18,2.06-0.32,2.96l-15,9C527.01,498.95,524.72,499.08,523.39,498.34z"/>
			<path class="st2" d="M560.71,519.06l-18.33-10.18c-1.33-0.74-1.18-2.06,0.32-2.96l15-9c1.5-0.9,3.79-1.03,5.12-0.3l18.33,10.18
				c1.33,0.74,1.18,2.06-0.32,2.96l-15,9C564.33,519.67,562.04,519.8,560.71,519.06z"/>
			<path class="st2" d="M598.03,539.78L579.7,529.6c-1.33-0.74-1.18-2.06,0.32-2.96l15-9c1.5-0.9,3.79-1.03,5.12-0.3l18.33,10.18
				c1.33,0.74,1.18,2.06-0.32,2.96l-15,9C601.65,540.39,599.36,540.52,598.03,539.78z"/>
			<path class="st2" d="M635.35,560.5l-18.33-10.18c-1.33-0.74-1.18-2.06,0.32-2.96l15-9c1.5-0.9,3.79-1.03,5.12-0.3l18.33,10.18
				c1.33,0.74,1.18,2.06-0.32,2.96l-15,9C638.97,561.11,636.67,561.24,635.35,560.5z"/>
			<path class="st2" d="M489.18,518.87l-18.33-10.18c-1.33-0.74-1.18-2.06,0.32-2.96l15-9c1.5-0.9,3.79-1.03,5.12-0.3l18.33,10.18
				c1.33,0.74,1.18,2.06-0.32,2.96l-15,9C492.8,519.47,490.51,519.61,489.18,518.87z"/>
			<path class="st2" d="M526.5,539.59l-18.33-10.18c-1.33-0.74-1.18-2.06,0.32-2.96l15-9c1.5-0.9,3.79-1.03,5.12-0.3l18.33,10.18
				c1.33,0.74,1.18,2.06-0.32,2.96l-15,9C530.12,540.19,527.82,540.33,526.5,539.59z"/>
			<path class="st2" d="M563.81,560.31l-18.33-10.18c-1.33-0.74-1.18-2.06,0.32-2.96l15-9c1.5-0.9,3.79-1.03,5.12-0.3l18.33,10.18
				c1.33,0.74,1.18,2.06-0.32,2.96l-15,9C567.43,560.91,565.14,561.04,563.81,560.31z"/>
			<path class="st2" d="M454.96,539.4l-18.33-10.18c-1.33-0.74-1.18-2.06,0.32-2.96l15-9c1.5-0.9,3.79-1.03,5.12-0.3l18.33,10.18
				c1.33,0.74,1.18,2.06-0.32,2.96l-15,9C458.58,540,456.29,540.13,454.96,539.4z"/>
			<path class="st2" d="M492.28,560.11l-18.33-10.18c-1.33-0.74-1.18-2.06,0.32-2.96l15-9c1.5-0.9,3.79-1.03,5.12-0.3l18.33,10.18
				c1.33,0.74,1.18,2.06-0.32,2.96l-15,9C495.9,560.72,493.61,560.85,492.28,560.11z"/>
			<path class="st2" d="M529.6,580.83l-18.33-10.18c-1.33-0.74-1.18-2.06,0.32-2.96l15-9c1.5-0.9,3.79-1.03,5.12-0.3l18.33,10.18
				c1.33,0.74,1.18,2.06-0.32,2.96l-15,9C533.22,581.44,530.93,581.57,529.6,580.83z"/>
		</g>
		<path class="st4" d="M621.57,568.77l-18.33-10.18c-1.33-0.74-3.62-0.6-5.12,0.3l-15,9l0,0l-32.99,19.79
			c-2.18,1.31-2.38,3.23-0.46,4.3l16.18,8.98c1.92,1.07,5.24,0.87,7.42-0.43l32.99-19.79l0,0l15-9
			C622.75,570.83,622.9,569.5,621.57,568.77z"/>
		<path class="st4" d="M705.44,489.17l-10.9-6.05l0.01-0.02l-85.94-47.72l-0.02,0.06l-32.12-17.83c-1.29-0.72-2.91-0.05-3.33,1.36
			l-5.92,19.94c-0.31,1.04,0.15,2.15,1.09,2.67l12.22,6.78l-0.01,0.02l85.94,47.72l0.02-0.06l30.08,16.7
			c2.33,1.3,5.27,0.1,6.03-2.46l4.83-16.27C707.97,492.13,707.15,490.12,705.44,489.17z"/>
	</g>
	<g>
		<path class="st14" d="M337.01,447.68c0,0-5.56,19.38,26.29,42.86c6.45,4.75,29.37,6.98,29.37,6.98l2.54-8.39
			c0,0-19.54-6.4-25.83-14.23c-8.45-10.51-19.83-42.46-24.1-42.83C341.01,431.69,337.01,447.68,337.01,447.68z"/>
		
			<ellipse transform="matrix(0.9998 -0.0177 0.0177 0.9998 -11.9656 6.4149)" class="st1" cx="355.79" cy="678.01" rx="42.86" ry="21.29"/>
		<path class="st3" d="M327.07,660.9l10.03-1.37c6.69-3.12,9.8-5.44,12.81-3.74l0.85,0.48c3.01,1.69,2.67,4.74-0.77,6.78
			l-14.63,11.89c-3.43,2.03-8.1,1.45-10.88-0.94c0,0-1.67-1.47-0.55-7.76C324.56,662.66,324.33,662.53,327.07,660.9z"/>
		<path class="st15" d="M337.38,661.03c-0.8,6.94-13.52,6.94-13.52,1.65l7.05-160.2l42.42-11.96L337.38,661.03z"/>
		<path class="st3" d="M367.96,675.9l9.94,1.87c7.33-0.84,11.02-2.06,13.34,0.5l0.66,0.73c2.32,2.56,1.03,5.34-2.87,6.19
			l-17.64,6.65c-3.9,0.84-8.14-1.18-10.02-4.33c0,0-1.12-1.92,1.93-7.53C365.03,676.77,364.85,676.57,367.96,675.9z"/>
		<path class="st15" d="M376.08,680.15c-2.22,5.61-11.93,4.38-11.76-0.22c4.54-55.51-5.91-107.94-19.37-158.95l40.74-4.4
			C387.27,576.26,386.74,627.42,376.08,680.15z"/>
		<path class="st3" d="M383,501.82l15.01,77.59c0,0-34.82,35.27-75.47,0.82l3.73-73.06L383,501.82z"/>
		<path class="st15" d="M369.64,398.56c-3.03,10.56-10.88,13.53-17.53,6.64c-6.65-6.89-9.59-21.04-6.56-31.59
			s10.88-13.53,17.53-6.64C369.73,373.86,372.67,388.01,369.64,398.56z"/>
		<path class="st15" d="M380.77,395.21c-3.03,10.56-14.35,14.38-21,7.48c-6.65-6.89-9.59-21.04-6.56-31.59
			c3.03-10.56,10.88-13.53,17.53-6.64C377.39,371.36,383.8,384.66,380.77,395.21z"/>
		<path class="st15" d="M355.17,425.68l-1.13-0.25c-3.82-0.85-6.25-4.68-5.4-8.5l4.81-21.55c0.85-3.82,4.68-6.25,8.5-5.4l1.13,0.25
			c3.82,0.85,6.25,4.68,5.4,8.5l-1.57,21.39C366.04,423.94,358.99,426.53,355.17,425.68z"/>
		<path class="st3" d="M344.82,396.83c0,0-1.23,7.33,11.55,7.9c10.23,0.45,6.99-18,17.1-19.76c11.13-1.94,13-15.73,8.55-20.97
			s-16.76-7.87-25.61-3.85C347.57,364.17,328.93,367.24,344.82,396.83z"/>
		<path class="st15" d="M374.96,390.91c-0.74,2.57-3.41,4.05-5.98,3.31c-2.57-0.74-4.05-3.41-3.31-5.98
			c0.74-2.57,3.41-4.05,5.98-3.31S375.69,388.34,374.96,390.91z"/>
		<path class="st5" d="M326.2,506.04c3.61-19.78-0.27-35.41,0.04-56.44c0-37.81-1.81-47.03,18.17-41.28l5.63,1.5
			c2.7,0.72,5.33,1.74,7.82,3.02c26.35,13.58,33.38,17.76,32.23,33.51c0.12,25.94-11.96,31.23-5.54,53.94
			C379.13,518.22,332.23,518.88,326.2,506.04z"/>
		<path class="st16" d="M367.92,406.17l-1.15-2.65c0,0,2.04,2.04,5.92,1.54C372.7,405.06,370.41,406.38,367.92,406.17z"/>
		<ellipse class="st2" cx="347.11" cy="375.98" rx="9.21" ry="10.7"/>
		<path class="st3" d="M345.3,372.74c0.38-5.49-7.12-7.81-10-3.13c-0.94,1.53-1.77,3.66-2.4,6.59
			c-3.54,16.49-31.27,14.41-17.36,43.2c0,0-12.16,19.12,10.91,26.87c11.81,3.97,11.21-26.31,11.21-26.31s4.54-13.98,8.95-24.95
			c2.07-5.15,2.21-10.98-0.11-16.02C345.55,376.92,345.15,374.84,345.3,372.74z"/>
		<path class="st3" d="M348.69,407.27c-2.19-0.51-4.19,1.44-3.79,3.66c0.44,2.46,1.98,5.39,6.5,6.87
			c6.25,2.04,13.09,0.83,16.37,0.02c0.78-0.19,0.92-1.23,0.23-1.64C364.27,413.92,355.31,408.8,348.69,407.27z"/>
		<polygon class="st5" points="427.36,447.58 397.33,430.19 415,378.51 445.03,395.91 		"/>
		<path class="st5" d="M366.3,440.79c0,0,25.84,62.83,54.04,32.56s18.29-51.61,18.29-51.61l-3.78-1.03c0,0-11.47,38.01-23.68,34.25
			c-12.21-3.76-28.79-27.23-34.67-28.33C370.64,425.52,366.3,440.79,366.3,440.79z"/>
		<path class="st15" d="M393.65,490.7l-0.58,1.72c-1.06,3.16-0.2,6.45,1.92,7.33l4.35,1.79c2.12,0.87,4.73-0.99,5.79-4.15l0.58-1.72
			c1.06-3.16,0.2-6.45-1.92-7.33l-4.35-1.79C397.32,485.68,394.71,487.55,393.65,490.7z"/>
		<path class="st15" d="M431.62,432.82l4.05,0.9c2.49,0.56,4.99-1.03,5.54-3.52l1.96-8.76c0.56-2.49-1.03-4.99-3.52-5.55l-4.05-0.9
			c-2.49-0.56-4.99,1.03-5.54,3.52l-1.96,8.76C427.55,429.77,429.13,432.27,431.62,432.82z"/>
	</g>
	<path class="st15" d="M1115.42,456.22L1115.42,456.22c-2.88,0-5.24-2.36-5.24-5.24v-5.79c0-2.88,2.36-5.24,5.24-5.24l0,0
		c2.88,0,5.24,2.36,5.24,5.24v5.79C1120.66,453.86,1118.31,456.22,1115.42,456.22z"/>
	<g>
		
			<ellipse transform="matrix(0.9998 -0.0177 0.0177 0.9998 -10.1262 19.0176)" class="st1" cx="1067.53" cy="580.62" rx="39.57" ry="19.66"/>
		<path class="st3" d="M1086.9,601.11l-0.82-20.53c0.33-4.79,3.39-5.76,5.99-7.97c1.17-0.99,2.88-0.99,4.09-0.05l2.61,2.03
			c3.87,2.8,3.41,7.98,2.71,11.29l-2.8,18.19C1097.98,607.36,1087.81,612.12,1086.9,601.11z"/>
		<path class="st17" d="M1100.17,574.06c0,4.88-11.87,4.88-11.87,0v-15.85h11.87V574.06z"/>
		<path class="st3" d="M1032.67,570.07l16.51-16.35c2.22-1.28,7.2-1.82,10.58-1.37c1.52,0.2,2.67,1.47,2.78,3l0.24,3.3
			c0.52,4.75,0.09,5.43-2.83,7.12l-17.36,10.03c-2.92,1.69-7.39,1.87-9.92,0.41l-0.72-0.41
			C1029.42,574.34,1029.74,571.76,1032.67,570.07z"/>
		<path class="st17" d="M1061.19,553.13c0,4.88-11.87,4.88-11.87,0v-15.85h11.87V553.13z"/>
		<path class="st4" d="M1062.78,548.63c-4.65,3.34-12.34,3.26-14.91-0.62c-8.71-47.99-12.57-96.83-11.98-146.45l36.86-10.93
			C1066.18,450.19,1058.33,502.91,1062.78,548.63z"/>
		<path class="st4" d="M1101.55,564c-3.76,5.58-12.24,5.62-14.75,1.59l-24.84-166.53h42.82L1101.55,564z"/>
		<path class="st16" d="M1067.53,436.38l-2.13,15.01l-8.19-31.83c1.84,0.49,3.83,0.85,5.89,1.13L1067.53,436.38z"/>
		<path class="st9" d="M1039.52,313.93l-9.19,27.85c-1.54,3.94-6.69,17.99-11.92,28.48c-2.56,5.12,7.27,11.74,11.69,12.44
			c2.27,0.36,4.48,0.04,5.72-1.92c5.83-9.16,6.13-31.07,6.19-31.47C1042.1,348.68,1039.52,313.93,1039.52,313.93z"/>
		<path class="st10" d="M1030.98,460.54c3.07-16.84,8.68-95.91,5.9-119.15c-1.68-38.71,11.02-47.15,31.3-39.75l8.38,2.23
			c24.47,13.18,31.39,12.03,32.53,38.42l-1.83,118.25C1107.25,489.76,1029.42,494.9,1030.98,460.54z"/>
		<path class="st18" d="M1045.93,280.77c0,0,3.35-6.55,12.49-7.51l-5.74-5.54C1052.68,267.72,1045.5,267.68,1045.93,280.77z"/>
		<polygon class="st15" points="1023.64,373.98 1029.85,414.93 1038.31,415.36 1036.87,377.39 		"/>
		<g>
			
				<ellipse transform="matrix(0.8452 -0.5345 0.5345 0.8452 -49.5019 620.9908)" class="st2" cx="1047.15" cy="395.94" rx="23.22" ry="37.16"/>
			
				<rect x="1004.65" y="391.89" transform="matrix(-0.5345 -0.8452 0.8452 -0.5345 1261.1936 1493.2489)" class="st19" width="74.31" height="14.86"/>
			
				<ellipse transform="matrix(0.8452 -0.5345 0.5345 0.8452 -54.5628 616.5115)" class="st5" cx="1036.88" cy="402.44" rx="23.22" ry="37.16"/>
			
				<ellipse transform="matrix(0.8452 -0.5345 0.5345 0.8452 -55.2257 615.9211)" class="st9" cx="1035.53" cy="403.29" rx="16.98" ry="27.18"/>
			<path class="st2" d="M1027.97,387.19l20.59,31.76c1.09,1.69,0.61,3.97-1.08,5.06l0,0c-1.69,1.09-3.97,0.61-5.06-1.08
				l-20.59-31.76c-1.09-1.69-0.61-3.97,1.08-5.06l0,0C1024.6,385.02,1026.88,385.5,1027.97,387.19z"/>
		</g>
		<path class="st15" d="M1079.35,396.65l-15.69,10.1l2.92,11.04l25.95-14.63C1098.48,400.16,1085.99,391.55,1079.35,396.65z"/>
		<path class="st15" d="M1064.73,419.55h-2.15c-2.29,0-4.17-1.88-4.17-4.17v-7.93c0-2.29,1.88-4.17,4.17-4.17h2.15
			c2.29,0,4.17,1.88,4.17,4.17v7.93C1068.9,417.68,1067.02,419.55,1064.73,419.55z"/>
		<path class="st5" d="M1097.19,322.7c-6.17,0-7.29,4.45-7.04,10c0.78,17.2,3.3,48.28,0,53.82c-4.48,7.51-20.14,12.8-20.14,12.8
			l7.75,16.12c0,0,24.96-9.53,27.87-17.6c2.72-7.54,7.58-26.66,2.35-66.48C1107.34,326.42,1102.71,322.7,1097.19,322.7
			L1097.19,322.7z"/>
		<path class="st4" d="M1059.55,301.97c0,0-12.03,17.08-8.67,34.56c3.36,17.49,7.54,24.99,7.54,24.99l11.6-28.14l10.2-15.09
			l0.34-14.43C1080.55,303.86,1071.05,296.33,1059.55,301.97z"/>
		<path class="st5" d="M1065,301.88c0,0-20.27,20.82-6.58,59.65c0,0-13.2-21.85-13.98-34.58l5.7-5.5l-8.13-5.54
			c0,0,7.11-17.23,16.49-18.55L1065,301.88z"/>
		<g>
			<path class="st16" d="M1065,301.88c0,0,3.2,2.96,4.82,3.29c1.62,0.34,19.02-13.72,12.72-29.48c-3.99-9.98-22.85-2.16-22.85-2.16
				L1065,301.88z"/>
			<path class="st15" d="M1070.75,315.65l-0.97,0.17c-3.29,0.56-6.43-1.67-6.99-4.96l-3.15-18.53c-0.56-3.29,1.67-6.43,4.96-6.99
				l0.97-0.17c3.29-0.56,6.43,1.67,6.99,4.96l5.64,17.36C1078.76,310.77,1074.03,315.09,1070.75,315.65z"/>
			<path class="st3" d="M1057.02,301.06c0,0,13.7,0.3,22.63-12.83c0,0-8.62,20.03-21.11,21.74L1057.02,301.06z"/>
			<path class="st15" d="M1067.72,295.58c-1.85,8.85-8.11,11.77-13.99,6.51c-5.88-5.25-9.15-16.69-7.31-25.54
				c1.85-8.85,8.11-11.77,13.99-6.51C1066.29,275.3,1069.57,286.73,1067.72,295.58z"/>
			<path class="st15" d="M1076.65,292.16c-1.85,8.85-10.91,12.67-16.79,7.42c-5.88-5.25-9.15-16.69-7.31-25.54
				c1.85-8.85,8.11-11.77,13.99-6.51C1072.43,272.78,1078.5,283.31,1076.65,292.16z"/>
			<path class="st3" d="M1063.64,273.6c0,0,0.9,16.75,14.54,18.23c0,0,13.25-10.96-0.2-24.96c-11.86-12.34-25.3,0.84-25.3,0.84
				L1063.64,273.6z"/>
			<path class="st3" d="M1072.08,282.1c-3.71-3.56-10.32-2.15-19.21,3.15c-8.68,2.02-11.6-7.81-11.6-7.81
				c-2.3-5.12,0.84-8.13,5.95-10.43l13.32-5.98c7.53-3.43,16.26,1.76,18.56,6.87l0.51,0.82
				C1081.91,273.84,1077.19,279.8,1072.08,282.1z"/>
			<path class="st15" d="M1079.16,294.15c-0.45,2.15-2.56,3.53-4.71,3.08c-2.15-0.45-3.53-2.56-3.08-4.71s2.56-3.53,4.71-3.08
				C1078.23,289.89,1079.61,291.99,1079.16,294.15z"/>
		</g>
		<path class="st5" d="M1080.55,303.86l18.99,10.89L1084,329.49l-5.41-1.27l-0.34,11.3c0,0-19.24,16.87-19.83,22.01
			C1059.69,337.63,1078.25,317.19,1080.55,303.86z"/>
	</g>
	<g>
		<path class="st19" d="M955.18,487.77c0,1.05-0.07,2.09-0.17,3.13c1.15,11.52-4.04,23.35-15.62,32.16
			c-13.11,9.99-31.3,13.75-48.24,11.29c7.45,2.53,15.75,3.95,24.5,3.95c32.24,0,58.38-19.17,58.38-42.82
			c0-12.46-7.27-23.68-18.86-31.51L955.18,487.77L955.18,487.77z"/>
		<path class="st20" d="M939.4,523.07c11.57-8.81,16.77-20.64,15.62-32.16c-0.94,9.44-6.14,18.68-15.62,25.89
			c-21.05,16.03-55.18,16.03-76.23,0c-9.48-7.22-14.67-16.46-15.62-25.9c-1.15,11.52,4.04,23.35,15.62,32.16
			c7.94,6.04,17.73,9.81,27.99,11.29C908.09,536.82,926.28,533.05,939.4,523.07z"/>
		<path class="st4" d="M854.83,424.68c-2.79-1.75-5.27-3.62-7.45-5.57v10.66c0,6.68,5.26,13.36,15.79,18.46
			c21.05,10.19,55.18,10.2,76.23,0c10.52-5.1,15.79-11.78,15.79-18.46l0,0v-10.66c-2.19,1.96-4.66,3.83-7.45,5.57
			C922.08,440.71,880.49,440.71,854.83,424.68z"/>
		<path class="st4" d="M955.18,475.34L955.18,475.34c0,6.68-5.26,13.36-15.79,18.46c-4.03,1.95-8.54,3.53-13.34,4.73
			c-0.62,0.77-1.43,1.41-2.4,1.82l-18.15,7.75c-3.17,1.35-6.87-0.13-8.22-3.3l-1.05-2.47c-0.14-0.33-0.25-0.68-0.33-1.02
			c-7.01-0.34-13.9-1.34-20.26-3.01l4.39,9.48c1.45,3.13,0.07,6.87-3.05,8.31l-2.43,1.13c-3.13,1.45-6.87,0.07-8.31-3.05l-8.29-17.9
			c-0.82-1.77-0.73-3.73,0.06-5.36c-7.08-4.61-10.63-10.09-10.63-15.57v12.43c0,1.05,0.07,2.09,0.17,3.13
			c0.94,9.44,6.14,18.68,15.62,25.9c21.05,16.03,55.18,16.03,76.23,0c9.48-7.22,14.67-16.46,15.62-25.89
			c0.1-1.04,0.17-2.09,0.17-3.13h0v-23.78v-0.61h0V475.34z M914.22,519.41l-0.68,2.59c-0.88,3.33-4.32,5.34-7.65,4.47l-19.08-5.01
			c-3.33-0.88-5.34-4.32-4.47-7.65l0.68-2.59c0.88-3.33,4.32-5.34,7.65-4.47l19.08,5.01C913.09,512.64,915.1,516.08,914.22,519.41z
			 M943.14,511.65l-18.1,7.84c-3.16,1.37-6.87-0.1-8.24-3.26l-1.07-2.46c-1.37-3.16,0.1-6.87,3.26-8.24l18.1-7.84
			c3.16-1.37,6.87,0.1,8.24,3.26l1.07,2.46C947.77,506.58,946.3,510.28,943.14,511.65z"/>
		<path class="st21" d="M947.73,403.2c-25.65,16.03-67.25,16.03-92.9,0c-2.79-1.75-5.27-3.62-7.45-5.57h-11.71
			c0.58,7.55,4.49,15.02,11.71,21.48c2.19,1.96,4.66,3.83,7.45,5.57c25.65,16.03,67.25,16.03,92.9,0c2.79-1.75,5.26-3.62,7.45-5.57
			c7.22-6.46,11.14-13.93,11.71-21.48h-11.71C953,399.58,950.53,401.45,947.73,403.2z"/>
		<path class="st22" d="M966.97,371.36h-0.17c0.1,0.94,0.17,1.87,0.17,2.81V371.36z"/>
		<path class="st22" d="M835.59,371.36v2.81c0-0.94,0.07-1.87,0.17-2.81H835.59z"/>
		<path class="st22" d="M955.19,397.62h11.71h0.08v-23.45C966.97,382.39,963.03,390.6,955.19,397.62z"/>
		<path class="st22" d="M847.38,397.62c-7.85-7.03-11.79-15.24-11.79-23.45v23.45h0.08H847.38z"/>
		<path class="st5" d="M847.38,397.62c2.19,1.96,4.66,3.83,7.45,5.57c25.65,16.03,67.25,16.03,92.9,0c2.8-1.75,5.27-3.62,7.45-5.58
			c7.85-7.03,11.79-15.24,11.79-23.45c0-0.94-0.07-1.87-0.17-2.81c-1.04-9.55-7.39-18.92-19.07-26.22
			c-25.65-16.03-67.25-16.03-92.9,0c-11.68,7.3-18.03,16.67-19.07,26.22c-0.1,0.94-0.17,1.87-0.17,2.81
			C835.59,382.39,839.53,390.6,847.38,397.62z M867.31,350.13c18.76-11.72,49.18-11.72,67.94,0c18.76,11.73,18.76,30.74,0,42.46
			c-18.76,11.72-49.18,11.72-67.94,0C848.55,380.87,848.55,361.86,867.31,350.13z"/>
		<ellipse class="st3" cx="901.28" cy="371.36" rx="48.04" ry="30.02"/>
		<path class="st2" d="M945.33,500.96c-1.37-3.16-5.08-4.63-8.24-3.26l-18.1,7.84c-3.16,1.37-4.63,5.08-3.26,8.24l1.07,2.46
			c1.37,3.16,5.08,4.63,8.24,3.26l18.1-7.84c3.16-1.37,4.63-5.08,3.26-8.24L945.33,500.96z"/>
		<path class="st2" d="M909.75,511.77l-19.08-5.01c-3.33-0.88-6.77,1.13-7.65,4.47l-0.68,2.59c-0.88,3.33,1.13,6.77,4.47,7.65
			l19.08,5.01c3.33,0.88,6.77-1.13,7.65-4.47l0.68-2.59C915.1,516.08,913.09,512.64,909.75,511.77z"/>
		<path class="st2" d="M897.29,504.8c1.35,3.17,5.05,4.65,8.22,3.3l18.15-7.75c0.97-0.41,1.78-1.05,2.4-1.82
			c-9.38,2.35-19.88,3.28-30.15,2.78c0.08,0.34,0.18,0.68,0.33,1.02L897.29,504.8z"/>
		<path class="st2" d="M857.96,496.27l8.29,17.9c1.45,3.13,5.19,4.5,8.31,3.05l2.43-1.13c3.13-1.45,4.5-5.19,3.05-8.31l-4.39-9.48
			c-4.48-1.17-8.7-2.67-12.48-4.51c-1.89-0.92-3.6-1.88-5.16-2.89C857.22,492.54,857.14,494.5,857.96,496.27z"/>
		<path class="st5" d="M939.4,448.22c-21.05,10.19-55.18,10.19-76.23,0c-10.52-5.1-15.79-11.78-15.79-18.46l0,0v45.57l0,0
			c0,5.48,3.55,10.96,10.63,15.57c1.55,1.01,3.26,1.98,5.16,2.89c0,0,89.36-1.95,92.01-58.65v-5.38c0,0,0,0,0,0l0,0l0,0
			C955.18,436.45,949.92,443.13,939.4,448.22z"/>
		<path class="st21" d="M955.18,429.77v5.38C955.26,433.4,955.27,431.61,955.18,429.77z"/>
		<polygon class="st21" points="955.18,429.77 955.18,429.77 955.18,429.77 		"/>
		<path class="st21" d="M863.17,493.8c3.79,1.83,8,3.33,12.48,4.51c6.35,1.66,13.25,2.67,20.26,3.01
			c10.27,0.5,20.77-0.43,30.15-2.78c4.8-1.2,9.31-2.78,13.34-4.73c10.52-5.1,15.79-11.78,15.79-18.46l0,0v-11.95v-28.24
			C952.53,491.85,863.17,493.8,863.17,493.8z"/>
	</g>
	<g>
		<polygon class="st5" points="820.9,212.58 698.82,458.96 620.91,417.73 742.99,171.36 		"/>
		
			<ellipse transform="matrix(0.033 -0.9995 0.9995 0.033 243.5555 1069.5085)" class="st4" cx="674.46" cy="408.89" rx="25.05" ry="24.2"/>
		<g>
			<path class="st5" d="M666.39,420.33c-2.27-1.58-4.6-4.2-5.62-7.05l4.71-2.82c1.29,2.72,2.68,4.53,4.65,5.57
				c2.3,1.22,3.81,0.78,4.78-1.18c2.17-4.38-8.7-10.03-4.91-17.68c2.07-4.17,5.88-5.8,10.14-4.57l2.17-4.38l3.98,2.11l-2.13,4.29
				c2.44,1.77,3.65,4.13,4.39,6.72l-4.81,1.97c-0.78-2.18-1.7-3.58-3.42-4.49c-1.97-1.04-3.44-0.8-4.38,1.11
				c-2,4.04,9,9.43,4.98,17.55c-2.02,4.08-5.76,6.08-10.45,4.78l-2.19,4.42l-3.98-2.11L666.39,420.33z"/>
		</g>
		<path class="st2" d="M800.91,229.32l-58.44-30.92c-1.57-0.83-2.09-3.06-1.15-4.95l0,0c0.94-1.89,2.99-2.76,4.56-1.93l58.44,30.92
			c1.57,0.83,2.09,3.06,1.15,4.95h0C804.53,229.29,802.48,230.15,800.91,229.32z"/>
		<path class="st2" d="M776.89,234.65l-40.29-21.32c-1.24-0.66-1.66-2.42-0.91-3.92l0,0c0.74-1.5,2.37-2.19,3.61-1.53l40.29,21.32
			c1.24,0.66,1.66,2.42,0.91,3.92l0,0C779.76,234.62,778.14,235.3,776.89,234.65z"/>
		<path class="st2" d="M755.16,236.13c0.37-0.9-0.14-2.45-0.94-2.88l-21.77-11.52c-1.24-0.66-2.87,0.03-3.61,1.53
			c-0.74,1.5-0.33,3.26,0.91,3.92l22.14,11.71c1.07,0.56,2.05,0.17,2.55-1.02L755.16,236.13z"/>
		<path class="st2" d="M740.52,266.05c0.37-0.9-0.14-2.45-0.94-2.88l-21.77-11.52c-1.24-0.66-2.87,0.03-3.61,1.53
			c-0.74,1.5-0.33,3.26,0.91,3.92l22.14,11.71c1.07,0.56,2.05,0.17,2.55-1.02L740.52,266.05z"/>
		<path class="st2" d="M730.53,286.27c0.37-0.9-0.14-2.45-0.94-2.88l-21.77-11.52c-1.24-0.66-2.87,0.03-3.61,1.53
			c-0.74,1.5-0.33,3.26,0.91,3.92l22.14,11.71c1.07,0.56,2.05,0.17,2.55-1.02L730.53,286.27z"/>
		<path class="st2" d="M721.18,303.99c0.37-0.9-0.14-2.45-0.94-2.88l-21.77-11.52c-1.24-0.66-2.87,0.03-3.61,1.53
			c-0.74,1.5-0.33,3.26,0.91,3.92l22.14,11.71c1.07,0.56,2.05,0.17,2.55-1.02L721.18,303.99z"/>
		<path class="st2" d="M790.26,257.98c0.37-0.9-0.14-2.45-0.94-2.88l-21.77-11.52c-1.24-0.66-2.87,0.03-3.61,1.53
			c-0.74,1.5-0.33,3.26,0.91,3.92L787,260.74c1.07,0.56,2.05,0.17,2.55-1.02L790.26,257.98z"/>
		<path class="st2" d="M715.89,378.79l-46.41-24.56c-2.2-1.16-2.92-4.28-1.61-6.92l4.86-9.81c1.31-2.64,4.18-3.86,6.37-2.69
			l46.41,24.56c2.2,1.16,2.92,4.28,1.61,6.92l-4.86,9.81C720.95,378.74,718.08,379.95,715.89,378.79z"/>
		<path class="st2" d="M781.44,270.8l-58.76-31.09c-0.45-0.24-0.6-0.88-0.33-1.42l0,0c0.27-0.54,0.86-0.79,1.31-0.55l58.76,31.09
			c0.45,0.24,0.6,0.88,0.33,1.42l0,0C782.48,270.79,781.89,271.04,781.44,270.8z"/>
		<path class="st2" d="M744.59,342.8l-58.76-31.09c-0.45-0.24-0.6-0.88-0.33-1.42l0,0c0.27-0.54,0.86-0.79,1.31-0.55l58.76,31.09
			c0.45,0.24,0.6,0.88,0.33,1.42l0,0C745.63,342.79,745.04,343.04,744.59,342.8z"/>
	</g>
	<g>
		<path class="st23" d="M497.71,367.91c-3.37-2.18-7.43-6.01-10.25-10.36l3.27-5.07c3.03,4.12,5.6,6.77,8.32,8.15
			c3.18,1.61,4.51,0.72,4.34-2.49c-0.37-7.19-15.33-14.63-15.98-27.19c-0.35-6.84,2.69-9.92,7.95-8.55l-0.37-7.19l5.5,2.78
			l0.36,7.05c3.66,2.47,6.39,6.02,8.74,10l-3.89,3.74c-2.16-3.34-3.98-5.41-6.36-6.62c-2.72-1.38-4.13-0.8-3.96,2.34
			c0.34,6.63,15.28,13.65,15.97,26.98c0.35,6.7-2.39,10.34-8.15,8.92l0.38,7.26l-5.5-2.78L497.71,367.91z"/>
	</g>
	<polygon class="st24" points="725.93,142 603.85,388.37 681.76,429.6 803.83,183.22 	"/>
	<g>
		<path class="st25" d="M875.24,356.08l8.8-5.52c0.86-0.54,1.95-0.58,2.85-0.1l44.19,23.39c1.94,1.03,2.04,3.77,0.18,4.94l-8.8,5.52
			c-0.86,0.54-1.95,0.58-2.85,0.1l-44.19-23.39C873.48,359.99,873.38,357.25,875.24,356.08z"/>
		<path class="st25" d="M920.86,349.3l9.33,4.94c1.94,1.03,2.04,3.77,0.18,4.94l-41.88,26.28c-0.86,0.54-1.95,0.58-2.85,0.1
			l-9.33-4.94c-1.94-1.03-2.04-3.77-0.18-4.94l41.88-26.28C918.87,348.87,919.96,348.83,920.86,349.3z"/>
	</g>
	<g>
		<line class="st23" x1="243.28" y1="606.46" x2="243.28" y2="627.97"/>
		
			<ellipse transform="matrix(0.8633 -0.5047 0.5047 0.8633 -249.2742 199.3069)" class="st23" cx="243.28" cy="559.81" rx="28.12" ry="48.71"/>
		<path class="st23" d="M219.73,545.12c0,0,19.83-20.45,47.1,26.58C266.83,571.7,242.06,589.77,219.73,545.12z"/>
		<path class="st23" d="M249.01,560.48c0,6.43-3.11,9.84-6.94,7.63c-3.83-2.21-6.94-9.22-6.94-15.65c0-6.43,3.11-9.84,6.94-7.63
			S249.01,554.05,249.01,560.48z"/>
	</g>
	<line class="st23" x1="499.38" y1="393.09" x2="499.38" y2="456.22"/>
	
		<ellipse transform="matrix(0.8633 -0.5047 0.5047 0.8633 -106.583 299.3902)" class="st23" cx="499.38" cy="346.45" rx="28.12" ry="48.71"/>
	<g>
		<line class="st23" x1="1233.51" y1="558.61" x2="1233.51" y2="651.98"/>
		
			<ellipse transform="matrix(0.8633 -0.5047 0.5047 0.8633 -63.904 685.5208)" class="st23" cx="1233.51" cy="460.73" rx="57.74" ry="100.01"/>
		<path class="st23" d="M1194.19,403.19c13.68,2.71,33.4,0.76,38.23,0.21c0.67-0.08,1.52,0.43,2.17,1.3
			c4.71,6.27,24,31.48,38.13,43.93c1,0.88,1.63,2.38,1.47,3.47c-1.78,12.13-12.54,75.55-40.67,59.31
			c-28.24-16.3-38.97-92.67-40.69-106.43C1192.68,403.76,1193.25,403,1194.19,403.19z"/>
		<path class="st4" d="M1205.99,418.91c9.44,1.75,22.61,0.52,26.44,0.1c0.67-0.07,1.5,0.42,2.15,1.29
			c3.74,4.95,16.61,21.67,26.34,30.42c1,0.9,1.62,2.37,1.45,3.45c-1.49,9.83-9.23,52.96-28.85,41.64
			c-19.69-11.37-27.42-63.81-28.87-75.08C1204.5,419.5,1205.06,418.73,1205.99,418.91z"/>
	</g>
	<g>
		
			<ellipse transform="matrix(0.9998 -0.0177 0.0177 0.9998 -17.3601 4.3415)" class="st1" cx="236.2" cy="981.34" rx="45.08" ry="22.39"/>
		<path class="st3" d="M199.88,960.45l10.56-1.32c7.07-3.2,10.37-5.61,13.51-3.79l0.89,0.51c3.15,1.82,2.75,5.02-0.88,7.12
			l-15.52,12.33c-3.63,2.1-8.53,1.44-11.43-1.11c0,0-1.74-1.57-0.49-8.16C197.22,962.27,196.98,962.13,199.88,960.45z"/>
		<path class="st3" d="M246.29,985.37l10.46,1.97c7.71-0.89,11.59-2.16,14.03,0.53l0.69,0.76c2.44,2.69,1.08,5.62-3.02,6.5
			l-18.55,6.99c-4.1,0.89-8.56-1.24-10.54-4.55c0,0-1.17-2.02,2.03-7.92C243.2,986.28,243.01,986.08,246.29,985.37z"/>
		<path class="st2" d="M253.57,987.95c0,5.28-12.85,5.28-12.85,0v-17.17h12.85V987.95z"/>
		<path class="st3" d="M252.17,959.75c-4.12,5.66-12.84,5.69-15.22,1.61l-17.59-168.75h43.98L252.17,959.75z"/>
		<path class="st2" d="M209.82,962.55c-0.29,4.79-13.15,4.79-12.85,0l0.95-15.55h12.85L209.82,962.55z"/>
		<path class="st3" d="M211.45,939.39c-4.87,5.01-14.44,2.87-16.29-0.75l6.45-146.87l30.63,4.54L211.45,939.39z"/>
		
			<ellipse transform="matrix(0.9917 -0.1282 0.1282 0.9917 -84.2268 35.5101)" class="st15" cx="233.63" cy="671.79" rx="13.68" ry="24.14"/>
		<path class="st15" d="M258,681.38c-3.18,11.1-15.09,15.12-22.08,7.87c-7-7.25-10.09-22.12-6.9-33.22
			c3.19-11.1,11.44-14.23,18.43-6.98C254.44,656.3,261.18,670.28,258,681.38z"/>
		<path class="st15" d="M231.07,713.42l-1.19-0.27c-4.02-0.9-6.57-4.92-5.68-8.94l5.05-22.66c0.9-4.02,4.92-6.57,8.94-5.68
			l1.19,0.27c4.02,0.9,6.57,4.92,5.68,8.94l-1.66,22.49C242.51,711.59,235.09,714.32,231.07,713.42z"/>
		<path class="st3" d="M216.4,680.95c0,0,1.14,9.92,15.23,7.93c10.11-1.42,7.16-17.87,17.27-19.51
			c11.12-1.81,13.13-15.54,8.75-20.81c-4.38-5.27-16.62-8.02-25.49-4.11C223.29,648.35,209.62,648.12,216.4,680.95z"/>
		
			<ellipse transform="matrix(0.9393 -0.3432 0.3432 0.9393 -216.8293 125.8069)" class="st15" cx="247" cy="675.46" rx="5.08" ry="5.08"/>
		<path class="st4" d="M201.97,799.95c3.79-20.8-1.64-39.25-1.31-61.37c0-39.76-1.91-49.46,19.11-43.41l5.92,1.57
			c2.84,0.76,5.61,1.83,8.22,3.17c27.71,14.28,35.11,18.68,33.89,35.24c0.12,27.28-0.5,60.72-1.07,74.14
			C261.02,828.15,208.31,813.44,201.97,799.95z"/>
		<path class="st26" d="M244.49,692.91l-1.2-2.78c0,0,2.15,2.15,6.23,1.62C249.51,691.74,247.1,693.12,244.49,692.91z"/>
		<path class="st15" d="M333.09,760.11l-3.53-4.19c-2.72-3.22-2.3-8.08,0.92-10.8l0,0c3.22-2.72,8.08-2.3,10.8,0.92l3.53,4.19
			c2.72,3.22,2.3,8.08-0.92,10.8l0,0C340.67,763.75,335.81,763.33,333.09,760.11z"/>
		<g>
			<polygon class="st27" points="365.25,871 399.01,897.67 396.69,857.18 			"/>
			<path class="st3" d="M389.08,889.83l9.93,7.84l-0.8-13.99C397.39,890.32,394.24,892.13,389.08,889.83z"/>
			<path class="st4" d="M390.85,872.19c-7.4,6.74-18.86,6.21-25.6-1.19c-6.74-7.4-6.21-18.86,1.19-25.6
				c7.4-6.74,18.86-6.21,25.6,1.19C398.78,853.99,398.24,865.45,390.85,872.19z"/>
			<polygon class="st4" points="391.07,845.61 296.98,692.19 269.48,715.72 349.28,844.9 			"/>
			<path class="st3" d="M379.6,862.23c-1.04-1.14-1.88-2.38-2.57-3.68l-0.06,0.05L293.9,721.7l-19.26,2.62l88.11,142.63l0.06-0.05
				c0.69,1.3,1.54,2.54,2.57,3.68c5.77,6.34,15.01,7.64,22.19,3.65L379.6,862.23z"/>
			<path class="st27" d="M301.59,699.42l0-0.01l-5.67-8.99l-4.79,4.17c-4.17,0.13-8.76,1.86-12.73,5.14
				c-4.3,3.56-6.94,8.18-7.63,12.56l-2.11,1.83l2.69,5.1l0.16-0.04c0.38,0.88,0.87,1.71,1.5,2.46c4.74,5.72,14.83,5.19,22.54-1.19
				C302.89,714.38,305.42,705.23,301.59,699.42z"/>
			<path class="st4" d="M296.87,691.65c-0.11-0.14-0.24-0.25-0.36-0.38l0.02-0.01l-6.26-8.91l-7.3,5.98
				c-2.95,0.78-5.94,2.28-8.64,4.52c-2.63,2.17-4.62,4.75-5.95,7.42l-6.13,5.02l5.84,8.27c0.25,0.42,0.53,0.82,0.85,1.2
				c4.74,5.72,14.83,5.19,22.54-1.19C299.2,707.19,301.61,697.38,296.87,691.65z"/>
			<path class="st2" d="M285.23,704.66c-7.71,6.38-17.8,6.92-22.54,1.19c-4.74-5.72-2.33-15.53,5.38-21.92
				c7.71-6.38,17.8-6.92,22.54-1.19S292.94,698.28,285.23,704.66z"/>
		</g>
		<path class="st15" d="M245.48,722.89c0,0,5.6,29.88,40.09,66.37c9.48,10.03,57.17,3.93,57.17,3.93l-0.03-9.36
			c0,0-35.83,3.88-44.7-8.12C288.02,762.2,273.58,710.51,245.48,722.89z"/>
		<path class="st4" d="M251.85,743.13c5.32,20.24,15.71,39.31,32.64,49.08c12.71,7.33,49.78,2.83,49.78,2.83
			c2.33,2.57,2.79-8.64-0.22-12.68c-0.27-0.36-27.85-1.53-34.75-11.52c-22.67-32.84-37.06-56.12-45.19-58.43
			C240.71,708.6,242.19,727.38,251.85,743.13z"/>
		<path class="st15" d="M349.32,797.64l-5.49-0.02c-4.21-0.02-7.65-3.48-7.63-7.69v0c0.02-4.21,3.48-7.65,7.69-7.63l5.49,0.02
			c4.21,0.02,7.65,3.48,7.63,7.69v0C356.99,794.22,353.53,797.66,349.32,797.64z"/>
	</g>
</g>
</svg>
