<?xml version="1.0" encoding="utf-8"?>
<!-- Generator: Adobe Illustrator 27.5.0, SVG Export Plug-In . SVG Version: 6.00 Build 0)  -->
<svg version="1.1" id="Layer_1" xmlns="http://www.w3.org/2000/svg" xmlns:xlink="http://www.w3.org/1999/xlink" x="0px" y="0px"
	 viewBox="0 0 800 709.33" style="enable-background:new 0 0 800 709.33;" xml:space="preserve">
<style type="text/css">
	.st0{fill-rule:evenodd;clip-rule:evenodd;fill:#B6DDBD;}
	.st1{fill-rule:evenodd;clip-rule:evenodd;fill:#006837;}
	.st2{fill-rule:evenodd;clip-rule:evenodd;fill:#123524;}
	.st3{fill-rule:evenodd;clip-rule:evenodd;fill:#75AE74;}
	.st4{fill-rule:evenodd;clip-rule:evenodd;fill:#02A473;}
	.st5{fill-rule:evenodd;clip-rule:evenodd;fill:#75AE74;stroke:#2F9730;stroke-width:0.216;stroke-miterlimit:22.9256;}
	.st6{fill-rule:evenodd;clip-rule:evenodd;fill:#42A978;}
	.st7{fill-rule:evenodd;clip-rule:evenodd;fill:#44A944;}
	.st8{fill-rule:evenodd;clip-rule:evenodd;fill:#00864F;}
	.st9{fill-rule:evenodd;clip-rule:evenodd;fill:#469129;}
	.st10{fill-rule:evenodd;clip-rule:evenodd;fill:#2D984B;}
	.st11{fill-rule:evenodd;clip-rule:evenodd;fill:#63A843;}
	.st12{fill-rule:evenodd;clip-rule:evenodd;fill:#599928;}
	.st13{fill-rule:evenodd;clip-rule:evenodd;fill:#42A978;stroke:#63A843;stroke-width:0.216;stroke-miterlimit:22.9256;}
	.st14{fill-rule:evenodd;clip-rule:evenodd;fill:#006837;stroke:#469129;stroke-width:0.216;stroke-miterlimit:22.9256;}
	.st15{fill-rule:evenodd;clip-rule:evenodd;fill:#00883D;}
	.st16{fill-rule:evenodd;clip-rule:evenodd;fill:#007228;}
</style>
<g>
	<path class="st0" d="M439.51,415.21c-0.44-0.1-3.8-1.71-4.11-1.96c-0.68-0.54-0.52-0.92-0.57-1.72c-0.5-8.22-2.32-15.72-3.35-23.79
		c-0.37-2.86,0.24-2.94-2.27-3.79c-3.58-1.21-10.41-4.04-13.61-4.58c-6.89-1.15-16.3,0.36-23.71,0.33c-5.26-0.02-4.57,0.5-8.99-0.77
		c-0.06-0.02-0.18-0.06-0.24-0.08l-11.83-3.63c-8.51-2.29-17.14-5.57-25.74-7.6c-2.02-0.48-2.54-0.93-4.64-1.42
		c-2.54-0.59-3.06-0.22-2.83-2.61c0.14-1.43-0.15-9.61-0.4-11.48c-0.76-5.55-0.56-11.81-0.73-17.45c-0.07-2.23-0.45-2.65-0.45-5.18
		c-5.2,0-9.61-0.74-14.73-0.86l-14.59-0.99c-1.78-0.25-5.48-1.56-5.79,1.37c-0.1,1,0.1,2.8,0.05,3.94
		c-0.29,5.84-1.27,12.3-1.32,18.17c-0.03,3.08-0.41,4.8-0.43,7.36c-0.02,3.13-0.44,4.61-0.43,7.37c0.02,5.06-0.91,9.79-0.86,14.72
		c0.06,6.08-2.29,24.3-1.29,28.58c-1.47,0.34-3.59,0.19-6-0.07c-4.1-0.44-8.55-0.33-12.94-0.92l-31.72-2.05
		c-0.27,3.19-0.84,2.93-1.15,3.61l-0.58,1.15c1.71,0.9,0.66,0.39,1.94,1.52l12.55,11.69c0.98,0.81,0.11,0.1,0.88,0.85l1.57,1.46
		c0.4,0.38,0.2,0.19,0.64,0.66l0.82,0.91c3.13,3.39,3,3.96,4.7,8.72c0.61,1.71,1.02,2.78,1.64,4.43c0.35,0.94,1.22,3.65,1.62,4.45
		l6.01,4.81c0.07,0.06,0.17,0.14,0.24,0.2c0.07,0.06,0.17,0.14,0.23,0.2l10.63,7.98c1.19,0.93,2.88,1.66,3.28,2.78
		c1.73-0.14,1.28,0.03,2.06-1.4l3.06-6.89c1.13-2.16,3.41-6.66,3.97-9.02c3.24,0,6.02,0.45,8.74,0.79c7.5,0.93,6.28,0.62,13.61,6.74
		c1.31,1.09,2.29,1.4,3.35,2.71c1.98,2.48,5.13,11.3,6.39,14.82c0.65,1.82,0.32,1.64,1.77,2.99l4.09,3.27
		c3.85,3.88,5.07,3.12,7.21,8.81l6.74,17.07c0.19,0.56,0.45,1.41,0.78,1.82c0.61,0.77,0.26,0.49,1.33,0.83
		c3.42,1.1,21.94,4.63,27.15,6.19c4.15,1.24,5.13-0.17,8.91-0.25c-0.4-1.73-0.93-3.05-1.48-5.01l-3.28-9.71
		c-0.5-1.84-0.92-3.24-1.73-4.76l7.49-11.13c0.75-1.07,0.31-0.25,0.99-1.61c2.21-4.46,5.64-8.67,8.41-12.81
		c2.21,0.05,4.41,1.18,6.05,0.45c2.9-1.29,14.46-9.51,17.77-11.7c3.26-2.16,10.36-7.84,13.42-8.66c0-2.84,0.18-6.33-0.05-9.09
		c-0.18-2.22-0.85-1.41,0.43-3.04c0.78-0.98,1.78-1.39,1.78-2.58C439.94,424.75,439.51,420.77,439.51,415.21z"/>
	<path class="st1" d="M35.69,281.39l0.75,1.77l-1.3,3.03l-3.03,2.6l4.2,7.49c1.19,2.45,9.65,16.72,9.65,17.62
		c0,3.23-1.3,5.43-1.3,8.66c1.58,0.42,3.32,1.69,4.75,2.61l14.62,8.76c2.16,1.14,3.7,2.72,5.43,4.53l7.86,9.02
		c0.06,0.07,0.13,0.18,0.19,0.25l2.31,2.89c2.05,2.76,2.17,0.97,2.6,5.19c0.28,2.69,1.04,6.14,1.65,8.74c5.08,0,13.4,2.14,18.75,2.9
		c5.75,0.82,13.39,2.73,18.92,2.73c-0.04,1.9-0.29,1.35-0.43,3.03c1.6,0.37,1.21,0.71,3.03,0.87c0.23-0.98,1.73-4.66,1.73-5.2
		c0-5.9-1.55,0.11,0.83-11.29c0.95-4.55-0.03-4.05,3.55-6.84c1.21-0.94,0.5-0.92,2.11-1.35c-0.06-2.88-3.47-12.69-4.83-14.65
		l-4.3-5.66c-0.06-0.07-0.15-0.16-0.21-0.23l-1.15-1.88c-0.92-1.55-1.96-2.56-2.99-3.94c-0.35-0.47-0.2-0.32-0.53-0.77
		c-0.07-0.1-0.29-0.4-0.36-0.5c-0.06-0.07-0.14-0.17-0.2-0.24l-6.92-9.53c-0.05-0.08-0.28-0.46-0.33-0.54l-6.71-9.31
		c-0.05-0.07-0.13-0.18-0.18-0.25c-0.05-0.07-0.13-0.18-0.18-0.25l-1.23-1.8c-0.06-0.07-0.14-0.17-0.19-0.24L100,296.5h0l-4.1-5.68
		c-0.19-0.3-0.22-0.4-0.5-0.82l-0.37-0.4l-5.42-7.5c0.02-0.07,0.04-0.15,0.08-0.25c-0.6-0.44,0.02,0.14-0.69-0.61l-8.15-11.28
		l-0.38-0.52h0l-4.37-6.04c-0.05-0.07-0.13-0.18-0.18-0.25c-0.05-0.07-0.13-0.18-0.18-0.25l-4.6-6.66c-0.98-1.34-1.77-2.5-3.1-3.39
		c0.89-1.86,5.2-21.45,5.87-24.87c1.13-5.73,5.73-21.57,5.82-25.36c-0.62-0.26-3.25-0.62-5.08-0.98l-17.98-3.67
		c-4.28-0.85-19.86-4.55-23.7-4.87l-10.1,18.91c-3.58,6.65-2.67,2.84-0.92,8.13c2.5,7.57,2.71,6,1.02,14.05
		c-0.72,3.43,0.7,22.36,3.88,25.21l0.47,0.39c0.97,0.87,1.82,1.57,2.18,2.58c1.86-1.37,2.05-3.4,4.76-3.46
		c0.17,2.1,0.91,4.37,1.39,6.4c0.39,1.66,1.21,4.58,1.21,6.58c-2.83-0.06-3.13-1.91-6.06-2.6c-0.61,2.63-1.3,6.32-1.3,9.09
		C31.85,279.52,34.35,279.49,35.69,281.39z"/>
	<path class="st1" d="M174.55,131.2l-3.9,16.88c6.58,0,4.61-0.03,8.05,4.94l8.05,13.17c0.29,0.53,0.4,0.79,0.79,1.37
		c2.75,0,6.83-0.24,9.41,0.12c1.34,0.18,2.41,0.4,4.46,0.31l3.88,0.01c0.14-1.71,0.43-2.03,0.43-4.33c3.27-0.76,6.67-0.1,10.4-0.01
		c3.12,0.08,7.68,0.81,10.8,0.89c3.1,0.07,7.98,0.22,11.01,0.67c4.04,0.61,24.97,1.48,32.35,2.28l22.02,1.36
		c1.06-4.54,1.73-66.09,1.73-69.7c-25.05,0-24.15,0.94-46.94-2.42l-59.7-7.84c-6.83-0.9-13.21-1.52-19.98-2.54
		c-5.52-0.83-5.03-1.6-5.43,4.59c-0.22,3.53-0.88,6.79-1.24,10.02c-0.75,6.75-0.27,4.08,1.54,8.7l6.92,15.59
		c0.64,1.25,1.06,2.99,1.66,3.97C172.33,131.52,174.55,129.44,174.55,131.2z"/>
	<path class="st2" d="M209.18,408.28c3.82,0,6.97,1.01,10.39,1.3c0-1.5,0.43-6.01,0.87-6.93c2.31-1.11,15.48,1.3,19.48,1.3
		c0.28-1.05,1.2-2.46,1.73-3.46c7.7,0,17.6,0.8,24.23,0.88c2.72,0.03,6.01-0.21,8.65,0c1.47,0.12,15.38,0.92,15.83,0.66
		c1.39-0.82,0.61-5.77,0.63-7.62l1.32-24.23c0.31-5.72,0.12-10.73,0.43-16.46c0.74-13.75,1.3-25.19,1.3-39.4
		c-1.52,0-3.28,0.08-4.77,0c-3.96-0.21-9.18-0.92-13.85-0.87l-18.99-0.93c-2.57-0.29-6.65-0.45-9.22-0.74
		c-1.52-0.17-3.18-0.05-4.71-0.05l-23.8-1.31c0,2.74-0.23,3.82-0.42,6.07c-0.18,2.03-0.32,4.11-0.63,6.3l-8,79.02
		C209.42,404.24,209.18,405.66,209.18,408.28z"/>
	<path class="st3" d="M140.78,320.39c-0.93-1.76-0.41-2.56-2.17-3.03c0,3.92-3.43,16.49-3.36,17.66c0.13,2.01,4,14.24,4.22,16.98
		l-3.01,1.76c-0.54,0.41-0.81,0.61-1.56,1.04c-1.39,0.78-0.55-0.44-1.5,1.1c-0.28,0.45-1.58,7.68-1.57,8.3
		c0.02,1.89,1.84,3.42,1.28,5.27l-0.91,1.67c-1.23,2.2-2.43,4.31-3.55,6.42c3.28,2.2,20.66,10.61,25.52,13.44
		c2.58,1.5,6.08,2.87,8.51,4.48l4.26,2.24c0.81,0.42,1.32,0.62,2.04,0.99c5.47,2.83,4.1,3.37,12.04,4.42l22.53,3.87
		c0.03-1.25,0.4-4.29,0.62-5.88c1.77-12.65,2.66-29.65,4.27-42.49c0.93-7.48,1.81-16.1,2.49-23.92c0.34-3.91,1.02-8.34,1.27-12.15
		c0.24-3.56,0.6-9.03,1.31-12.11l-21.22-0.86c-8.22,0.04-23.4-1.35-31.6-1.3l-10.86-0.49c-4.88,0.04-1.74,4.57-3.9,9.09
		c-0.64,1.33-0.86,1.52-2.85,2.81C142.24,320.22,141.96,320.3,140.78,320.39z"/>
	<path class="st4" d="M88.83,270.61c-0.02,0.02-0.04,0-0.06-0.03v0.46l3.72,5.01c0.05,0.07,0.13,0.17,0.19,0.25l5.51,7.48
		c0.06,0.07,0.15,0.16,0.21,0.22c0.35,0.39,0.03-0.04,0.59,0.71c0.22,0.29,0.33,0.47,0.53,0.77l9.96,13.42
		c0.05,0.08,0.12,0.18,0.18,0.26l11.38,15.46c0.27,0.36,0.27,0.38,0.54,0.76l3.82,5.27c0.61,0.76,0.8,0.9,1.35,1.68
		c0.62,0.9,0.56,0.92,1.23,1.8l2.43,3.2c0.14-1.74,0.66-3.5,0.99-5.5c0.25-1.52,0.55-3.31,0.87-5.2c0.43-2.57,1.05-8.01,2.04-10.08
		c0.72,0.06,1.68,0.21,2.23,0.37c1.57,0.45,2.55,1.88,3.4,3.1l4.33-23.81c2.58-15.61,6.02-31.29,8.6-46.82l4.39-23.32
		c-2.84,0-14.95-2.49-17.66-3.12c-5.77-1.33-11.93-1.9-17.71-3.07l-17.34-3.44c-2.64-0.54-6.01-1.1-8.83-1.56
		c-2.56-0.42-4.42-1.03-6.93-1.27v66.94L88.83,270.61z M88.76,270.58c-0.03-0.04-0.06-0.1-0.06-0.1l0.06,0.06V203.6
		c-0.65-0.06-1.34-0.1-2.1-0.1c-0.08,3.42-8.66,35.48-9.44,38.62c-0.68,2.73-2.92,8.98-1.69,11.03c0,0,0.5,0.67,0.56,0.75
		c0.08,0.1,0.29,0.39,0.37,0.5l2.88,4.04c0.06,0.07,0.14,0.17,0.19,0.24l0.57,0.73c0.07,0.1,0.28,0.41,0.35,0.52l3.11,4.25
		c0.26,0.36,0.43,0.57,0.76,0.97c0.06,0.07,0.14,0.16,0.2,0.23c0.06,0.07,0.14,0.16,0.2,0.23l4.03,5.43V270.58z"/>
	<path class="st4" d="M220.01,304.81c2.53,0,2.95,0.38,5.18,0.45c1.84,0.06,3.8-0.03,5.66-0.03c2.5,0,2.95,0.4,5.17,0.46
		c2,0.06,4.09-0.09,6.09-0.03c2.22,0.07,2.66,0.46,5.17,0.46l27.7,0.87c3.16,0.26,7.87,0.1,11.22,0.47c8.4,0.94,19.92,0.8,29.07,0.8
		v-62.34l-30.31-0.43c-3.97,0-6.22-0.46-9.95-0.44c-1.65,0.01-3.58,0.09-5.2,0.01c-1.96-0.11-2.37-0.45-4.75-0.45
		c-13.66-0.02-26.79-1.28-40.28-1.28l-1.18,15.27c-0.34,2.58-0.48,5.13-0.55,7.68L220.01,304.81z"/>
	<path class="st4" d="M203.99,234.67c7.79,0,19.44,1.79,27.28,1.73c2.64-0.02,3.54,0.33,5.62,0.44c1.82,0.1,3.81-0.1,5.63,0
		c2.08,0.11,2.98,0.46,5.62,0.44l45.03,2.16c0-20.92-0.87-42.3-0.87-64.07l-31.63-2.14c-3.58-0.29-8.92-0.08-13.95-0.77l-9.39-0.56
		c-5.36,0.02-11.02-0.85-13.85-0.87l-9.58-0.46c-3.97-0.02-2.75-0.56-4.17,10.56l-4.01,35.39c-0.25,2.91-0.75,6.2-0.88,9.08
		C204.73,228.59,203.99,231.9,203.99,234.67z"/>
	<path class="st3" d="M56.36,125.14c-2.29,0.19-2.09,1.57-3.65,5.44l-12.18,30.25c-1.53,3.05-2.65,7.01-4.13,10.16
		c-3.87,8.24-4.29,2.22-2.22,11.83c0.76,3.54,0.27,3.1,3.66,3.7l82.61,16.14c0.92,0.2-0.19,0.25,1.71,0.41l1.69-16.49
		c0.59-7-0.18-5.84,2.42-11.43c2.16-4.65,1.7-2.36,0.68-6.75c-0.35-1.52-0.59-2.09-0.9-3.42l9.64-13.31
		c1.61-2.44,2.76-2.94,2.92-4.88c-2.9-1.05,0.06-3.16-6.87-5.25c-2.98-0.9-6.36-1.62-9.47-2.65c-3.18-1.05-16.01-4.99-19.4-4.48
		l-28.54,1.34l-3.83-2.23c-1.47-0.73-2.68-1.19-4.09-1.97c-5.98-3.3-4.03,1.47-3.12-9.43c-2.72-0.23-4.62-1.19-6.93-1.73V125.14z"/>
	<path class="st0" d="M148.57,300.91c11,0,21.54,1.42,32.48,1.72l32.46,2.18l2.78-30.99c0.34-2.32,0.59-5.29,0.69-7.54
		c0.28-6.53,2.16-16.26,2.16-23.81c-3.28-0.76-7.06-0.61-10.8-0.89l-10.42-0.84c-0.84-1.74,0.43-14.25,0.43-17.75l-26.17-4.14
		c-1.85-0.3-2.65-0.43-4.5-0.69c-1.39-0.2-2.94-0.68-4.4-0.8l-12.74,72.98C149.9,293.96,149.35,297.58,148.57,300.91z"/>
	<path class="st5" d="M456.2,123.21l2.62-2.14c2.86-3.02,5.08-4.56,6.71-6.28c1.22-1.29,2.3-1.85,3.41-3.51c-2,0-3.8-0.33-5.87-0.62
		c-1.18-0.16-4.65-0.66-5.41-0.65c-1.16,0.01-3.71,1.26-4.71,1.78c-2.23,1.15-1.36,0.93-4.18-0.24c-1.75-0.73-2.92-1.36-4.5-2
		l-8.85-3.7c-4.51-1.92-4.33-1.75-9.46-0.74c-2.12,0.42-2.7,1.08-4.27,0.64l-4.68-0.98c-1.64-0.35-2.73-0.84-4.79-0.84
		c-0.21-2.5-0.66-1.27-1.3-3.03l-20.1,0.68c-2,0.29-4.43,0.62-6.31,0.62l1.3,16.89c0.17,1.88,0.25,1.26,1.29,2.61
		c1.08,1.4,3.3,4.8,3.61,6.35l5.35,26.07c-0.18,1.72-2.89,3.8-2.89,6.11l1.9,2c0.06,0.06,0.15,0.16,0.21,0.22
		c1.53,1.6,0.76,1.11,2.65,2.11c0,9.87,1.3,18.58,1.3,28.57c5.58,0,10.6-0.88,15.62-1.27c12.05-0.93,25.92-2.72,37.62-3.51
		c2.25-0.15,5.23-0.67,7.38-0.85c-0.93-1.75-0.35-1.02-2.28-2.05l-15.5-9.18c-0.14-0.07-1.48-0.65-1.51-0.66
		c-0.88-0.26-0.42-0.21-1.5-0.23c0-8.78-1.09-13.55-1.73-21.21c1.91-1.01,1.88-1.16,3.16-2.9c2.74-3.75,4.63-4.51,4.37-6.72
		l-0.6-9.42C444.27,131.07,454.28,124.72,456.2,123.21z"/>
	<path class="st6" d="M320.45,309.14l38.35,1.48c3.99,0.6,14.52,0.61,19.25,0.67c2.5,0.03,3.26,0.47,6.03,0.46
		c7.52-0.03,17.38,0.83,25.13,0.84c2.68,0,3.36,0.46,6.03,0.46c2.17,0,4.34-0.02,6.51-0.02v-23.38c0-4.4-3.1-7.72-5.19-12.13
		c-0.59-1.24-0.69-1.62-1.44-2.89c-0.59-1-1.05-1.81-1.63-2.69c-1.09-1.65-1.91-3.49-2.13-6.09c-1.93,0-4.17,0.1-6.06,0l-16.89-0.87
		c-1.55,0.04-1.41,0.23-2.48,0.19l-19.67-0.99c-7.21-0.81-16.24,0.12-23-0.81l-22.83-0.55V309.14z"/>
	<path class="st6" d="M145.97,146.79l-11.07,17.07c-1.34,2.49-1.69,0.63,0.27,6.74c0.7,2.2,1.04,2.06-0.24,4.08
		c-4.46,7.03-3.7,9.02-5,18.4c-0.42,3.03-1.27,7.19-1.27,10.41l17.13,3.65c11.05,2.48,23.67,4.66,35,6.56
		c3.2,0.53,5.89,0.98,8.91,1.48c2.52,0.42,6.46,1.3,9.09,1.3c0-3.58,0.84-7.31,1.22-10.47l2.67-20.7c0.39-3.56,1.3-7.09,1.3-10.82
		l-15.28-0.75c-2.6-0.37-3.15,0.16-5.07,0.32c-1.1-2.29,0.15-1.02-1.89-3.74l-3.87-6.52c-0.68-1.11-1-1.45-1.52-2.37l-3.15-5.08
		c-1.51-2.62-2.38-1.77-9.92-1.77c0-6.04,3.03-14.05,3.03-19.05l-6.74-15.77c-0.39-0.92-0.25-0.47-0.66-1.51l-1.8-4.26
		c-3.71-10.15-3.56-3.65-2.19-14.08l2.29-14.6c-0.98-0.08-5.88-1-6.49-1.3c0,5.01-9.01,54.63-8.64,57.1c0.15,1,1.16,2.2,1.87,2.93
		L145.97,146.79z"/>
	<path class="st6" d="M413.53,253.29c0.27,3.27,6.15,16.78,7.55,18.86l5.69,10.33c2.02,3.34,1.49,4.03,1.48,8.91
		c0,3.61,0.01,7.22-0.01,10.83c-0.02,3.56,0.44,6.01,0.44,9.95c0,3.61,0,7.22,0,10.82l48.49-3.47c1.96-0.09,6.13-0.5,7.91-0.74
		c4.42-0.6,0.52,0.68,7.67-0.98c1.41,2.93,0,8.48,0,12.12c4.93,0,3.8,1.08,8.25-8.63c0.28-0.6,0.29-0.79,0.59-1.57l5.01-11.01h-7.79
		c0-4.72,0.55-8.82-2.23-12.06c-1.3-1.52-0.96-1.24-2.1-1.36c-0.15-1.78-0.04-0.78-0.8-1.8l-0.6-0.7c-2.94-3.72-3.05-3.15-5.13-5.26
		c-0.97-0.99-0.72-1.43-2.75-3.31c-0.69-0.64-1.06-0.81-1.55-1.48l1.33-5.91c1.11-3.65-0.58-1.69-3.49-1.45
		c-0.94-1.95-0.31-1.54-2.04-3.16c-2.94-2.75-1.26-0.42-4.05-4.17l-1-1.16c-0.06-0.07-0.15-0.16-0.21-0.22l-4.28-4.38
		c-2.05-2.1-1.22-0.21-2.46-2.73l-1.72-2.6c-0.2-0.29-0.32-0.51-0.48-0.81c-2.2-4.06-3.22-3.57-3.22-6.74
		C459.13,249.39,418.65,252.1,413.53,253.29z"/>
	<path class="st7" d="M298.8,239.43c3.78,0,5.76,0.45,9.52,0.43c3.89-0.02,6.6,0.45,9.99,0.4c2.17-0.03,4.08-1.12,2.82,7.21
		c-0.51,3.36,0.03,6.66-0.68,9.71c15.01,0,29.15,0.94,44.16,0.86c3.89-0.02,6.59,0.44,10.82,0.44c3.62,0,7.57-0.35,11.07,0.18
		l21.83,0.68c-0.05-2.41-0.77-3.62-1.49-5.44c-2.67-6.78-2.71-9.51-4.67-14.82l-5.96-13.95c-1.64-4.41-2.6-4.74-2.6-8.22
		c-3.16-0.26-5.69-2.17-9.09-2.17c-0.34-3.07-1.37-0.06-2.16-3.03c-2.07,0-3.41,0.31-4.83,0.83c-3.27,1.19,0.13,1.26-7.95-1.47
		c-8.56-2.89-16.4-1.52-27.05-1.52c-4.18,0-7.11-0.46-10.82-0.44l-28.16,0.02c-2.63,0.01-3.44-0.44-5.62-0.44
		C297.94,218.07,298.8,230.23,298.8,239.43z"/>
	<path class="st2" d="M302.27,320.83c2.26,0,2.64,0.27,4.35,0.41l33.92,2.01c3.64,0.71,1.34,1.56,2.05,7.9l1.24,29.94
		c2.31,1.11,14.7,3.86,18.71,5.1l9.25,2.43c1.82,0.45,3.1,0.73,4.85,1.21l9.12,2.57c3.63,0.83,23.86-0.63,28.65-0.51
		c4.11,0.1,5.93,2.32,9.51,2.62l-1.05-24.06c-0.32-2.11-0.21-3.59-0.23-5.83l-0.85-12.14c-0.08-0.96-0.08-1.9-0.16-2.88l0.12-9.21
		L392,318.98c-2.37-0.33-4.64-0.16-7.48-0.31c-2.45-0.13-4.26-0.44-7.37-0.42l-51.94-2.61c-5.67,0.04-15.14-0.86-22.95-0.86V320.83z
		"/>
	<path class="st7" d="M297.94,201.77c13.53,0,26.67,0.87,40.26,0.87c3.78,0,6.21,0.46,9.51,0.44c3.47-0.01,6.94,0.01,10.4-0.01
		c1.51-0.01,8.71,0.34,9.73,0.66l7.59,2.8c2.72,0,3.97-1.3,6.49-1.3c1.1,0,3.83,2.38,4.85,2.95l5.54,2.25
		c-0.09-4.22-1.69-9.19-0.02-13c1.41-3.21,0.38-9.28,0.04-13.43c-0.24-2.92-0.48-15.42-1.16-17.02c-0.52-1.22-3.42-3.49-4.33-4.33
		c-0.09-0.09-0.36-0.33-0.44-0.42c-0.67-0.67-0.48-0.34-1.02-1.15c0.31-1.15,1.5-2.47,2.17-3.46c-7.36,0-14.72,0-22.08,0
		c-7.76,0-13.99-0.43-21.65-0.43c-7.36,0-14.72,0-22.08,0c-7.84,0-14.67-0.43-22.08-0.43c-0.59,7.11-0.84,9.06-0.85,16.47
		c0,2.6-0.44,3.14-0.46,5.6C298.25,186.9,297.94,193.98,297.94,201.77z"/>
	<path class="st2" d="M71.08,84.88c-2.02-0.54-0.6-0.66-2.89-2.3l-3.11-2.52c-1.66-1.25-1.05-1.52-4.16-3.7
		c-2.6-1.83-2.13,0.29-2.66,1.33c-1.45,2.84-2.28,1.47-1.45,7.18c0.67,4.61,1.72,5.9,1.72,11.71c0,6.1-1.3,10.74-1.3,16.88
		c2.1,0.49,11.4,4.99,13.85,5.2c0.43,5.18-0.43,3.12-0.43,7.36c1.12,0.54,2.05,0.82,3.32,1.45c4.95,2.45,14.92,0.72,22.23,0.72
		c3.01,0,6.97-0.32,9.11-0.32l30.29,8.11c1.61-6.91,3.14-19.04,4.58-26.59c1.33-6.97,2.94-19.93,4.51-26.66
		c-2.49,0-5.94-0.97-8.48-1.48L78,69.72c0,6.04,0.71,5.4-1.08,8.01c-0.31,0.45-0.42,0.67-0.69,1.05l-1.77,2.12
		C72.6,82.91,72.42,83.98,71.08,84.88z"/>
	<path class="st8" d="M299.67,150.68c3.75,0,7.5,0,11.26,0c4.38,0,7.13,0.45,11.25,0.43l16.9-0.02c2.46,0.03,3,0.46,5.6,0.46
		l16.91-0.03c2.65-0.01,3.35,0.39,5.6,0.46c3.81,0.11,7.86-0.01,11.7-0.01l8.55-0.12c1.67-0.05,0.07-0.63,1.84,0.55
		c-0.04-1.98-0.91-4.48-1.38-6.41l-6.5-22.54c-0.05-0.08-0.12-0.19-0.17-0.27c-0.05-0.08-0.12-0.19-0.17-0.26l-0.51-0.95
		c-0.02-0.06-0.04-0.18-0.06-0.25c-0.02-0.11-0.04-0.42-0.06-0.54c-0.08-0.74-0.06-0.84-0.16-1.73c-0.19-1.57-0.3-2.08-0.49-3.44
		l-1.76-13.83c-3.68,0-6.5-0.16-9.55-0.41c-3.26-0.27-6.46,0.21-9.68-0.27c-5.81-0.88-13.34,0.07-19.18-0.73
		c-5.86-0.8-12.67-0.4-19.17-0.75c-1.93-0.1-2.08-0.42-4.31-0.45c-1.72-0.02-3.52,0.08-5.23,0.03l-9.51-0.45
		c-0.04,1.98-0.45,3.38-0.44,6.06c0.01,2.17,0.02,4.35,0.02,6.51c0,2.68-0.46,3.35-0.46,6.03c0,2.31,0.02,4.64,0.02,6.95
		c0.01,2.77-0.43,3.53-0.46,6.03L299.67,150.68z"/>
	<path class="st0" d="M478.47,212.59c0.54,2.01,2.73,2.99,4.76,3.46c0,1.55-1.1,8.83-1.52,9.74c-0.48,1.03-0.71,0.84-1.94,1.53
		c-0.08,0.05-0.2,0.11-0.28,0.15c-1.64,0.94-3.3,2.43-4.92,2.87c0.06,2.86,1.58,3.46,0.97,5.27l-5.25,12.11
		c-1.54,3.66-1.14,2.82,1.25,8.16c1.1,2.47,2.48,3.56,4.48,5.05l0.73,0.57c2.29,1.95,0.38,1.22,4.43,4.23
		c1.47,1.1,1.38,1.85,2.05,1.85c2.71,0,2.91-1.11,5.2-1.3c1.32,1.97,2.33,5.3,2.94,7.48c0.84,3.04-0.51,5.55-1.21,8.54l3.69,2.81
		c0.07,0.06,0.16,0.15,0.23,0.21l5.58,4.81c3.14,2.92,4.79,8.83,4.79,12.96c7.07,0,5.54,0.58,8.09-4.03
		c0.92-1.66,2.12-2.89,2.3-5.06c2.3,0.19,3.97,1.49,6.06,2.6l3.85-26.05c0-1.72-1.07-2.18-2.07-3l-2.64-2.55
		c1.2-5.14,2.99-1.24,1.54-10.2c-1.56-9.65-4.06-28.36-5.87-36.12c-1.06-0.59-0.8-0.43-2.6-0.43c0-2.27-0.7-3.22-1.24-4.82
		c-2.12-6.25-1.95-5.25-6.42-4.58C500.4,209.58,481.52,212.59,478.47,212.59z"/>
	<path class="st0" d="M461.59,194.84c-4.15,0-17.66,1.54-23.01,2.1l-23,2.11c-2.89,0.37-4.68,0.32-7.6,0.63
		c-1.23,0.13-2.21,0.26-3.93,0.4c-1.57,0.13-1.64,0.43-3.38,0.5c-2.19,0.09-1.48-1.18-2.38,0.22c-0.83,1.3,1.5,15.95,1.93,18.19
		l7.88,21.13c0.42,1.06,0.57,1.87,0.97,2.92c0.98,2.55,1.64,3.43,2.73,5.49c2.22,0,4.68-0.62,6.93-0.87l20.34-2.61
		c4.45-0.37,9.12-1.22,13.83-1.76c2.29-0.26,4.35-0.57,6.9-0.9c6.3-0.82,1.84-0.41,5.26,0.51c0.71-1.34,4.33-7.36,4.33-8.66
		c0-1.19-1.39-3.33-1.37-5.39c0.01-1.2,0.79-1.21,1.32-1.58c6.29-4.28,6.97-3.71,6.97-8.18c-1.85-0.15-1.17,0.05-2.06-1.4
		c-0.59-0.97-3.09-5.21-5.59-7.4l-5.34-3.75C463.32,201.75,461.59,198.88,461.59,194.84z"/>
	<path class="st2" d="M508.32,166.24c-1.85,2.95-1.24,3.31-3.44,3.49c-0.21-0.89-0.35-1.47-0.75-2.28
		c-0.75-1.51-0.94-1.43-1.41-1.62c0.28-3.36,0.87,0.55,0.87-4.33l-4.33-14.72c-5.7,0-12.87-1.99-19.11-3.34
		c-2.79-0.6-5.14-1.88-7.3-1.43c-0.14-1.68-0.67-2.72-1.3-3.9c-1,0-6.78-0.33-7.28-0.52c-2.7-0.98,1.12-5.31-2.59-4.27l-8.71,3.09
		c-1.21,0.43-2.15,0.76-2.24,1.89c-0.39,4.57,1.3,7.54-1.52,10.79l-4.49,5.93c-1.15,1.69-0.61,0.11-0.58,1.8
		c0.76,7.06-0.71,12.97,4.79,16.45c3.25,2.06,6.48,4.21,9.71,6.31c1.14,0.62,0.78,0.38,1.85,1.18c5.75,4.31,3.35,0.67,6.42,10.47
		l1.85,6.31c1.88,7.73,0.14,3.04,2.66,6.93l1.87,2.89c4.7,0,30.36-5.2,35.93-5.2c-0.03-1.59-2.58-8.24-3.41-10.05
		c-0.76-1.66-0.58-0.52-0.04-2.43l6.05-29.08L508.32,166.24z"/>
	<path class="st3" d="M593.63,341.18c1.38-0.37,1.12-0.29,1.97-1.5l1.5-1.97l-24.37,3.34c-2.82,0.35-5.67,0.79-8.1,0.99
		c0.42,0.87,0.57,1.82,0.98,2.91l15.73,36.66c0.06,0.11,0.25,0.49,0.29,0.57l0.31,0.55c0.13-1.51,0,0-0.21,4.55l-0.6,2
		c-0.59,1.58-0.92,2.07-0.92,4.27l3.51,12.94c0.35,1.21,0.99,2.81,1.25,3.94l30.39-3.38c8.31-1.04,6.52-1.04,9.01,0.79
		c0-7.29,0.61-5.63,8.66-5.63c-0.12-5.43-2.85,0.34-0.08-10.9c1.22-4.97,2.42-7.4,0.93-9.4c-5.15-6.41-10.05-13.58-15.94-19.14
		l-4.39-3.83c-1.13-0.96-2.15-1.69-3.36-2.74l-2.24-1.62c-3.03-2.8-11.61-10.95-14.31-11.67V341.18z"/>
	<path class="st1" d="M429.12,330.35c0,1.99-0.07,4.11-0.01,6.08c0.4,5.98,0.56,11.82,0.88,17.74c0.18,3.32,0.69,8.37,0.87,11.68
		c0.11,1.95-0.16,4.06,0.06,6c0.23,2.01,0.37,3.49,0.37,6.12l5.63,1.73c0.59,2.52,0.87,4.19,0.87,7.36c11.86,0,26.14-0.87,38.1-0.87
		c-0.05-2.26-0.91-5.81-1.73-7.36c2.92-4.37,15.31-33.32,18.76-40.55c0.64-1.33,1.01-1.51,1.15-3.18c-1.68,0-2.97,0.04-4.59-0.17
		c-6.4-0.85-3.41-0.08-3.21-9.35l-28.45,2.28c-4.41,0.58-9.5,0.84-14.38,1.21C439.16,329.41,432.9,330.35,429.12,330.35z"/>
	<path class="st2" d="M546.88,418.24c0.59,1.23,0.76,2.46,1.43,3.77c0.77,1.53,1.21,1.49,2.04,2.73c8.65-4.15,0.58,1.95,11.33-2.55
		c1.65-0.69,1.84-0.96,3.65-0.35l10.54,3.79c0.07,0.06,0.16,0.15,0.22,0.21l4.66,4c0.07,0.06,0.17,0.14,0.24,0.2l1.4,1.2
		c4.62,0,8.22-2.6,12.99-2.6v-2.16c0-1.94,3.97-3.08,5.63-3.46c0.24,0.23,0.76,0.75,1.1,1.06L619.33,438
		c1.3,1.08,1.77,3.93,2.29,5.93c0.66,2.53,1.37,3.83,1.92,6.31l1.51,4.75c0.98,1.96,0.81,5.65,3.82,8.96l9.95,11.7
		c2.21,1.77,3.09,3.29,5.66,5.17l2.22,2.11c0.38,0.42,0.74,0.79,1.04,1.13l0.4,0.46c0.06,0.07,0.14,0.17,0.2,0.23
		c0.08,0.09,0.31,0.38,0.4,0.46l10.7,9.65c1.44-0.34,2.04-0.76,3.22-1.54l1.28-0.89c0.08-0.05,0.18-0.12,0.27-0.16
		c0.09-0.04,0.2-0.1,0.29-0.14l1.44-0.29c0-5.91-0.34-11.09-0.42-17.33c-0.16-12.55-2.02-7.58-3.48-13.84l-6.06,0.43
		c0-2.75-0.68-5.92,0.87-8.23c-1.22-1.82-1.88-3.56-3.19-5.47c-1.95-2.85-0.37-4.22-1.48-6.75l-7.33-9.56
		c-1.2-1.95-2.56-3.05-3.67-4.98l-2.4-3.23c-2.04-2.79-4.13-10.79-4.45-14.6h-3.46c-0.1,1.21-0.61,2.35-1.07,3.69
		c-0.45,1.29-0.77,2.18-1.28,3.48c-0.59,1.52-0.71,1.9-1.2,3.56c-0.42,1.42-0.56,2.28-2.08,2.68c-0.65-2.43-4.05-6.74-5.63-9.09
		c-6.21,1.45-22.18,3.1-29.4,3.93l-9.56,1.26l-1.73-4.33c-2.54,1.22-19.25,2.94-24.06,3.65
		C552.44,417.48,549.03,418.19,546.88,418.24z"/>
	<path class="st8" d="M531.8,416.43c0.52,4.32,0.36,7.28,1.92,8.04c3.16,1.55,4.94,0.7,8.39,0.7c-0.05-2.2-1.05-3.78-1.72-5.64
		c-1.57-4.29-4.57-6.26,1.75-6.89c1.95-0.2,2.98-0.36,4.97-0.65c4.92-0.72,25.78-3.71,29.63-3.71c-0.16-1.97-1.07-4.95-1.55-7.11
		c-0.46-2.07-1.48-5.39-1.48-7.18c0-2.3,2.16-5.76,2.16-8.66c0-1.71-3.02-6.43-3.72-8.88l-4.96-11.88
		c-0.37-0.87-0.85-1.79-1.24-2.66c-1.45-3.2-7.17-15.78-7.4-18.57c-5.94,0-11.55,1.25-17.39,2.09c-3.04,0.44-5.67,0.61-8.84,1.11
		c-10.25,1.63-9.98-0.89-8.27,9.22C527.33,374.98,529.32,396.85,531.8,416.43z"/>
	<path class="st2" d="M482.92,388.73l1.17,13.91l-4.32,15.16l24.24-2.16c1.14,4.89-0.68,3.94,1.69,7.4l2.4,3.23
		c0.06,0.07,0.14,0.17,0.2,0.24c0.06,0.07,0.14,0.17,0.19,0.24l1.15,1.88c1.35-0.99,0.87-1.16,0.87-3.46l16.02-1.3
		c-0.16-1.88-0.64-4.02-0.87-6.06l-1.29-9.62l-1.76-13.77l0.03,0.01l-6.06-46.32l-22.16,2.52c-1.51,0.7-1.6,2.86-3.07,5.58
		c-1.73,3.2-3.07,7.36-5.06,10.96l-5.21,11.24C481.07,380.14,482.12,385.07,482.92,388.73z"/>
	<path class="st3" d="M653.39,158.55L653.39,158.55l-3.47,1.65h-8.23c-0.89,0-6.62,4.96-7.36,6.06c2.03,0.47,1.97,0.8,3.32,1.88
		c1.71,1.36,1.82,0.27,1.88,2.89c-1.3,0.35-1.83,1.08-2.48,2.71c-1.46,3.62-0.23,1.76-3.01,4.78l-3.6,3.76
		c0.23,0.99,0.34,1,0.43,2.17l52.82-13.66c0.07,0,4.59,1.42,5.59,2.44l5.37,6.32c1.07,0.95,13.46,4.8,14.51,4.88
		c0.81-5.5,0.67-2.76-0.52-7.62c-0.33-1.34-0.43-3.36-0.64-4.56c-0.51-3.05-1.01-5.4-1.56-8.4c-1.6-8.63,2.49-4.41-2.95-16.96
		l-10.38-24.69c-0.39-1.1-0.88-2.2-1.2-3.57l-10.45,2.98c-1.79,0.56-3.43,0.99-5.31,1.62c-1.65,0.55-3.33,1.33-5.03,1.47
		c-0.63,2.69-1.37,4.78-2.22,7.3c-0.44,1.31-0.56,2.11-1.01,3.76c-0.06,0.22-0.66,1.8-0.72,1.88c-0.68,1,0.89,0.92-2.98,0.92v1.3
		c0,4.77,0.43,7.84,0.43,12.56c-1.43,0.33-2.27,1.03-3.46,1.73l-3.31,1.88C656.32,156.81,654.85,157.7,653.39,158.55z"/>
	<g>
		<path class="st1" d="M577.25,197.24L577.25,197.24l3.83-9.32l1.31-6.91c0.13-4.18,1.47-3.58-0.93-6.89l-4.21-6.5V197.24
			L577.25,197.24L577.25,197.24L577.25,197.24z M532.6,180.75l3.95,11.92l-0.06,0.02c0.07,0.15,0.14,0.3,0.21,0.44l0.91,2.75
			c0.13,1.04-0.05,2.07-0.73,3.26l-0.84,1.32c-1.52,2.28-2.45,4.62-4.06,6.76c-0.95,1.27-1.5,1.79-1.54,3.65
			c2.29-0.19,5.07-0.69,7.6-1.06c6.69-0.97,23.29-2.48,28.02-3.58c9.3-2.18,7.46,2.5,10.7-7.48l0.5-1.5l0,0v-29.63l-1.06-1.64
			c-0.91-1.67-0.31-1.84-2.03-2.3c-0.28,1.22-0.24,0.88-0.83,1.77l-6.97,9.48c-3.16-1.67-5.66-1.41-5.17-3.48l5.61-14.27
			c0-4.35-3.36-8.48-3.46-12.99l-19.05-4.76c-0.21,2.53-1.35,5.32-2.07,7.88c-0.63,2.24-1.82,5.29-1.82,7.7
			c-1.41-0.75-2.75-2.61-4.33-3.03c-0.98,4.21-4.14,10.37-5.81,14.54c-0.68,1.68-1.52,2.77-1.1,4.46L532.6,180.75z"/>
	</g>
	<path class="st4" d="M616.58,300.05c-0.09,1.14-0.93,4.66-1.27,5.65c-0.54,1.57-0.22,0.95-1.55,1.92l-19.55,15.95
		c-3.37,2.38-2.88,3.1-4.04,8.08c3.66-0.85,7.63-0.78,11.65-1.33c3.57-0.49,3.8-5.62,6.14-6.85c0.36-0.19,21.53-3.5,22.9-3.5
		c0.84,0,2.3,3.25,2.58,3.91c0.44,1.03,0.3-0.09,0.45,1.72c8.19,0,11.71-4.94,17.58,0.17l11.61,8.31c0.07,0.06,0.17,0.14,0.24,0.2
		c1.63,1.35,2.19,1.5,4.78,0.42c2.7-1.12,2.74-1.75,3.89-4.35c2.2-5.01,1.27-4.29,3.98-6.84c1.55-1.5,2.79-2.72,3.78-3.71l0.08-0.01
		l9.7-8.26l0.26-1.48l0-0.01v0c0.03-0.17,0-0.42-0.02-0.87l-0.02-0.89l2.94-4.86c1.9-0.73,4.2-5.82,5.72-7.27
		c-2.46-0.57-3.95-2.39-6.49-2.6c0-3.05,0.63-6.7,0.87-9.52c-1.71,0.04-7.14,1.78-9,2.26c-1.3,0.33-3.23,0.8-4.54,1.09l-20.3,5.67
		c-0.7,0.13-1.99,0.21-2.72,0.32L616.58,300.05z"/>
	<path class="st9" d="M440.37,410.01c1.63,0.38,3.57,1.35,5.2,1.73l1.23,13.49c0.12,1.1,0.56,6.37,0.5,6.83
		c-0.22,1.65-0.72,1.68-2.59,3.07c-0.07,0.05-0.17,0.13-0.25,0.19l-1.06,0.67c0,3.83,1.03,6.67,1.3,9.96l18.18,0.53
		c0.16,1.76-0.06,0.68,0.87,2.06c1.87-1.25,2.3-0.86,3.99-1.64c8.14-3.73,13.85,2.09,24.15,6.83c0-4.77,2.15-2.6,7.36-2.16
		c0-1.9,0.29-4.86,0.87-6.06c1.73,0.4,4.19,2.61,5.66,3.86l6.53,4c0.28-0.25,0.44-0.3,0.67-0.62c0.77-1.07,0.37,0.63,0.56-1.61
		c-1.01-0.27-1.31-0.84-2.34-1.99l-1.65-1.81c-2.26-2.33-3.28-2.27-4.23-3.56c0.21-0.79,0.09-0.44,0.42-0.88l0.88-0.85
		c-1.53-0.41-1.34-0.46-1.73-2.17h-3.03c-0.15,1.76-0.22,1.76-1.73,2.17c-0.7-1.51,0.91-4.87,1.77-6.46
		c0.64-1.18,0.21-0.94,1.69-1.34c1.6,1.17,2.42,4.96,3.46,6.93c1.5-1.1,0.26-0.31,1.18-1.42c0.67-0.81,0.78-0.66,1.42-1.61
		l-0.42-0.08c-1.29-0.5-3.31-4.41-5.34-7.15c-1.09-1.47-1.63-2.67-2.75-4.18c-0.29-0.4-0.53-0.7-0.74-1
		c-0.05-0.08-0.12-0.18-0.18-0.26c-1.2-1.73-1.36-1.49-1.4-3.36l-23.69,2.72c-1.23,0.21-4.87,2.09-3.89-1.22l5.54-17.91
		c1.37-5.22,2.36-5.44,1.17-10.77c-0.13-0.59-0.21-3.04-0.74-3.59c-0.85-0.87-16.56,0.55-19.15,0.84l-15.98,0.91
		C436.32,393.05,440.37,395.14,440.37,410.01z"/>
	<path class="st10" d="M619.18,197.87l0.43,3.03l1.83,7.69c0.29,2.95,1.84,7.22,3.23,9.76l2.88,5.78c1.23,2.39,1.33,3.6,1.59,6.64
		c2.79,0,24.13-5.92,28.84-7.09l21.49-5.79c2.01-0.42,5.36-1.14,6.82-1.84c0-5.73-0.44-3.74,4.3-4.36c1.43-0.19,1.8-0.78,2.51-1.82
		c0.39-0.56,0.59-0.94,0.76-1.2l1.09-0.85c-0.05-0.63-0.27-1.18-0.58-1.69l-3.85-11.2l0,0c-0.59-1.71-2.09-3.28-2.93-4.86l3.46-5.63
		c-0.07-0.08-0.15-0.19-0.19-0.24l-0.59-0.7c-0.36-0.39-0.21-0.23-0.65-0.65l-2.02-2.31c-1.61-2.12-1.18-1.72-4.77-1.72
		c-2.12,0-26.2,6.37-28.86,7.08l-14.52,3.67c-4.89,1.2-9.35,2.41-14.21,3.54c-0.43-0.89-0.61-2.37-0.87-3.46l-4.18,4.04
		c-1.15,1.2,0.04,0.62-1.45,1.15C618.74,196.22,618.96,197.05,619.18,197.87L619.18,197.87z"/>
	<path class="st11" d="M560.3,213.03c0.06,0.13-0.08,0.35-0.08,0.44l5.96,34.37c1.2,6.36,0.29,7.23,4.05,4.96
		c4.15-2.5,1.67,1.76,7.16,3.31l13.85,3.47c2.36,0.58,2.91,0.19,4.48,1.58c1.86,1.63,1.55,2.09,3.12,2.51
		c0.76-3.25,2.85-7.42,4.09-10.63c2.23-5.76,0.12-1.09,2.92-5.73c1.56-2.59,2.9-4.56,4.49-7.2c3.91-6.51,4.86-5.59,3.63-12.82
		c-0.43-2.54,0.02-1.42,0.02-3.45c0-5.58-0.76-5.42,0.29-7.04c0.63-0.96,1.01-0.87,1.01-2.48c0-4.96-2.5-11.01-2.6-15.59
		c-2.23,0.19-2.29,0.94-3.51,2.55l-0.58,0.72c-0.05,0.07-0.14,0.19-0.18,0.25l-0.33,0.53c-0.03-0.07-0.11,0.18-0.16,0.28h-3.46
		c-0.38,1.65-1.25,2.87-1.98,4.51c-1.66,3.71-1.19,3.53-3.32,4.04l-2.59,0.44c-12.5,2.74-11.55,3.9-18.09-0.34
		C574.9,209.41,560.31,213.02,560.3,213.03z"/>
	<path class="st12" d="M496.66,344.64c7.71,0,68.73-9.84,85.72-11.26c0.59-2.55,3.04-9.74,4.81-11.21c0.32-0.27,0.6-0.43,1.01-0.73
		c1.29-0.93,1.06-0.78,2.01-1.88l9.51-8.24c0.06-0.06,0.15-0.16,0.21-0.22c0.06-0.06,0.15-0.16,0.21-0.23l1.64-1.39
		c1.36-0.97,0.79-0.48,1.82-1.64c2.73-3.07,3.5-1.12,4.75-6.51c-2.42,0.56-5.39,1.06-7.98,1.55l-15.96,2.66
		c-14.28,2.35-36.22,5.9-49.77,8.68l-25.07,4.37c-1.47,0.69-3,4.42-3.67,5.85l-2.54,4.82C501.25,333.84,498.66,340.85,496.66,344.64
		z"/>
	<path class="st13" d="M558.48,278.74l-8.11,10.57l-6.1,0.47v-0.12l-16.45,2.17c-0.18,2.11-0.64,4.57-0.9,6.89l-0.72,5.87
		c-0.3,2.13-2.25,0.01-3.88-0.77c-2.31-1.1-2.99-1.92-4.46-2.04l-5.2,11.26c9.81-2.29,21.56-4.08,31.57-6.09
		c9.1-1.83,39.55-7.07,45.08-8.6c0.73-0.2,1.51-0.71,2.3-1.36h0l0,0c1.07-0.88,2.16-2.02,3.17-3.04l1.5-1.44l0.09-0.08l2.2-2.12
		l0.01-0.01l3.74-3.61c2.43-2.25,1.29-2.15,3.41-2.65c-0.06-2.66-3.42-5.91-4.84-8.14c-1.44-2.25-0.99-2.08-2.51-2.25
		c-0.21-2.48-0.5-1.64-1.89-2.88c-1.21-1.07-1.13-1.43-2.69-2.5c-4.41-3.02-8.02-3.54-14.3-5.62l-5.74-1.62
		c-1.61-0.64-0.89,0.06-1.36-1.24c-3.21,0.27-2.07,2.06-6.04,7.82c-0.17,0.25-0.31,0.49-0.52,0.78c-0.05,0.07-0.13,0.18-0.19,0.25
		l-1.82,2.51c-0.16,0.27-0.44,0.77-0.47,0.83L558.48,278.74z"/>
	<path class="st11" d="M523.33,229.21L523.33,229.21l1.37,8.6c0.07,0.54,0.1,0.95,0.1,1.18l0.03-0.37l0.4,2.54
		c0.67,1.39,2.17,10.85,2.54,13.04c0.35,2.08,1.04,4.65,0.74,6.69c-0.22,1.49-0.71,4.01,2.78,4.94c0,2.63-0.86,6.86-1.17,9.22
		c-0.41,3.12-0.99,6.3-0.99,9.4c4.86,0,9.5-1.3,14.29-1.3l6.49-11.26c3.36,2.25,2.45,1.72,2.6,3.03l1.44-1.59
		c0.05-0.08,0.12-0.18,0.18-0.26l2.2-3c4.82-6.31,4.84-5.29,4.84-11.18c0-3.2-0.77-7.44-1.47-11.39l-1.03-6.68
		c-0.07-0.68-0.1-1.3-0.1-1.85h-0.18l-1.19-7.75h0c-0.43-5.23-2.52-12.64-2.52-17.36c-1.81,0.42-4.06,0.65-6.06,0.87
		c-2.1,0.23-4.11,0.64-6.1,0.83c-4.39,0.41-8.51,1.34-12.95,1.34c-0.72,1.36-1.42,2.48-2.16,3.9c-2.25-0.19-3.45-1.24-6.06-1.3
		C521.61,220.1,522.51,224.64,523.33,229.21z"/>
	<path class="st14" d="M738.24,57.17c-0.51,0.96-0.48,1.06-0.88,2.15c-1.99,5.5-5.97,10.87-1.29,12.57
		c-0.13,5.71-5.09,7.12,0.43,10.82c-2.62,3.92-1.66,3.9-2.94,6.15c-1.13,1.99-1.77,3.9-2.68,5.98c-1.48,3.39-1.26,0.4-1.25,2.99
		c0,1.02,5.08,11.71,6.44,15.19c0.11,0.29,0.49,1.05,0.71,1.45l4.67,10.48c1.02,2.58,1.61,4.25,3.28,5.38l2.91-6.61
		c2.97-6.97,2.39-3.42,5.63-8.23l6.65-7.2c0.01-0.02,0.42-0.59,0.55-0.75l6.93-7.79c0.06-0.07,0.14-0.17,0.2-0.24l2.94-3.12
		c0.09-0.09,0.33-0.35,0.42-0.45c0.89-0.98,1.3-1.59,2.15-2.61c4.28-5.07,5.48-3.05,1.92-9.76c-0.94,0.45-2.67,1.2-3.9,1.3
		c-2.59-3.86-5.98-7.16-6.27-7.59c-0.42-0.63-0.61-1.74-0.91-2.56l-4.79-12.53c-0.21-0.58-0.41-0.97-0.52-1.22
		c-2.9-6.8-3.51-2.91-11.77-7.28c-1.22,1.82-1.37,1.2-3.03,4.33C742.18,57.89,739.92,57.31,738.24,57.17z"/>
	<path class="st0" d="M637.22,273.16c-0.55,0.16-0.84,0.27-0.75,0.31c0.54,0.21-6.75,6.73-6.98,6.93l0,0l-2.67,2.18
		c-1.74,1.35-5.16,3.26-5.91,5.35c-1.74-0.14-3.16-1.81-5.08-3.18c-4.1-2.92-2.18-0.32-4.45,2.74l-6.59,5.96
		c-1.17,1.19-2.17,2.11-3.35,3.14l54-8.78c2.77-0.45,5.6-1.23,8.29-2.1l11.64-3.58c1.13-0.21,2.11-0.58,3.08-0.95l4.3-1.32
		l6.19-1.86c6.96-1.69,3.66-1.95,3.43-4.8c-5.93-0.49-3.34-2.88-3.94-8.19c-0.17-1.51-0.73-2.14-0.97-3.12l-1.16-6.44
		c-1.96-0.04-1.85-0.36-3.47-0.86l-7.03-2.06c-1.54-0.35-2.62-0.41-3.79-0.97c0-1.76,0.12-3.95,0.03-5.66
		c-0.12-2.07-0.92-2.62-1.76-3.87c-2.3,0-2.62-0.29-4.33-0.43l-3.03,3.46c-2.01-0.47-2.61-1.25-4.76-1.3
		c-0.27,3.26-1.2,3.74-1.91,6.75c-1.39,5.87-0.48,3.21-5.45,3.21c0,1.76-0.62,4.32-1.15,5.8c-2,5.58,0.85,1.5-0.58,4.59
		c-2.96-0.79,0.41-2.16-4.76-2.16c-0.23,0.99-0.34,1-0.43,2.16h-1.3c-1.33-2.89,3.1-3.84-0.87-4.76v4.33
		c-2.86,1.37-1.15-0.6-3.67,7.15C637.71,271.78,637.45,272.54,637.22,273.16z"/>
	<path class="st0" d="M609.82,331.62l-7.53,10.42l5.17,4.52c0.77,0.72,0.85,0.93,1.76,1.54v-0.01l5.19,4.53h0
		c1.51,1.61,3.74,3,5.34,4.43l0.44,0.42c0.92,0.91,0.58,0.71,1.61,1.43c2.8,1.96,4.93,4.62,7.03,7.26l8.14,10.04
		c0.06,0.07,0.13,0.17,0.19,0.24l1.5,1.53c0.67-1,1.57-2.16,2.43-3.2c0.06-0.07,0.14-0.16,0.2-0.23c0.06-0.07,0.14-0.16,0.2-0.23
		l9.16-11.62c0.06-0.07,0.15-0.16,0.21-0.22l2.65-3.41c0.22-0.35,0.62-1.15,1.08-2.12c0.43-0.91,0.91-1.97,1.31-2.94l2.24-5.03
		l0-0.01l0-0.02c0.27-3.1,2.76-5.39,3.03-8.64c-1.52-0.35-4.74-2.87-6.06-3.9l-0.47-0.39c-1.17-0.91-7.01-5.23-7.76-5.23
		c-0.23,0-0.46,0-0.69,0.01h0h0c-2.38,0.07-4.58,0.48-6.77,0.93l-8.99,1.23c-0.95,0-1.02-2.09-1.31-3.02
		c-0.45-1.46-0.87-1.67-1.29-3.47c-2.29,0.19-15.53,2.51-16.79,3.56C610.75,330.26,610.31,330.87,609.82,331.62z"/>
	<path class="st1" d="M502.72,125.14c-1.83,0-2.52,2.68-3.21,1.16c-0.43-0.96,1.11-4.66,1.66-5.74c0.12-0.23,0.29-0.54,0.43-0.86
		l1.98-4.51c-1.23-0.33-0.63,0.09-1.3-0.87c-1.89,1-1.77,0.78-3.37,2.26l-3.29,2.77c-0.07,0.06-0.16,0.15-0.22,0.21l-11.38,9.4
		c-0.47,0.32-0.24,0.03-1.08,0.65c-1.11,0.82-4.47,3.56-4.47,4.62c0,2.93,0.03,2.37,2.45,2.75c8.98,1.4,12.63,2.88,22.66,2.88
		c1.45,2.16,4.3,11.01,4.76,12.99c0.86-0.99,4.22-9.72,4.86-11.59c1-2.92,0.8-3.14,4.4-3.82l33.6-6.66c-0.23-1-1.93-4.25-2.52-4.87
		c-0.65-0.7-0.19-0.59-1.85-0.67l-3.09,0.23c-5.88,0.75-6.11,0.72-8.05-0.81l-2.24-2.1c-1.92,1.01-4.76,1.8-6.93,2.6l-6.93,2.17
		c-0.04,1.7,0.12,1.02-0.43,2.16c-3.07-0.72-3.25-0.43-6.93-0.43c-0.04,1.73-0.2,1.6-0.87,2.6l-5.02-4.07
		C505.57,126.86,503.55,125.14,502.72,125.14z"/>
	<path class="st2" d="M640.89,251.78c1.12,0.32,2.26,0.64,3.83,0.64c0.3-1.27,0.63-2.26,1.07-3.69c0.55-1.77,0.42-3.68,2.41-3.22
		l3.01,1.28c0.66-2.82,2.53-6.91,2.6-9.96l-6.51,4.31c-2.1,1.28-4.49,3.35-6.91,3.92c-0.77-1.6-1.73-7.5-1.73-9.96
		c-2.33,0.19-4.4,1.05-6.68,1.54c-2.36,0.51-4.53,1.44-6.74,1.49c-0.61-1.16-0.83-2.03-1.44-3.33c-0.51-1.08-1.26-1.99-1.47-2.86
		c-0.58-2.37-0.03-4.31-1.14-7.08l-0.28-0.59c0,5.06,0.87,8.7,0.87,13.85c-3.23,1.55-2.35,2.22-4.45,5.07
		c-0.98,1.32-3.37,4.01-3.55,5.45l-3.14,4.92l-0.31,0.37c-0.42,0.61-0.74,1.01-0.92,1.56l-1.9,3.84c-0.07,3.24-3.53,6.33-3.63,9.28
		c-0.08,2.4,4.32,4.99,4.93,7.6h0.87c0-1.76-0.14-1.39,0.43-2.6c2.11,0.23,7.61,5.25,9.96,6.49l8.27-6.89
		c2.82-2.6,1.91-1.61,3.6-5.05c0.1-0.2,0.19-0.39,0.28-0.58c0.65-0.12,1.04-0.23,0.87-0.3c-0.61-0.27,7.09-12.87,7.09-12.87
		L640.89,251.78z"/>
	<path class="st1" d="M697.11,116.05c0.13,1.61,1.01,3.15,1.64,4.42l0.84,2.19c0.22,0.65,0.56,1.55,0.84,2.19l7.07,17.18
		c0.54,1.48,1.18,2.82,1.79,4.27c0.3,0.72,0.54,1.52,0.83,2.2c0.5,1.19,0.7,0.97,0.84,2.62c1.67-0.45,0.05-0.02,1.54-0.62l1.85-0.75
		c1.18-0.47,2.33-0.95,3.53-1.23c-0.32-3.8-3.46-18.27-3.2-20.12c1.3-9.23,3.2-6.23,3.2-20.58c-2.21,1.62-0.07,1.46-4.16,2.77
		L697.11,116.05z"/>
	<path class="st3" d="M741.27,136.39c0,0-5.11-7.5-6.61-9.88c-1.48-4.15-3.42-9.14-4.02-10.66l-5.19-13.02
		c-1.02-1.08-1.93,0.17-1.93,1.09v6.49c0,4.87,1.7-1.16-0.18,8.91c-0.6,3.18-0.81,6.27-1.81,9.04c-0.57,1.56-0.47-0.18-0.36,1.74
		c0.01,0.22,0.32,1.88,0.37,2.2c0.32,1.82,0.54,3,0.87,4.77c0.59,3.15,1.29,6.61,1.55,9.71c1.65-0.04,11.82-3.13,13.07-4.25
		l1.75-1.71C740.46,139.3,740.69,138.86,741.27,136.39z"/>
	<path class="st4" d="M665.93,228.18l1.3,6.49l6.67,1.55c3.56,0.76,4.97,0.12,4.15,3.64c4.41,0.1,1.47,2.17,0.87,4.76l5.63,3.03
		c0.69-0.5,0.56,0.18-0.18-2.85c-0.66-2.71-4.15-5.18-4.15-5.81c0-1.73,1.3-3.01,1.3-5.63c0-2.29-1.1-3.67-1.3-6.06
		c0.48-0.26,0.53-0.29,1.06-0.67c0.1-0.07,0.39-0.29,0.5-0.37l1.63-0.97c0.75-0.21,0.79-0.16,1.58-0.16
		c-0.04,1.99-0.62,2.29-0.75,3.55c-0.06,0.58,2.78,16.18,4.6,18.13c1.71,1.84,1.37-0.06,3.27,1.5c1.42,1.16,0.38,1.83,2.4,2.36
		c0.06,0.03,0.18-0.03,0.21,0.04l4.99-1.34c0.38-1.65,0.43-1.72,0.43-3.9c-1.26,1.81,0.08,1.7-1.73,3.03
		c-1.49-0.4-0.68,0.14-1.87-2.46l-0.3,2.46c-3.08-0.26-1.25-1.41-2.18-5.59c-0.54-2.42-1.5-4.51-2.26-6.85l-2.21-6.88
		c-0.8-2.39-1.39-4.69-2.44-6.66l-3.5,1.07c-0.31,0.06-0.59,0.08-1.24,0.23l-11,2.88C669.47,227.29,667.82,227.74,665.93,228.18z"/>
	<path class="st15" d="M713.12,168c3.27-1.57,19.52-6.29,24.19-7.84c0.44-0.15,1-0.3,1.63-0.54l1.24-0.61l0.65-0.11
		c1.18,0.31,4.01,4,4.33,5.2c2.21-0.51,1.86-1.13,3.08-2.11c0.86-0.69,2.44-1.23,3.85-1.35c0.67,0.99,0.83,0.87,0.87,2.6
		c3.21,0,3.22,0.32,4.76-2.6c-2.01-0.54-0.41-0.69-3.34-0.94c-0.39-0.03-1.34-0.16-1.39-0.2c-0.48-0.34-0.32,0.22-0.46-1.02
		l-1.58-0.59c-1.53-0.91-1.11-0.64-1.45-1.58l-6.18-6.49l0.55-4.33c-3.43,1.24-0.35,2.86-10.39,5.19l-12.31,4.14
		c-1.45,0.33-2.98,0.67-4.22,0.98c-1.84,0.45-4.25,0.1-4.25,1.81L713.12,168z"/>
	<g>
		<path class="st3" d="M695.81,198.74l1.91,1.55c0.24,0.28,0.49,0.59,0.76,0.93l3.57,5.13l-1.63,4.17
			c-2.08,2.13-5.15,4.72-3.27,8.11c0.03,0.06,0.91,1.03,1.03,1.13c2.53,2.12,3.22,0.38,7.21,3.62c0.51,0.41,0.75,0.56,1.26,0.91
			c-0.01-0.13-0.13-1.01-0.13-1.02l0.71-4.88l1.58-9.68l0.2-2.93c0.2-1.49,0.44-2.5,0.23-3.28v0v0c-0.08-0.31-0.24-0.59-0.5-0.84
			l-2.36-3.98c-0.2-1.3,0.47-2.74,1.18-4.92c0.1-0.3,0.24,0.27,0.37-1.36c-2.12-0.18-8.79-3.62-12.12-3.9
			c-0.09,3.95-1.32,0.89,0.16,5.47C697.07,196.33,696.07,195.6,695.81,198.74L695.81,198.74z M707.22,218.38L707.22,218.38
			L707.22,218.38z"/>
	</g>
	<path class="st3" d="M705.41,235.06c-0.41-0.45-1.18-1.21-2.13-2.15l0.23-0.06c-0.19-0.19-0.37-0.37-0.56-0.56
		c-0.07-0.07-0.13-0.14-0.19-0.21h-0.02c0-0.07-0.2-0.26-0.26-0.31c-0.12-0.12-0.22-0.25-0.32-0.38l0.01,0.02
		c-0.11-0.11-0.21-0.21-0.3-0.32l0,0.13c-0.22-0.06-0.47-0.19-0.73-0.37l-1.83-1.76c-1.34-1.55-2.63-3.5-3.08-4.36
		c-4.03-7.81-1.04-8.24-5.18-8.24c-1,0-1.3,0.3-1.3,1.3c0,4.84,5.2,10.86,5.2,17.75c2.69,1.42,1.31,1.21,2.6,3.9
		c2.52-0.21,9.03-3.45,9.09-3.46v-0.87C706.16,235.1,705.75,235.09,705.41,235.06z"/>
	<path class="st10" d="M718.85,183.07l0.01,0l0,0c0.58,0.02,1.04-0.18,1.49-0.43l12.16-3.54l-1.88-6.11
		c0.12-1.47,0.13-2.58-0.61-4.12c-0.22,0.05-0.43,0.1-0.63,0.16l-16.39,4.33l2.25,9.6L718.85,183.07z"/>
	<path class="st6" d="M653.23,609.25l-3.69-0.17c-0.1,0.01-0.39,0.07-0.47,0.08c-0.07,0.01-0.29,0.03-0.42,0.1
		c0,24.55,4.32,8.5,4.58,20.15c2.73-0.23,3.03-0.52,4.54-1.93c2.4-2.24,0.23-0.23,1.27-1.83c1.91-2.93,0.2,0.08,5.23-4.41
		c0.39-0.35-0.42-1.77,5.44-1.9c-1.11-4.77-0.41-6.09,0-10.99c-5.32,1.24-4.6,0.31-8.87-2.11c-3.91-2.22-4.83-2.01-7.61-5.21V609.25
		L653.23,609.25z M546.08,549.71c-3.12,0.84-5.54,3.74-7.33,6.41C548.22,560.67,546.08,553.81,546.08,549.71L546.08,549.71z
		 M619.35,588.18c3.54-0.94,7.01-4.39,7.33-8.24C619.23,579.94,619.35,579.71,619.35,588.18L619.35,588.18z M614.77,570.78
		c0,3.62-0.29,3.72-0.92,6.41h12.82c-0.79-2.96-0.81-2.26-2.94-4.39C619.73,568.8,620.27,569.5,614.77,570.78L614.77,570.78z
		 M513.1,531.4c-2.4-3.58-9.27-11.91-14.65-11.91c-5.62,0,0.12,4.31,1.6,5.72c2.52,2.43,4.49,3.22,4.82,7.1L513.1,531.4L513.1,531.4
		z M517.68,548.8c0-4.53,0.56-6.54-0.91-9.16c-2.66,1.95-1.73-0.13-1.83,4.58h-2.75v-5.49h-3.66c-3.99,0-2.03,3-3.66,6.41
		c2.55,1.22,1.77,0.92,5.5,0.92c-0.33,3.92-1.9,3.85,2.59,4.84C518.21,552.04,517.68,549.95,517.68,548.8L517.68,548.8z
		 M548.82,551.55c3.05,1.46,3.87,0.23,6.56,1.68c1.24,0.67,2.63,2.61,4.43,3.81c3-2.01,2.85-3.63,6.41-4.58v-7.33h-11.91
		C554.13,553.49,552.34,546.75,548.82,551.55L548.82,551.55z M606.52,571.7c-1.15-4.3-2.49-2.48-4.04-6.04
		c-1.13-2.59-0.06-5.87-4.2-5.87c-4.05,0-9.16-0.93-9.16,3.66C589.12,573.65,602.43,574,606.52,571.7L606.52,571.7z M630.34,592.76
		c2.65-1.94,1.83-0.75,1.83-5.49h2.75c-0.24,2.85-2.21,5.49,1.83,5.49c5.75,0,5.49,0.15,5.49-5.49c5.05,0.42,6.91,2.65,4.58-7.33
		h-14.65c-0.1-4.71,0.83-2.63-1.83-4.58c-1.2,2.42-0.92-0.75-0.92,2.75C629.42,585.89,628.82,586.26,630.34,592.76z"/>
	<path class="st3" d="M727.41,188.78c-5.93,0-3.58-1.14-8.99,4c-0.49,0.47-0.64,0.63-1.02,1.14l-0.81,1.35
		c3.17-0.26,8.51-2.39,10.62-4.54l4.54-4.55C729.53,186.7,727.99,186.61,727.41,188.78z"/>
	<path class="st16" d="M736.5,167.13c0,1.35,0.2,3.65,0.73,4.42c1.38,2.02-0.35-0.59,1.24,0.66c0.91,0.71,0.58-0.08,0.62,1.85
		c1.58-0.42,3.46-2.43,3.46-3.46c0-1.46-2.04-2.26-2.6-4.33C739.14,166.66,737.66,167.04,736.5,167.13z"/>
	<path class="st16" d="M696.24,256.75c0.03,1.48,1.56,7.17,2.6,8.66c0.03-1.52,1.88-9.09,0-9.09
		C697.34,256.32,697.91,256.58,696.24,256.75z"/>
	<path class="st16" d="M707.93,261.51c2.41,0,2.05,0.11,3.9-0.87c0-2.56,0.2-2.31-0.87-4.33h-3.03V261.51z"/>
	<path class="st12" d="M655.11,236.4c1.84,0.04,6.49,2.52,6.49,0C661.61,229.73,655.18,236.31,655.11,236.4z"/>
	<g>
		<path class="st0" d="M152.96,621.96l0.11,0.11c-0.01-0.01-0.06-0.03-0.11-0.07v0.98c1.49,2.1,4.16,1.74,7.05,1.74
			c3.22,0,3.46-1.61,5.33-3.25c1.73-1.52,2.38-3.29,4.68-3.9c2.17,4.52-0.43,2.34-2.26,6.32c-2.23,4.83,1.11,3.02-4.17,6.56v8.58
			c-2.24,1.5-2.85,1.19-3.58,4.29c1.22-0.58,2.46-0.94,3.69-1.32c4.84-1.48,3.15-2.77,5.18-5.55c1.48-2.03,3.9-3.37,5.62-5.1
			l2.76-2.97c1.9-1.9,3.62-3.34,4.92-5.81c-1.56-2.33-1.18-1.59-3.58-2.86c0.96-4.14-0.29-3.96,2.61-6.69
			c2.84-2.68,1.82-2.93,5.26-4.75c0-5.34,1.03-6.39,3.15-10.44c1.18-2.25-0.51-1.61,2.57-2.43c0.1-0.05,0.3-0.17,0.33-0.06
			c0.04,0.12,0.29-0.04,0.35-0.03c2.31,0.35,4.87,2.21,7.02,3.17c0.11,0.05,0.31,0.15,0.41,0.19c3.17,1.29,3.26-1.23,6.35-3.12
			c1.61-0.98-0.08-0.86,3.43-0.86c3.48,0,5.25,2.93,8.26,3.9c2.68,0.86,3-0.21,5.31,1.12c2.56,1.47,0.76,2.85,3.59,2.85
			c3.87,0,3.6-2.02,5.72-3.58c5.75,0,11.76,0.38,16.45-0.71c0.49,1.85,0.7,2.21,2.38,3.34c2.18,1.46,1.38,0.95,4.77,0.95
			c-1.74-2.6-3.92-3.2-5.82-5.62l-0.59-0.84c-0.36-0.57-0.34-0.28-0.75-1.4c-4.94,1.32-0.39,3.58-7.87,3.58
			c-2.6,0-2.19-2.21-2.73-4.42c-2.14-8.69-8.57-26.28-11.01-35.47l-8.86-29.76c-1.69-5.08-2.55-10.09-4.5-14.81
			c-1.05-2.55-1.17-1.46-3.32-2.41c-1.75-0.77-0.01,0.33-1.39-0.76l-1.8-2.49c-5.13,0.43-4.79,3.57-10.73,3.57h-20.02
			c-4.91,0,3.26-3.57-13.59-3.57c-0.88-4.14-0.41-0.08,0.71-4.29h-2.15c-1.98,5.48-5.45,2.79-9.14,5.88l-0.05,0.06V621.96z
			 M152.86,621.86l0.1,0.1V509.79l-3.78,4.03c-2.93,2.76-1.16,1.79-4.91,1.48c-0.24,2.91-0.96,3.62-1.84,6.02
			c-2.73,7.44-0.74,5.42-12.46,5.42v5.01c2.01,0.54,7.15,2.59,7.15,5.01v5.72c3.61,0,7.48-1.06,7.87,3.58
			c4.07,0.09,3.58,1.71,3.58,5.01c0,1.94-0.9,1.89-2.5,3.22c-1.23,1.03-2.12,1.76-3.22,2.5c-2.73-0.73-7.61-2.65-8.97-5.49
			c-0.03-0.06-0.1-0.27-0.13-0.33c-0.02-0.05-0.09-0.27-0.11-0.31c-0.01-0.04-0.04-0.21-0.09-0.31c-0.14,0.1-0.38,0.05-0.45,0.26
			l-7.33,2.68c-2.48,0.65-1.97,1.91-4.37,2.78c0.49,2.1,0.71,2.18,0.71,5.01c4.73-1,2.32,0.66,4,3.86
			c2.05,3.88,8.72,3.29,12.45,3.29c2.26,0,1.26-0.63,2.57-1.72c2.99-2.51,5.77-1.85,9.59-1.85c5.22,0-1.82,5.44-2.15,6.44
			c0,3.51,1.13,8.58-2.15,8.58h-5.01c-0.06,2.81,0.2,1.68-0.72,3.58h-9.3c-3.3,4.75-1.2,0.36-1.47,5.07
			c-0.23,4.04-1.47,2.73-4.25,2.08v10.01c2.69,1.8,4.59,2.1,7.87,2.86v10.73c3.32-0.89,4.29-2.95,4.29-7.15
			c5.05,0.11,3.58,1.74,3.58,7.15c1.93,0.16,1.95,0.34,3.58,0.72v7.87c3.05-2.04,2.29-1.43,7.15-1.43c0.2,0.76,0.48,1.36,0.82,1.84
			V622C152.89,621.96,152.82,621.9,152.86,621.86z"/>
		<path class="st0" d="M185.33,638.59c6.95-7.15,7.58-0.93,7.58-5.29c0-7.62-7-2-9.3,1.43c-2.65-0.71-0.92-0.72-3.43-1.29
			l-4.44,4.87c0.71,0.97,3.92,3.56,5.01,4.29L185.33,638.59z"/>
		<path class="st0" d="M193.63,609.7c4.5,0,2.85-0.69,4.1,1.51l0.19,0.64c0.4-0.59,0.54-0.94,1.16-1.7c2.29-2.8,3.53-3.95,6.71-4.02
			c-0.65-2.8-0.65-1.49,0-4.29c-2.84,0.66-7.77,0-12.16,0V609.7z"/>
		<path class="st0" d="M109.24,582.53c2-1.34,4.03-2.59,4.29-5.72h-3.58c-0.06-2.81,0.2-1.68-0.72-3.58h-6.44
			c-0.23-2.79,0.43-2.17-2.15-2.86c0,5.17,0.2,4.25,3.03,6.98C105.66,579.25,107.07,581.07,109.24,582.53z"/>
		<path class="st0" d="M119.97,612.56c-0.23,2.8-0.99,2.14,0,4.29c5.78-3.87,5.01-5.23,5.01-10.01c-6.28,0-9.3-0.97-9.3,3.58v1.43
			C117.66,612.8,117.06,612.56,119.97,612.56z"/>
		<path class="st0" d="M102.8,676.21h3.58v-5.01h-5.01c-0.91,1.9-0.65,0.76-0.72,3.58c-2.81,0.06-1.68-0.19-3.58,0.72
			c0,5.48-0.47,5.01,5.01,5.01c0.93-1.89,0.72,0.59,0.72-2.15V676.21z"/>
		<path class="st0" d="M68.48,678.36h-7.15c-4.97,0,1.73,4.96,2.86,5.72C66.18,682.74,68.21,681.49,68.48,678.36z"/>
		<path class="st0" d="M124.26,663.34c-1.07,2.22-2.44,5.72,0.72,5.72c5.26,0,4.78-0.54,3.58-5.72H124.26z"/>
		<path class="st0" d="M40.58,679.07v5.72c3.23-1.55,8.04,0.61,5.01-5.72C43.31,677.98,42.87,677.98,40.58,679.07z"/>
		<path class="st0" d="M51.31,684.08c3.1,0,3.1-5.72,0-5.72c-3.36,0-2.86,0.51-2.86,5.72H51.31z"/>
	</g>
</g>
</svg>
